<svg width="500" height="500" xmlns="http://www.w3.org/2000/svg"><rect x="0" y="0" width="500" height="500" stroke="0" fill="rgb(255, 255, 255)" opacity="1" /><circle cx="60.0" cy="30.0" r="2" stroke="0" fill="rgb(0, 0, 0)" opacity="1" /><circle cx="60.0" cy="40.0" r="2" stroke="0" fill="rgb(0, 0, 0)" opacity="1" /><circle cx="60.0" cy="50.0" r="2" stroke="0" fill="rgb(0, 0, 0)" opacity="1" /><circle cx="60.0" cy="60.0" r="2" stroke="0" fill="rgb(0, 0, 0)" opacity="1" /><circle cx="20.0" cy="0.0" r="2" stroke="0" fill="rgb(0, 0, 0)" opacity="1" /><circle cx="20.0" cy="90.0" r="2" stroke="0" fill="rgb(0, 0, 0)" opacity="1" /><circle cx="50.0" cy="200.0" r="2" stroke="0" fill="rgb(0, 0, 0)" opacity="1" /><circle cx="60.0" cy="210.0" r="2" stroke="0" fill="rgb(0, 0, 0)" opacity="1" /><circle cx="70.0" cy="220.0" r="2" stroke="0" fill="rgb(0, 0, 0)" opacity="1" /><circle cx="80.0" cy="230.0" r="2" stroke="0" fill="rgb(0, 0, 0)" opacity="1" /><circle cx="0.0" cy="210.0" r="2" stroke="0" fill="rgb(0, 0, 0)" opacity="1" /><circle cx="90.0" cy="270.0" r="2" stroke="0" fill="rgb(0, 0, 0)" opacity="1" /><circle cx="210.0" cy="30.0" r="2" stroke="0" fill="rgb(0, 0, 0)" opacity="1" /><circle cx="210.0" cy="40.0" r="2" stroke="0" fill="rgb(0, 0, 0)" opacity="1" /><circle cx="210.0" cy="50.0" r="2" stroke="0" fill="rgb(0, 0, 0)" opacity="1" /><circle cx="210.0" cy="60.0" r="2" stroke="0" fill="rgb(0, 0, 0)" opacity="1" /><circle cx="170.0" cy="0.0" r="2" stroke="0" fill="rgb(0, 0, 0)" opacity="1" /><circle cx="170.0" cy="90.0" r="2" stroke="0" fill="rgb(0, 0, 0)" opacity="1" /><circle cx="200.0" cy="200.0" r="2" stroke="0" fill="rgb(0, 0, 0)" opacity="1" /><circle cx="210.0" cy="210.0" r="2" stroke="0" fill="rgb(0, 0, 0)" opacity="1" /><circle cx="220.0" cy="220.0" r="2" stroke="0" fill="rgb(0, 0, 0)" opacity="1" /><circle cx="230.0" cy="230.0" r="2" stroke="0" fill="rgb(0, 0, 0)" opacity="1" /><circle cx="150.0" cy="210.0" r="2" stroke="0" fill="rgb(0, 0, 0)" opacity="1" /><circle cx="240.0" cy="270.0" r="2" stroke="0" fill="rgb(0, 0, 0)" opacity="1" /><circle cx="60.0" cy="380.0" r="2" stroke="0" fill="rgb(0, 0, 0)" opacity="1" /><circle cx="60.0" cy="390.0" r="2" stroke="0" fill="rgb(0, 0, 0)" opacity="1" /><circle cx="60.0" cy="400.0" r="2" stroke="0" fill="rgb(0, 0, 0)" opacity="1" /><circle cx="60.0" cy="410.0" r="2" stroke="0" fill="rgb(0, 0, 0)" opacity="1" /><circle cx="20.0" cy="350.0" r="2" stroke="0" fill="rgb(0, 0, 0)" opacity="1" /><circle cx="20.0" cy="440.0" r="2" stroke="0" fill="rgb(0, 0, 0)" opacity="1" /><circle cx="210.0" cy="380.0" r="2" stroke="0" fill="rgb(0, 0, 0)" opacity="1" /><circle cx="210.0" cy="390.0" r="2" stroke="0" fill="rgb(0, 0, 0)" opacity="1" /><circle cx="210.0" cy="400.0" r="2" stroke="0" fill="rgb(0, 0, 0)" opacity="1" /><circle cx="210.0" cy="410.0" r="2" stroke="0" fill="rgb(0, 0, 0)" opacity="1" /><circle cx="170.0" cy="350.0" r="2" stroke="0" fill="rgb(0, 0, 0)" opacity="1" /><circle cx="170.0" cy="440.0" r="2" stroke="0" fill="rgb(0, 0, 0)" opacity="1" /><circle cx="360.0" cy="30.0" r="2" stroke="0" fill="rgb(0, 0, 0)" opacity="1" /><circle cx="360.0" cy="40.0" r="2" stroke="0" fill="rgb(0, 0, 0)" opacity="1" /><circle cx="360.0" cy="50.0" r="2" stroke="0" fill="rgb(0, 0, 0)" opacity="1" /><circle cx="360.0" cy="60.0" r="2" stroke="0" fill="rgb(0, 0, 0)" opacity="1" /><circle cx="320.0" cy="0.0" r="2" stroke="0" fill="rgb(0, 0, 0)" opacity="1" /><circle cx="320.0" cy="90.0" r="2" stroke="0" fill="rgb(0, 0, 0)" opacity="1" /><circle cx="350.0" cy="200.0" r="2" stroke="0" fill="rgb(0, 0, 0)" opacity="1" /><circle cx="360.0" cy="210.0" r="2" stroke="0" fill="rgb(0, 0, 0)" opacity="1" /><circle cx="370.0" cy="220.0" r="2" stroke="0" fill="rgb(0, 0, 0)" opacity="1" /><circle cx="380.0" cy="230.0" r="2" stroke="0" fill="rgb(0, 0, 0)" opacity="1" /><circle cx="300.0" cy="210.0" r="2" stroke="0" fill="rgb(0, 0, 0)" opacity="1" /><circle cx="390.0" cy="270.0" r="2" stroke="0" fill="rgb(0, 0, 0)" opacity="1" /><circle cx="470.0" cy="0.0" r="2" stroke="0" fill="rgb(0, 0, 0)" opacity="1" /><circle cx="470.0" cy="90.0" r="2" stroke="0" fill="rgb(0, 0, 0)" opacity="1" /><circle cx="450.0" cy="210.0" r="2" stroke="0" fill="rgb(0, 0, 0)" opacity="1" /><circle cx="30.0" cy="210.0" r="2" stroke="0" fill="rgb(255, 0, 0)" opacity="1" /><circle cx="30.0" cy="210.0" r="30.0" stroke="0" fill="rgb(255, 0, 0)" opacity="0.2" /><circle cx="30.0" cy="210.0" r="100.0" stroke="0" fill="rgb(0, 255, 0)" opacity="0.2" /><circle cx="40.0" cy="20.0" r="2" stroke="0" fill="rgb(255, 0, 0)" opacity="1" /><circle cx="40.0" cy="20.0" r="30.0" stroke="0" fill="rgb(255, 0, 0)" opacity="0.2" /><circle cx="40.0" cy="20.0" r="100.0" stroke="0" fill="rgb(0, 255, 0)" opacity="0.2" /><circle cx="40.0" cy="70.0" r="2" stroke="0" fill="rgb(255, 0, 0)" opacity="1" /><circle cx="40.0" cy="70.0" r="30.0" stroke="0" fill="rgb(255, 0, 0)" opacity="0.2" /><circle cx="40.0" cy="70.0" r="100.0" stroke="0" fill="rgb(0, 255, 0)" opacity="0.2" /><circle cx="40.0" cy="370.0" r="2" stroke="0" fill="rgb(255, 0, 0)" opacity="1" /><circle cx="40.0" cy="370.0" r="30.0" stroke="0" fill="rgb(255, 0, 0)" opacity="0.2" /><circle cx="40.0" cy="370.0" r="100.0" stroke="0" fill="rgb(0, 255, 0)" opacity="0.2" /><circle cx="40.0" cy="420.0" r="2" stroke="0" fill="rgb(255, 0, 0)" opacity="1" /><circle cx="40.0" cy="420.0" r="30.0" stroke="0" fill="rgb(255, 0, 0)" opacity="0.2" /><circle cx="40.0" cy="420.0" r="100.0" stroke="0" fill="rgb(0, 255, 0)" opacity="0.2" /><circle cx="70.0" cy="250.0" r="2" stroke="0" fill="rgb(255, 0, 0)" opacity="1" /><circle cx="70.0" cy="250.0" r="30.0" stroke="0" fill="rgb(255, 0, 0)" opacity="0.2" /><circle cx="70.0" cy="250.0" r="100.0" stroke="0" fill="rgb(0, 255, 0)" opacity="0.2" /><circle cx="180.0" cy="210.0" r="2" stroke="0" fill="rgb(255, 0, 0)" opacity="1" /><circle cx="180.0" cy="210.0" r="30.0" stroke="0" fill="rgb(255, 0, 0)" opacity="0.2" /><circle cx="180.0" cy="210.0" r="100.0" stroke="0" fill="rgb(0, 255, 0)" opacity="0.2" /><circle cx="190.0" cy="20.0" r="2" stroke="0" fill="rgb(255, 0, 0)" opacity="1" /><circle cx="190.0" cy="20.0" r="30.0" stroke="0" fill="rgb(255, 0, 0)" opacity="0.2" /><circle cx="190.0" cy="20.0" r="100.0" stroke="0" fill="rgb(0, 255, 0)" opacity="0.2" /><circle cx="190.0" cy="70.0" r="2" stroke="0" fill="rgb(255, 0, 0)" opacity="1" /><circle cx="190.0" cy="70.0" r="30.0" stroke="0" fill="rgb(255, 0, 0)" opacity="0.2" /><circle cx="190.0" cy="70.0" r="100.0" stroke="0" fill="rgb(0, 255, 0)" opacity="0.2" /><circle cx="190.0" cy="370.0" r="2" stroke="0" fill="rgb(255, 0, 0)" opacity="1" /><circle cx="190.0" cy="370.0" r="30.0" stroke="0" fill="rgb(255, 0, 0)" opacity="0.2" /><circle cx="190.0" cy="370.0" r="100.0" stroke="0" fill="rgb(0, 255, 0)" opacity="0.2" /><circle cx="190.0" cy="420.0" r="2" stroke="0" fill="rgb(255, 0, 0)" opacity="1" /><circle cx="190.0" cy="420.0" r="30.0" stroke="0" fill="rgb(255, 0, 0)" opacity="0.2" /><circle cx="190.0" cy="420.0" r="100.0" stroke="0" fill="rgb(0, 255, 0)" opacity="0.2" /><circle cx="220.0" cy="250.0" r="2" stroke="0" fill="rgb(255, 0, 0)" opacity="1" /><circle cx="220.0" cy="250.0" r="30.0" stroke="0" fill="rgb(255, 0, 0)" opacity="0.2" /><circle cx="220.0" cy="250.0" r="100.0" stroke="0" fill="rgb(0, 255, 0)" opacity="0.2" /><circle cx="330.0" cy="210.0" r="2" stroke="0" fill="rgb(255, 0, 0)" opacity="1" /><circle cx="330.0" cy="210.0" r="30.0" stroke="0" fill="rgb(255, 0, 0)" opacity="0.2" /><circle cx="330.0" cy="210.0" r="100.0" stroke="0" fill="rgb(0, 255, 0)" opacity="0.2" /><circle cx="340.0" cy="20.0" r="2" stroke="0" fill="rgb(255, 0, 0)" opacity="1" /><circle cx="340.0" cy="20.0" r="30.0" stroke="0" fill="rgb(255, 0, 0)" opacity="0.2" /><circle cx="340.0" cy="20.0" r="100.0" stroke="0" fill="rgb(0, 255, 0)" opacity="0.2" /><circle cx="340.0" cy="70.0" r="2" stroke="0" fill="rgb(255, 0, 0)" opacity="1" /><circle cx="340.0" cy="70.0" r="30.0" stroke="0" fill="rgb(255, 0, 0)" opacity="0.2" /><circle cx="340.0" cy="70.0" r="100.0" stroke="0" fill="rgb(0, 255, 0)" opacity="0.2" /><circle cx="370.0" cy="250.0" r="2" stroke="0" fill="rgb(255, 0, 0)" opacity="1" /><circle cx="370.0" cy="250.0" r="30.0" stroke="0" fill="rgb(255, 0, 0)" opacity="0.2" /><circle cx="370.0" cy="250.0" r="100.0" stroke="0" fill="rgb(0, 255, 0)" opacity="0.2" /><circle cx="480.0" cy="210.0" r="2" stroke="0" fill="rgb(255, 0, 0)" opacity="1" /><circle cx="480.0" cy="210.0" r="30.0" stroke="0" fill="rgb(255, 0, 0)" opacity="0.2" /><circle cx="480.0" cy="210.0" r="100.0" stroke="0" fill="rgb(0, 255, 0)" opacity="0.2" /><circle cx="490.0" cy="0.0" r="2" stroke="0" fill="rgb(255, 0, 0)" opacity="1" /><circle cx="490.0" cy="0.0" r="30.0" stroke="0" fill="rgb(255, 0, 0)" opacity="0.2" /><circle cx="490.0" cy="0.0" r="100.0" stroke="0" fill="rgb(0, 255, 0)" opacity="0.2" /><circle cx="460.0" cy="100.0" r="2" stroke="0" fill="rgb(255, 0, 0)" opacity="1" /><circle cx="460.0" cy="100.0" r="30.0" stroke="0" fill="rgb(255, 0, 0)" opacity="0.2" /><circle cx="460.0" cy="100.0" r="100.0" stroke="0" fill="rgb(0, 255, 0)" opacity="0.2" /></svg>