<svg width="500" height="500" xmlns="http://www.w3.org/2000/svg"><rect x="0" y="0" width="500" height="500" stroke="0" fill="rgb(255, 255, 255)" opacity="1" /><circle cx="0.0" cy="466.6666666666667" r="2" stroke="0" fill="rgb(0, 0, 0)" opacity="1" /><circle cx="66.66666666666667" cy="466.6666666666667" r="2" stroke="0" fill="rgb(0, 0, 0)" opacity="1" /><circle cx="33.333333333333336" cy="450.0" r="2" stroke="0" fill="rgb(0, 0, 0)" opacity="1" /><circle cx="100.0" cy="433.33333333333337" r="2" stroke="0" fill="rgb(0, 0, 0)" opacity="1" /><circle cx="16.666666666666668" cy="416.6666666666667" r="2" stroke="0" fill="rgb(0, 0, 0)" opacity="1" /><circle cx="116.66666666666667" cy="400.0" r="2" stroke="0" fill="rgb(0, 0, 0)" opacity="1" /><circle cx="150.0" cy="383.33333333333337" r="2" stroke="0" fill="rgb(0, 0, 0)" opacity="1" /><circle cx="50.0" cy="383.33333333333337" r="2" stroke="0" fill="rgb(0, 0, 0)" opacity="1" /><circle cx="50.0" cy="350.0" r="2" stroke="0" fill="rgb(0, 0, 0)" opacity="1" /><circle cx="133.33333333333334" cy="350.0" r="2" stroke="0" fill="rgb(0, 0, 0)" opacity="1" /><circle cx="100.0" cy="316.66666666666663" r="2" stroke="0" fill="rgb(0, 0, 0)" opacity="1" /><circle cx="150.0" cy="300.0" r="2" stroke="0" fill="rgb(0, 0, 0)" opacity="1" /><circle cx="383.33333333333337" cy="200.0" r="2" stroke="0" fill="rgb(0, 0, 0)" opacity="1" /><circle cx="466.6666666666667" cy="183.33333333333331" r="2" stroke="0" fill="rgb(0, 0, 0)" opacity="1" /><circle cx="366.66666666666663" cy="166.66666666666666" r="2" stroke="0" fill="rgb(0, 0, 0)" opacity="1" /><circle cx="333.3333333333333" cy="150.0" r="2" stroke="0" fill="rgb(0, 0, 0)" opacity="1" /><circle cx="433.33333333333337" cy="150.0" r="2" stroke="0" fill="rgb(0, 0, 0)" opacity="1" /><circle cx="450.0" cy="150.0" r="2" stroke="0" fill="rgb(0, 0, 0)" opacity="1" /><circle cx="466.6666666666667" cy="133.33333333333334" r="2" stroke="0" fill="rgb(0, 0, 0)" opacity="1" /><circle cx="300.0" cy="116.66666666666667" r="2" stroke="0" fill="rgb(0, 0, 0)" opacity="1" /><circle cx="383.33333333333337" cy="100.0" r="2" stroke="0" fill="rgb(0, 0, 0)" opacity="1" /><circle cx="416.6666666666667" cy="100.0" r="2" stroke="0" fill="rgb(0, 0, 0)" opacity="1" /><circle cx="316.66666666666663" cy="83.33333333333333" r="2" stroke="0" fill="rgb(0, 0, 0)" opacity="1" /><circle cx="350.0" cy="66.66666666666667" r="2" stroke="0" fill="rgb(0, 0, 0)" opacity="1" /><circle cx="300.0" cy="50.0" r="2" stroke="0" fill="rgb(0, 0, 0)" opacity="1" /><circle cx="16.666666666666668" cy="466.6666666666667" r="2" stroke="0" fill="rgb(255, 0, 0)" opacity="1" /><circle cx="16.666666666666668" cy="466.6666666666667" r="50.0" stroke="0" fill="rgb(255, 0, 0)" opacity="0.2" /><circle cx="16.666666666666668" cy="466.6666666666667" r="133.33333333333334" stroke="0" fill="rgb(0, 255, 0)" opacity="0.2" /><circle cx="16.666666666666668" cy="366.66666666666663" r="2" stroke="0" fill="rgb(255, 0, 0)" opacity="1" /><circle cx="16.666666666666668" cy="366.66666666666663" r="50.0" stroke="0" fill="rgb(255, 0, 0)" opacity="0.2" /><circle cx="16.666666666666668" cy="366.66666666666663" r="133.33333333333334" stroke="0" fill="rgb(0, 255, 0)" opacity="0.2" /><circle cx="150.0" cy="433.33333333333337" r="2" stroke="0" fill="rgb(255, 0, 0)" opacity="1" /><circle cx="150.0" cy="433.33333333333337" r="50.0" stroke="0" fill="rgb(255, 0, 0)" opacity="0.2" /><circle cx="150.0" cy="433.33333333333337" r="133.33333333333334" stroke="0" fill="rgb(0, 255, 0)" opacity="0.2" /><circle cx="133.33333333333334" cy="300.0" r="2" stroke="0" fill="rgb(255, 0, 0)" opacity="1" /><circle cx="133.33333333333334" cy="300.0" r="50.0" stroke="0" fill="rgb(255, 0, 0)" opacity="0.2" /><circle cx="133.33333333333334" cy="300.0" r="133.33333333333334" stroke="0" fill="rgb(0, 255, 0)" opacity="0.2" /><circle cx="266.6666666666667" cy="83.33333333333333" r="2" stroke="0" fill="rgb(255, 0, 0)" opacity="1" /><circle cx="266.6666666666667" cy="83.33333333333333" r="50.0" stroke="0" fill="rgb(255, 0, 0)" opacity="0.2" /><circle cx="266.6666666666667" cy="83.33333333333333" r="133.33333333333334" stroke="0" fill="rgb(0, 255, 0)" opacity="0.2" /><circle cx="400.0" cy="66.66666666666667" r="2" stroke="0" fill="rgb(255, 0, 0)" opacity="1" /><circle cx="400.0" cy="66.66666666666667" r="50.0" stroke="0" fill="rgb(255, 0, 0)" opacity="0.2" /><circle cx="400.0" cy="66.66666666666667" r="133.33333333333334" stroke="0" fill="rgb(0, 255, 0)" opacity="0.2" /><circle cx="333.3333333333333" cy="200.0" r="2" stroke="0" fill="rgb(255, 0, 0)" opacity="1" /><circle cx="333.3333333333333" cy="200.0" r="50.0" stroke="0" fill="rgb(255, 0, 0)" opacity="0.2" /><circle cx="333.3333333333333" cy="200.0" r="133.33333333333334" stroke="0" fill="rgb(0, 255, 0)" opacity="0.2" /><circle cx="466.6666666666667" cy="183.33333333333331" r="2" stroke="0" fill="rgb(255, 0, 0)" opacity="1" /><circle cx="466.6666666666667" cy="183.33333333333331" r="50.0" stroke="0" fill="rgb(255, 0, 0)" opacity="0.2" /><circle cx="466.6666666666667" cy="183.33333333333331" r="133.33333333333334" stroke="0" fill="rgb(0, 255, 0)" opacity="0.2" /></svg>