<svg width="500" height="500" xmlns="http://www.w3.org/2000/svg"><rect x="0" y="0" width="500" height="500" stroke="0" fill="rgb(255, 255, 255)" opacity="1" /><circle cx="330.0" cy="80.0" r="2" stroke="0" fill="rgb(0, 0, 0)" opacity="1" /><circle cx="30.0" cy="410.0" r="2" stroke="0" fill="rgb(0, 0, 0)" opacity="1" /><circle cx="145.0" cy="250.0" r="2" stroke="0" fill="rgb(0, 0, 0)" opacity="1" /><circle cx="420.0" cy="335.0" r="2" stroke="0" fill="rgb(0, 0, 0)" opacity="1" /><circle cx="25.0" cy="220.0" r="2" stroke="0" fill="rgb(0, 0, 0)" opacity="1" /><circle cx="270.0" cy="290.0" r="2" stroke="0" fill="rgb(0, 0, 0)" opacity="1" /><circle cx="495.0" cy="265.0" r="2" stroke="0" fill="rgb(0, 0, 0)" opacity="1" /><circle cx="200.0" cy="205.0" r="2" stroke="0" fill="rgb(0, 0, 0)" opacity="1" /><circle cx="285.0" cy="485.0" r="2" stroke="0" fill="rgb(0, 0, 0)" opacity="1" /><circle cx="315.0" cy="445.0" r="2" stroke="0" fill="rgb(0, 0, 0)" opacity="1" /><circle cx="255.0" cy="370.0" r="2" stroke="0" fill="rgb(0, 0, 0)" opacity="1" /><circle cx="305.0" cy="375.0" r="2" stroke="0" fill="rgb(0, 0, 0)" opacity="1" /><circle cx="290.0" cy="95.0" r="2" stroke="0" fill="rgb(0, 0, 0)" opacity="1" /><circle cx="60.0" cy="320.0" r="2" stroke="0" fill="rgb(0, 0, 0)" opacity="1" /><circle cx="460.0" cy="435.0" r="2" stroke="0" fill="rgb(0, 0, 0)" opacity="1" /><circle cx="445.0" cy="415.0" r="2" stroke="0" fill="rgb(0, 0, 0)" opacity="1" /><circle cx="440.0" cy="290.0" r="2" stroke="0" fill="rgb(0, 0, 0)" opacity="1" /><circle cx="80.0" cy="325.0" r="2" stroke="0" fill="rgb(0, 0, 0)" opacity="1" /><circle cx="495.0" cy="315.0" r="2" stroke="0" fill="rgb(0, 0, 0)" opacity="1" /><circle cx="235.0" cy="390.0" r="2" stroke="0" fill="rgb(0, 0, 0)" opacity="1" /><circle cx="40.0" cy="75.0" r="2" stroke="0" fill="rgb(0, 0, 0)" opacity="1" /><circle cx="375.0" cy="385.0" r="2" stroke="0" fill="rgb(0, 0, 0)" opacity="1" /><circle cx="255.0" cy="365.0" r="2" stroke="0" fill="rgb(0, 0, 0)" opacity="1" /><circle cx="310.0" cy="175.0" r="2" stroke="0" fill="rgb(0, 0, 0)" opacity="1" /><circle cx="155.0" cy="125.0" r="2" stroke="0" fill="rgb(0, 0, 0)" opacity="1" /><circle cx="30.0" cy="0.0" r="2" stroke="0" fill="rgb(0, 0, 0)" opacity="1" /><circle cx="350.0" cy="470.0" r="2" stroke="0" fill="rgb(0, 0, 0)" opacity="1" /><circle cx="185.0" cy="390.0" r="2" stroke="0" fill="rgb(0, 0, 0)" opacity="1" /><circle cx="420.0" cy="60.0" r="2" stroke="0" fill="rgb(0, 0, 0)" opacity="1" /><circle cx="185.0" cy="455.0" r="2" stroke="0" fill="rgb(0, 0, 0)" opacity="1" /><circle cx="120.0" cy="430.0" r="2" stroke="0" fill="rgb(0, 0, 0)" opacity="1" /><circle cx="135.0" cy="465.0" r="2" stroke="0" fill="rgb(0, 0, 0)" opacity="1" /><circle cx="485.0" cy="410.0" r="2" stroke="0" fill="rgb(0, 0, 0)" opacity="1" /><circle cx="485.0" cy="440.0" r="2" stroke="0" fill="rgb(0, 0, 0)" opacity="1" /><circle cx="325.0" cy="215.0" r="2" stroke="0" fill="rgb(0, 0, 0)" opacity="1" /><circle cx="55.0" cy="180.0" r="2" stroke="0" fill="rgb(0, 0, 0)" opacity="1" /><circle cx="335.0" cy="465.0" r="2" stroke="0" fill="rgb(0, 0, 0)" opacity="1" /><circle cx="15.0" cy="5.0" r="2" stroke="0" fill="rgb(0, 0, 0)" opacity="1" /><circle cx="425.0" cy="170.0" r="2" stroke="0" fill="rgb(0, 0, 0)" opacity="1" /><circle cx="45.0" cy="45.0" r="2" stroke="0" fill="rgb(0, 0, 0)" opacity="1" /><circle cx="375.0" cy="465.0" r="2" stroke="0" fill="rgb(0, 0, 0)" opacity="1" /><circle cx="195.0" cy="280.0" r="2" stroke="0" fill="rgb(0, 0, 0)" opacity="1" /><circle cx="40.0" cy="90.0" r="2" stroke="0" fill="rgb(0, 0, 0)" opacity="1" /><circle cx="445.0" cy="75.0" r="2" stroke="0" fill="rgb(0, 0, 0)" opacity="1" /><circle cx="95.0" cy="115.0" r="2" stroke="0" fill="rgb(0, 0, 0)" opacity="1" /><circle cx="5.0" cy="215.0" r="2" stroke="0" fill="rgb(0, 0, 0)" opacity="1" /><circle cx="180.0" cy="145.0" r="2" stroke="0" fill="rgb(0, 0, 0)" opacity="1" /><circle cx="205.0" cy="135.0" r="2" stroke="0" fill="rgb(0, 0, 0)" opacity="1" /><circle cx="480.0" cy="475.0" r="2" stroke="0" fill="rgb(0, 0, 0)" opacity="1" /><circle cx="60.0" cy="135.0" r="2" stroke="0" fill="rgb(0, 0, 0)" opacity="1" /><circle cx="165.0" cy="225.0" r="2" stroke="0" fill="rgb(0, 0, 0)" opacity="1" /><circle cx="115.0" cy="110.0" r="2" stroke="0" fill="rgb(0, 0, 0)" opacity="1" /><circle cx="155.0" cy="185.0" r="2" stroke="0" fill="rgb(0, 0, 0)" opacity="1" /><circle cx="195.0" cy="440.0" r="2" stroke="0" fill="rgb(0, 0, 0)" opacity="1" /><circle cx="55.0" cy="175.0" r="2" stroke="0" fill="rgb(0, 0, 0)" opacity="1" /><circle cx="345.0" cy="120.0" r="2" stroke="0" fill="rgb(0, 0, 0)" opacity="1" /><circle cx="325.0" cy="200.0" r="2" stroke="0" fill="rgb(0, 0, 0)" opacity="1" /><circle cx="480.0" cy="160.0" r="2" stroke="0" fill="rgb(0, 0, 0)" opacity="1" /><circle cx="380.0" cy="365.0" r="2" stroke="0" fill="rgb(0, 0, 0)" opacity="1" /><circle cx="135.0" cy="495.0" r="2" stroke="0" fill="rgb(0, 0, 0)" opacity="1" /><circle cx="290.0" cy="230.0" r="2" stroke="0" fill="rgb(0, 0, 0)" opacity="1" /><circle cx="135.0" cy="265.0" r="2" stroke="0" fill="rgb(0, 0, 0)" opacity="1" /><circle cx="180.0" cy="35.0" r="2" stroke="0" fill="rgb(0, 0, 0)" opacity="1" /><circle cx="445.0" cy="340.0" r="2" stroke="0" fill="rgb(0, 0, 0)" opacity="1" /><circle cx="115.0" cy="495.0" r="2" stroke="0" fill="rgb(0, 0, 0)" opacity="1" /><circle cx="135.0" cy="410.0" r="2" stroke="0" fill="rgb(0, 0, 0)" opacity="1" /><circle cx="95.0" cy="345.0" r="2" stroke="0" fill="rgb(0, 0, 0)" opacity="1" /><circle cx="465.0" cy="5.0" r="2" stroke="0" fill="rgb(0, 0, 0)" opacity="1" /><circle cx="240.0" cy="105.0" r="2" stroke="0" fill="rgb(0, 0, 0)" opacity="1" /><circle cx="280.0" cy="330.0" r="2" stroke="0" fill="rgb(0, 0, 0)" opacity="1" /><circle cx="200.0" cy="430.0" r="2" stroke="0" fill="rgb(0, 0, 0)" opacity="1" /><circle cx="115.0" cy="455.0" r="2" stroke="0" fill="rgb(0, 0, 0)" opacity="1" /><circle cx="110.0" cy="50.0" r="2" stroke="0" fill="rgb(0, 0, 0)" opacity="1" /><circle cx="150.0" cy="380.0" r="2" stroke="0" fill="rgb(0, 0, 0)" opacity="1" /><circle cx="270.0" cy="10.0" r="2" stroke="0" fill="rgb(0, 0, 0)" opacity="1" /><circle cx="140.0" cy="245.0" r="2" stroke="0" fill="rgb(0, 0, 0)" opacity="1" /><circle cx="130.0" cy="165.0" r="2" stroke="0" fill="rgb(0, 0, 0)" opacity="1" /><circle cx="160.0" cy="260.0" r="2" stroke="0" fill="rgb(0, 0, 0)" opacity="1" /><circle cx="190.0" cy="300.0" r="2" stroke="0" fill="rgb(0, 0, 0)" opacity="1" /><circle cx="265.0" cy="275.0" r="2" stroke="0" fill="rgb(0, 0, 0)" opacity="1" /><circle cx="290.0" cy="300.0" r="2" stroke="0" fill="rgb(0, 0, 0)" opacity="1" /><circle cx="215.0" cy="5.0" r="2" stroke="0" fill="rgb(0, 0, 0)" opacity="1" /><circle cx="460.0" cy="390.0" r="2" stroke="0" fill="rgb(0, 0, 0)" opacity="1" /><circle cx="305.0" cy="390.0" r="2" stroke="0" fill="rgb(0, 0, 0)" opacity="1" /><circle cx="260.0" cy="395.0" r="2" stroke="0" fill="rgb(0, 0, 0)" opacity="1" /><circle cx="340.0" cy="210.0" r="2" stroke="0" fill="rgb(0, 0, 0)" opacity="1" /><circle cx="415.0" cy="90.0" r="2" stroke="0" fill="rgb(0, 0, 0)" opacity="1" /><circle cx="405.0" cy="30.0" r="2" stroke="0" fill="rgb(0, 0, 0)" opacity="1" /><circle cx="140.0" cy="55.0" r="2" stroke="0" fill="rgb(0, 0, 0)" opacity="1" /><circle cx="220.0" cy="160.0" r="2" stroke="0" fill="rgb(0, 0, 0)" opacity="1" /><circle cx="45.0" cy="10.0" r="2" stroke="0" fill="rgb(0, 0, 0)" opacity="1" /><circle cx="90.0" cy="420.0" r="2" stroke="0" fill="rgb(0, 0, 0)" opacity="1" /><circle cx="245.0" cy="170.0" r="2" stroke="0" fill="rgb(0, 0, 0)" opacity="1" /><circle cx="240.0" cy="45.0" r="2" stroke="0" fill="rgb(0, 0, 0)" opacity="1" /><circle cx="30.0" cy="445.0" r="2" stroke="0" fill="rgb(0, 0, 0)" opacity="1" /><circle cx="290.0" cy="245.0" r="2" stroke="0" fill="rgb(0, 0, 0)" opacity="1" /><circle cx="455.0" cy="25.0" r="2" stroke="0" fill="rgb(0, 0, 0)" opacity="1" /><circle cx="190.0" cy="60.0" r="2" stroke="0" fill="rgb(0, 0, 0)" opacity="1" /><circle cx="60.0" cy="115.0" r="2" stroke="0" fill="rgb(0, 0, 0)" opacity="1" /><circle cx="45.0" cy="190.0" r="2" stroke="0" fill="rgb(0, 0, 0)" opacity="1" /><circle cx="165.0" cy="420.0" r="2" stroke="0" fill="rgb(0, 0, 0)" opacity="1" /><circle cx="230.0" cy="430.0" r="2" stroke="0" fill="rgb(0, 0, 0)" opacity="1" /><circle cx="300.0" cy="315.0" r="2" stroke="0" fill="rgb(0, 0, 0)" opacity="1" /><circle cx="240.0" cy="155.0" r="2" stroke="0" fill="rgb(0, 0, 0)" opacity="1" /><circle cx="55.0" cy="200.0" r="2" stroke="0" fill="rgb(0, 0, 0)" opacity="1" /><circle cx="185.0" cy="165.0" r="2" stroke="0" fill="rgb(0, 0, 0)" opacity="1" /><circle cx="470.0" cy="215.0" r="2" stroke="0" fill="rgb(0, 0, 0)" opacity="1" /><circle cx="480.0" cy="45.0" r="2" stroke="0" fill="rgb(0, 0, 0)" opacity="1" /><circle cx="95.0" cy="110.0" r="2" stroke="0" fill="rgb(0, 0, 0)" opacity="1" /><circle cx="485.0" cy="215.0" r="2" stroke="0" fill="rgb(0, 0, 0)" opacity="1" /><circle cx="130.0" cy="65.0" r="2" stroke="0" fill="rgb(0, 0, 0)" opacity="1" /><circle cx="75.0" cy="60.0" r="2" stroke="0" fill="rgb(0, 0, 0)" opacity="1" /><circle cx="280.0" cy="150.0" r="2" stroke="0" fill="rgb(0, 0, 0)" opacity="1" /><circle cx="450.0" cy="275.0" r="2" stroke="0" fill="rgb(0, 0, 0)" opacity="1" /><circle cx="130.0" cy="430.0" r="2" stroke="0" fill="rgb(0, 0, 0)" opacity="1" /><circle cx="80.0" cy="275.0" r="2" stroke="0" fill="rgb(0, 0, 0)" opacity="1" /><circle cx="55.0" cy="280.0" r="2" stroke="0" fill="rgb(0, 0, 0)" opacity="1" /><circle cx="460.0" cy="220.0" r="2" stroke="0" fill="rgb(0, 0, 0)" opacity="1" /><circle cx="80.0" cy="175.0" r="2" stroke="0" fill="rgb(0, 0, 0)" opacity="1" /><circle cx="460.0" cy="90.0" r="2" stroke="0" fill="rgb(0, 0, 0)" opacity="1" /><circle cx="235.0" cy="110.0" r="2" stroke="0" fill="rgb(0, 0, 0)" opacity="1" /><circle cx="395.0" cy="490.0" r="2" stroke="0" fill="rgb(0, 0, 0)" opacity="1" /><circle cx="290.0" cy="275.0" r="2" stroke="0" fill="rgb(0, 0, 0)" opacity="1" /><circle cx="125.0" cy="345.0" r="2" stroke="0" fill="rgb(0, 0, 0)" opacity="1" /><circle cx="105.0" cy="115.0" r="2" stroke="0" fill="rgb(0, 0, 0)" opacity="1" /><circle cx="465.0" cy="0.0" r="2" stroke="0" fill="rgb(0, 0, 0)" opacity="1" /><circle cx="280.0" cy="70.0" r="2" stroke="0" fill="rgb(0, 0, 0)" opacity="1" /><circle cx="130.0" cy="365.0" r="2" stroke="0" fill="rgb(0, 0, 0)" opacity="1" /><circle cx="205.0" cy="315.0" r="2" stroke="0" fill="rgb(0, 0, 0)" opacity="1" /><circle cx="235.0" cy="20.0" r="2" stroke="0" fill="rgb(0, 0, 0)" opacity="1" /><circle cx="15.0" cy="355.0" r="2" stroke="0" fill="rgb(0, 0, 0)" opacity="1" /><circle cx="430.0" cy="165.0" r="2" stroke="0" fill="rgb(0, 0, 0)" opacity="1" /><circle cx="235.0" cy="485.0" r="2" stroke="0" fill="rgb(0, 0, 0)" opacity="1" /><circle cx="245.0" cy="405.0" r="2" stroke="0" fill="rgb(0, 0, 0)" opacity="1" /><circle cx="155.0" cy="325.0" r="2" stroke="0" fill="rgb(0, 0, 0)" opacity="1" /><circle cx="225.0" cy="430.0" r="2" stroke="0" fill="rgb(0, 0, 0)" opacity="1" /><circle cx="75.0" cy="35.0" r="2" stroke="0" fill="rgb(0, 0, 0)" opacity="1" /><circle cx="340.0" cy="300.0" r="2" stroke="0" fill="rgb(0, 0, 0)" opacity="1" /><circle cx="405.0" cy="140.0" r="2" stroke="0" fill="rgb(0, 0, 0)" opacity="1" /><circle cx="160.0" cy="280.0" r="2" stroke="0" fill="rgb(0, 0, 0)" opacity="1" /><circle cx="280.0" cy="185.0" r="2" stroke="0" fill="rgb(0, 0, 0)" opacity="1" /><circle cx="95.0" cy="390.0" r="2" stroke="0" fill="rgb(0, 0, 0)" opacity="1" /><circle cx="460.0" cy="10.0" r="2" stroke="0" fill="rgb(0, 0, 0)" opacity="1" /><circle cx="205.0" cy="185.0" r="2" stroke="0" fill="rgb(0, 0, 0)" opacity="1" /><circle cx="290.0" cy="410.0" r="2" stroke="0" fill="rgb(0, 0, 0)" opacity="1" /><circle cx="55.0" cy="220.0" r="2" stroke="0" fill="rgb(0, 0, 0)" opacity="1" /><circle cx="295.0" cy="495.0" r="2" stroke="0" fill="rgb(0, 0, 0)" opacity="1" /><circle cx="220.0" cy="380.0" r="2" stroke="0" fill="rgb(0, 0, 0)" opacity="1" /><circle cx="165.0" cy="155.0" r="2" stroke="0" fill="rgb(0, 0, 0)" opacity="1" /><circle cx="470.0" cy="330.0" r="2" stroke="0" fill="rgb(0, 0, 0)" opacity="1" /><circle cx="405.0" cy="155.0" r="2" stroke="0" fill="rgb(0, 0, 0)" opacity="1" /><circle cx="130.0" cy="260.0" r="2" stroke="0" fill="rgb(0, 0, 0)" opacity="1" /><circle cx="65.0" cy="495.0" r="2" stroke="0" fill="rgb(0, 0, 0)" opacity="1" /><circle cx="310.0" cy="260.0" r="2" stroke="0" fill="rgb(0, 0, 0)" opacity="1" /><circle cx="420.0" cy="5.0" r="2" stroke="0" fill="rgb(0, 0, 0)" opacity="1" /><circle cx="75.0" cy="155.0" r="2" stroke="0" fill="rgb(0, 0, 0)" opacity="1" /><circle cx="485.0" cy="235.0" r="2" stroke="0" fill="rgb(0, 0, 0)" opacity="1" /><circle cx="0.0" cy="80.0" r="2" stroke="0" fill="rgb(0, 0, 0)" opacity="1" /><circle cx="335.0" cy="460.0" r="2" stroke="0" fill="rgb(0, 0, 0)" opacity="1" /><circle cx="280.0" cy="370.0" r="2" stroke="0" fill="rgb(0, 0, 0)" opacity="1" /><circle cx="215.0" cy="385.0" r="2" stroke="0" fill="rgb(0, 0, 0)" opacity="1" /><circle cx="30.0" cy="250.0" r="2" stroke="0" fill="rgb(0, 0, 0)" opacity="1" /><circle cx="60.0" cy="165.0" r="2" stroke="0" fill="rgb(0, 0, 0)" opacity="1" /><circle cx="420.0" cy="120.0" r="2" stroke="0" fill="rgb(0, 0, 0)" opacity="1" /><circle cx="295.0" cy="460.0" r="2" stroke="0" fill="rgb(0, 0, 0)" opacity="1" /><circle cx="145.0" cy="155.0" r="2" stroke="0" fill="rgb(0, 0, 0)" opacity="1" /><circle cx="260.0" cy="310.0" r="2" stroke="0" fill="rgb(0, 0, 0)" opacity="1" /><circle cx="205.0" cy="330.0" r="2" stroke="0" fill="rgb(0, 0, 0)" opacity="1" /><circle cx="390.0" cy="325.0" r="2" stroke="0" fill="rgb(0, 0, 0)" opacity="1" /><circle cx="305.0" cy="115.0" r="2" stroke="0" fill="rgb(0, 0, 0)" opacity="1" /><circle cx="280.0" cy="220.0" r="2" stroke="0" fill="rgb(0, 0, 0)" opacity="1" /><circle cx="60.0" cy="50.0" r="2" stroke="0" fill="rgb(0, 0, 0)" opacity="1" /><circle cx="170.0" cy="390.0" r="2" stroke="0" fill="rgb(0, 0, 0)" opacity="1" /><circle cx="335.0" cy="20.0" r="2" stroke="0" fill="rgb(0, 0, 0)" opacity="1" /><circle cx="480.0" cy="5.0" r="2" stroke="0" fill="rgb(0, 0, 0)" opacity="1" /><circle cx="50.0" cy="350.0" r="2" stroke="0" fill="rgb(0, 0, 0)" opacity="1" /><circle cx="260.0" cy="105.0" r="2" stroke="0" fill="rgb(0, 0, 0)" opacity="1" /><circle cx="35.0" cy="225.0" r="2" stroke="0" fill="rgb(0, 0, 0)" opacity="1" /><circle cx="145.0" cy="105.0" r="2" stroke="0" fill="rgb(0, 0, 0)" opacity="1" /><circle cx="110.0" cy="240.0" r="2" stroke="0" fill="rgb(0, 0, 0)" opacity="1" /><circle cx="250.0" cy="235.0" r="2" stroke="0" fill="rgb(0, 0, 0)" opacity="1" /><circle cx="185.0" cy="290.0" r="2" stroke="0" fill="rgb(0, 0, 0)" opacity="1" /><circle cx="125.0" cy="170.0" r="2" stroke="0" fill="rgb(0, 0, 0)" opacity="1" /><circle cx="400.0" cy="140.0" r="2" stroke="0" fill="rgb(0, 0, 0)" opacity="1" /><circle cx="375.0" cy="190.0" r="2" stroke="0" fill="rgb(0, 0, 0)" opacity="1" /><circle cx="240.0" cy="245.0" r="2" stroke="0" fill="rgb(0, 0, 0)" opacity="1" /><circle cx="65.0" cy="5.0" r="2" stroke="0" fill="rgb(0, 0, 0)" opacity="1" /><circle cx="250.0" cy="470.0" r="2" stroke="0" fill="rgb(0, 0, 0)" opacity="1" /><circle cx="10.0" cy="415.0" r="2" stroke="0" fill="rgb(0, 0, 0)" opacity="1" /><circle cx="210.0" cy="20.0" r="2" stroke="0" fill="rgb(0, 0, 0)" opacity="1" /><circle cx="10.0" cy="455.0" r="2" stroke="0" fill="rgb(0, 0, 0)" opacity="1" /><circle cx="50.0" cy="225.0" r="2" stroke="0" fill="rgb(0, 0, 0)" opacity="1" /><circle cx="175.0" cy="485.0" r="2" stroke="0" fill="rgb(0, 0, 0)" opacity="1" /><circle cx="80.0" cy="465.0" r="2" stroke="0" fill="rgb(0, 0, 0)" opacity="1" /><circle cx="190.0" cy="425.0" r="2" stroke="0" fill="rgb(0, 0, 0)" opacity="1" /><circle cx="110.0" cy="390.0" r="2" stroke="0" fill="rgb(0, 0, 0)" opacity="1" /><circle cx="185.0" cy="320.0" r="2" stroke="0" fill="rgb(0, 0, 0)" opacity="1" /><circle cx="125.0" cy="295.0" r="2" stroke="0" fill="rgb(0, 0, 0)" opacity="1" /><circle cx="300.0" cy="450.0" r="2" stroke="0" fill="rgb(0, 0, 0)" opacity="1" /><circle cx="155.0" cy="165.0" r="2" stroke="0" fill="rgb(0, 0, 0)" opacity="1" /><circle cx="305.0" cy="80.0" r="2" stroke="0" fill="rgb(0, 0, 0)" opacity="1" /><circle cx="315.0" cy="80.0" r="2" stroke="0" fill="rgb(255, 0, 0)" opacity="1" /><circle cx="315.0" cy="80.0" r="15.0" stroke="0" fill="rgb(255, 0, 0)" opacity="0.2" /><circle cx="315.0" cy="80.0" r="70.0" stroke="0" fill="rgb(0, 255, 0)" opacity="0.2" /><circle cx="20.0" cy="420.0" r="2" stroke="0" fill="rgb(255, 0, 0)" opacity="1" /><circle cx="20.0" cy="420.0" r="15.0" stroke="0" fill="rgb(255, 0, 0)" opacity="0.2" /><circle cx="20.0" cy="420.0" r="70.0" stroke="0" fill="rgb(0, 255, 0)" opacity="0.2" /><circle cx="135.0" cy="250.0" r="2" stroke="0" fill="rgb(255, 0, 0)" opacity="1" /><circle cx="135.0" cy="250.0" r="15.0" stroke="0" fill="rgb(255, 0, 0)" opacity="0.2" /><circle cx="135.0" cy="250.0" r="70.0" stroke="0" fill="rgb(0, 255, 0)" opacity="0.2" /><circle cx="430.0" cy="340.0" r="2" stroke="0" fill="rgb(255, 0, 0)" opacity="1" /><circle cx="430.0" cy="340.0" r="15.0" stroke="0" fill="rgb(255, 0, 0)" opacity="0.2" /><circle cx="430.0" cy="340.0" r="70.0" stroke="0" fill="rgb(0, 255, 0)" opacity="0.2" /><circle cx="40.0" cy="220.0" r="2" stroke="0" fill="rgb(255, 0, 0)" opacity="1" /><circle cx="40.0" cy="220.0" r="15.0" stroke="0" fill="rgb(255, 0, 0)" opacity="0.2" /><circle cx="40.0" cy="220.0" r="70.0" stroke="0" fill="rgb(0, 255, 0)" opacity="0.2" /><circle cx="270.0" cy="300.0" r="2" stroke="0" fill="rgb(255, 0, 0)" opacity="1" /><circle cx="270.0" cy="300.0" r="15.0" stroke="0" fill="rgb(255, 0, 0)" opacity="0.2" /><circle cx="270.0" cy="300.0" r="70.0" stroke="0" fill="rgb(0, 255, 0)" opacity="0.2" /><circle cx="490.0" cy="265.0" r="2" stroke="0" fill="rgb(255, 0, 0)" opacity="1" /><circle cx="490.0" cy="265.0" r="15.0" stroke="0" fill="rgb(255, 0, 0)" opacity="0.2" /><circle cx="490.0" cy="265.0" r="70.0" stroke="0" fill="rgb(0, 255, 0)" opacity="0.2" /><circle cx="200.0" cy="195.0" r="2" stroke="0" fill="rgb(255, 0, 0)" opacity="1" /><circle cx="200.0" cy="195.0" r="15.0" stroke="0" fill="rgb(255, 0, 0)" opacity="0.2" /><circle cx="200.0" cy="195.0" r="70.0" stroke="0" fill="rgb(0, 255, 0)" opacity="0.2" /><circle cx="295.0" cy="495.0" r="2" stroke="0" fill="rgb(255, 0, 0)" opacity="1" /><circle cx="295.0" cy="495.0" r="15.0" stroke="0" fill="rgb(255, 0, 0)" opacity="0.2" /><circle cx="295.0" cy="495.0" r="70.0" stroke="0" fill="rgb(0, 255, 0)" opacity="0.2" /><circle cx="305.0" cy="450.0" r="2" stroke="0" fill="rgb(255, 0, 0)" opacity="1" /><circle cx="305.0" cy="450.0" r="15.0" stroke="0" fill="rgb(255, 0, 0)" opacity="0.2" /><circle cx="305.0" cy="450.0" r="70.0" stroke="0" fill="rgb(0, 255, 0)" opacity="0.2" /><circle cx="265.0" cy="370.0" r="2" stroke="0" fill="rgb(255, 0, 0)" opacity="1" /><circle cx="265.0" cy="370.0" r="15.0" stroke="0" fill="rgb(255, 0, 0)" opacity="0.2" /><circle cx="265.0" cy="370.0" r="70.0" stroke="0" fill="rgb(0, 255, 0)" opacity="0.2" /><circle cx="315.0" cy="380.0" r="2" stroke="0" fill="rgb(255, 0, 0)" opacity="1" /><circle cx="315.0" cy="380.0" r="15.0" stroke="0" fill="rgb(255, 0, 0)" opacity="0.2" /><circle cx="315.0" cy="380.0" r="70.0" stroke="0" fill="rgb(0, 255, 0)" opacity="0.2" /><circle cx="300.0" cy="105.0" r="2" stroke="0" fill="rgb(255, 0, 0)" opacity="1" /><circle cx="300.0" cy="105.0" r="15.0" stroke="0" fill="rgb(255, 0, 0)" opacity="0.2" /><circle cx="300.0" cy="105.0" r="70.0" stroke="0" fill="rgb(0, 255, 0)" opacity="0.2" /><circle cx="70.0" cy="315.0" r="2" stroke="0" fill="rgb(255, 0, 0)" opacity="1" /><circle cx="70.0" cy="315.0" r="15.0" stroke="0" fill="rgb(255, 0, 0)" opacity="0.2" /><circle cx="70.0" cy="315.0" r="70.0" stroke="0" fill="rgb(0, 255, 0)" opacity="0.2" /><circle cx="475.0" cy="435.0" r="2" stroke="0" fill="rgb(255, 0, 0)" opacity="1" /><circle cx="475.0" cy="435.0" r="15.0" stroke="0" fill="rgb(255, 0, 0)" opacity="0.2" /><circle cx="475.0" cy="435.0" r="70.0" stroke="0" fill="rgb(0, 255, 0)" opacity="0.2" /><circle cx="445.0" cy="415.0" r="2" stroke="0" fill="rgb(255, 0, 0)" opacity="1" /><circle cx="445.0" cy="415.0" r="15.0" stroke="0" fill="rgb(255, 0, 0)" opacity="0.2" /><circle cx="445.0" cy="415.0" r="70.0" stroke="0" fill="rgb(0, 255, 0)" opacity="0.2" /><circle cx="450.0" cy="290.0" r="2" stroke="0" fill="rgb(255, 0, 0)" opacity="1" /><circle cx="450.0" cy="290.0" r="15.0" stroke="0" fill="rgb(255, 0, 0)" opacity="0.2" /><circle cx="450.0" cy="290.0" r="70.0" stroke="0" fill="rgb(0, 255, 0)" opacity="0.2" /><circle cx="495.0" cy="305.0" r="2" stroke="0" fill="rgb(255, 0, 0)" opacity="1" /><circle cx="495.0" cy="305.0" r="15.0" stroke="0" fill="rgb(255, 0, 0)" opacity="0.2" /><circle cx="495.0" cy="305.0" r="70.0" stroke="0" fill="rgb(0, 255, 0)" opacity="0.2" /><circle cx="245.0" cy="395.0" r="2" stroke="0" fill="rgb(255, 0, 0)" opacity="1" /><circle cx="245.0" cy="395.0" r="15.0" stroke="0" fill="rgb(255, 0, 0)" opacity="0.2" /><circle cx="245.0" cy="395.0" r="70.0" stroke="0" fill="rgb(0, 255, 0)" opacity="0.2" /><circle cx="30.0" cy="80.0" r="2" stroke="0" fill="rgb(255, 0, 0)" opacity="1" /><circle cx="30.0" cy="80.0" r="15.0" stroke="0" fill="rgb(255, 0, 0)" opacity="0.2" /><circle cx="30.0" cy="80.0" r="70.0" stroke="0" fill="rgb(0, 255, 0)" opacity="0.2" /><circle cx="385.0" cy="375.0" r="2" stroke="0" fill="rgb(255, 0, 0)" opacity="1" /><circle cx="385.0" cy="375.0" r="15.0" stroke="0" fill="rgb(255, 0, 0)" opacity="0.2" /><circle cx="385.0" cy="375.0" r="70.0" stroke="0" fill="rgb(0, 255, 0)" opacity="0.2" /><circle cx="305.0" cy="175.0" r="2" stroke="0" fill="rgb(255, 0, 0)" opacity="1" /><circle cx="305.0" cy="175.0" r="15.0" stroke="0" fill="rgb(255, 0, 0)" opacity="0.2" /><circle cx="305.0" cy="175.0" r="70.0" stroke="0" fill="rgb(0, 255, 0)" opacity="0.2" /><circle cx="145.0" cy="120.0" r="2" stroke="0" fill="rgb(255, 0, 0)" opacity="1" /><circle cx="145.0" cy="120.0" r="15.0" stroke="0" fill="rgb(255, 0, 0)" opacity="0.2" /><circle cx="145.0" cy="120.0" r="70.0" stroke="0" fill="rgb(0, 255, 0)" opacity="0.2" /><circle cx="20.0" cy="0.0" r="2" stroke="0" fill="rgb(255, 0, 0)" opacity="1" /><circle cx="20.0" cy="0.0" r="15.0" stroke="0" fill="rgb(255, 0, 0)" opacity="0.2" /><circle cx="20.0" cy="0.0" r="70.0" stroke="0" fill="rgb(0, 255, 0)" opacity="0.2" /><circle cx="335.0" cy="470.0" r="2" stroke="0" fill="rgb(255, 0, 0)" opacity="1" /><circle cx="335.0" cy="470.0" r="15.0" stroke="0" fill="rgb(255, 0, 0)" opacity="0.2" /><circle cx="335.0" cy="470.0" r="70.0" stroke="0" fill="rgb(0, 255, 0)" opacity="0.2" /><circle cx="175.0" cy="400.0" r="2" stroke="0" fill="rgb(255, 0, 0)" opacity="1" /><circle cx="175.0" cy="400.0" r="15.0" stroke="0" fill="rgb(255, 0, 0)" opacity="0.2" /><circle cx="175.0" cy="400.0" r="70.0" stroke="0" fill="rgb(0, 255, 0)" opacity="0.2" /><circle cx="410.0" cy="70.0" r="2" stroke="0" fill="rgb(255, 0, 0)" opacity="1" /><circle cx="410.0" cy="70.0" r="15.0" stroke="0" fill="rgb(255, 0, 0)" opacity="0.2" /><circle cx="410.0" cy="70.0" r="70.0" stroke="0" fill="rgb(0, 255, 0)" opacity="0.2" /><circle cx="195.0" cy="450.0" r="2" stroke="0" fill="rgb(255, 0, 0)" opacity="1" /><circle cx="195.0" cy="450.0" r="15.0" stroke="0" fill="rgb(255, 0, 0)" opacity="0.2" /><circle cx="195.0" cy="450.0" r="70.0" stroke="0" fill="rgb(0, 255, 0)" opacity="0.2" /><circle cx="130.0" cy="420.0" r="2" stroke="0" fill="rgb(255, 0, 0)" opacity="1" /><circle cx="130.0" cy="420.0" r="15.0" stroke="0" fill="rgb(255, 0, 0)" opacity="0.2" /><circle cx="130.0" cy="420.0" r="70.0" stroke="0" fill="rgb(0, 255, 0)" opacity="0.2" /><circle cx="125.0" cy="460.0" r="2" stroke="0" fill="rgb(255, 0, 0)" opacity="1" /><circle cx="125.0" cy="460.0" r="15.0" stroke="0" fill="rgb(255, 0, 0)" opacity="0.2" /><circle cx="125.0" cy="460.0" r="70.0" stroke="0" fill="rgb(0, 255, 0)" opacity="0.2" /><circle cx="475.0" cy="400.0" r="2" stroke="0" fill="rgb(255, 0, 0)" opacity="1" /><circle cx="475.0" cy="400.0" r="15.0" stroke="0" fill="rgb(255, 0, 0)" opacity="0.2" /><circle cx="475.0" cy="400.0" r="70.0" stroke="0" fill="rgb(0, 255, 0)" opacity="0.2" /><circle cx="330.0" cy="205.0" r="2" stroke="0" fill="rgb(255, 0, 0)" opacity="1" /><circle cx="330.0" cy="205.0" r="15.0" stroke="0" fill="rgb(255, 0, 0)" opacity="0.2" /><circle cx="330.0" cy="205.0" r="70.0" stroke="0" fill="rgb(0, 255, 0)" opacity="0.2" /><circle cx="55.0" cy="190.0" r="2" stroke="0" fill="rgb(255, 0, 0)" opacity="1" /><circle cx="55.0" cy="190.0" r="15.0" stroke="0" fill="rgb(255, 0, 0)" opacity="0.2" /><circle cx="55.0" cy="190.0" r="70.0" stroke="0" fill="rgb(0, 255, 0)" opacity="0.2" /><circle cx="415.0" cy="165.0" r="2" stroke="0" fill="rgb(255, 0, 0)" opacity="1" /><circle cx="415.0" cy="165.0" r="15.0" stroke="0" fill="rgb(255, 0, 0)" opacity="0.2" /><circle cx="415.0" cy="165.0" r="70.0" stroke="0" fill="rgb(0, 255, 0)" opacity="0.2" /><circle cx="45.0" cy="50.0" r="2" stroke="0" fill="rgb(255, 0, 0)" opacity="1" /><circle cx="45.0" cy="50.0" r="15.0" stroke="0" fill="rgb(255, 0, 0)" opacity="0.2" /><circle cx="45.0" cy="50.0" r="70.0" stroke="0" fill="rgb(0, 255, 0)" opacity="0.2" /><circle cx="375.0" cy="455.0" r="2" stroke="0" fill="rgb(255, 0, 0)" opacity="1" /><circle cx="375.0" cy="455.0" r="15.0" stroke="0" fill="rgb(255, 0, 0)" opacity="0.2" /><circle cx="375.0" cy="455.0" r="70.0" stroke="0" fill="rgb(0, 255, 0)" opacity="0.2" /><circle cx="200.0" cy="290.0" r="2" stroke="0" fill="rgb(255, 0, 0)" opacity="1" /><circle cx="200.0" cy="290.0" r="15.0" stroke="0" fill="rgb(255, 0, 0)" opacity="0.2" /><circle cx="200.0" cy="290.0" r="70.0" stroke="0" fill="rgb(0, 255, 0)" opacity="0.2" /><circle cx="445.0" cy="90.0" r="2" stroke="0" fill="rgb(255, 0, 0)" opacity="1" /><circle cx="445.0" cy="90.0" r="15.0" stroke="0" fill="rgb(255, 0, 0)" opacity="0.2" /><circle cx="445.0" cy="90.0" r="70.0" stroke="0" fill="rgb(0, 255, 0)" opacity="0.2" /><circle cx="105.0" cy="120.0" r="2" stroke="0" fill="rgb(255, 0, 0)" opacity="1" /><circle cx="105.0" cy="120.0" r="15.0" stroke="0" fill="rgb(255, 0, 0)" opacity="0.2" /><circle cx="105.0" cy="120.0" r="70.0" stroke="0" fill="rgb(0, 255, 0)" opacity="0.2" /><circle cx="5.0" cy="210.0" r="2" stroke="0" fill="rgb(255, 0, 0)" opacity="1" /><circle cx="5.0" cy="210.0" r="15.0" stroke="0" fill="rgb(255, 0, 0)" opacity="0.2" /><circle cx="5.0" cy="210.0" r="70.0" stroke="0" fill="rgb(0, 255, 0)" opacity="0.2" /><circle cx="180.0" cy="155.0" r="2" stroke="0" fill="rgb(255, 0, 0)" opacity="1" /><circle cx="180.0" cy="155.0" r="15.0" stroke="0" fill="rgb(255, 0, 0)" opacity="0.2" /><circle cx="180.0" cy="155.0" r="70.0" stroke="0" fill="rgb(0, 255, 0)" opacity="0.2" /><circle cx="195.0" cy="145.0" r="2" stroke="0" fill="rgb(255, 0, 0)" opacity="1" /><circle cx="195.0" cy="145.0" r="15.0" stroke="0" fill="rgb(255, 0, 0)" opacity="0.2" /><circle cx="195.0" cy="145.0" r="70.0" stroke="0" fill="rgb(0, 255, 0)" opacity="0.2" /><circle cx="495.0" cy="475.0" r="2" stroke="0" fill="rgb(255, 0, 0)" opacity="1" /><circle cx="495.0" cy="475.0" r="15.0" stroke="0" fill="rgb(255, 0, 0)" opacity="0.2" /><circle cx="495.0" cy="475.0" r="70.0" stroke="0" fill="rgb(0, 255, 0)" opacity="0.2" /><circle cx="65.0" cy="145.0" r="2" stroke="0" fill="rgb(255, 0, 0)" opacity="1" /><circle cx="65.0" cy="145.0" r="15.0" stroke="0" fill="rgb(255, 0, 0)" opacity="0.2" /><circle cx="65.0" cy="145.0" r="70.0" stroke="0" fill="rgb(0, 255, 0)" opacity="0.2" /><circle cx="175.0" cy="225.0" r="2" stroke="0" fill="rgb(255, 0, 0)" opacity="1" /><circle cx="175.0" cy="225.0" r="15.0" stroke="0" fill="rgb(255, 0, 0)" opacity="0.2" /><circle cx="175.0" cy="225.0" r="70.0" stroke="0" fill="rgb(0, 255, 0)" opacity="0.2" /><circle cx="160.0" cy="175.0" r="2" stroke="0" fill="rgb(255, 0, 0)" opacity="1" /><circle cx="160.0" cy="175.0" r="15.0" stroke="0" fill="rgb(255, 0, 0)" opacity="0.2" /><circle cx="160.0" cy="175.0" r="70.0" stroke="0" fill="rgb(0, 255, 0)" opacity="0.2" /><circle cx="340.0" cy="110.0" r="2" stroke="0" fill="rgb(255, 0, 0)" opacity="1" /><circle cx="340.0" cy="110.0" r="15.0" stroke="0" fill="rgb(255, 0, 0)" opacity="0.2" /><circle cx="340.0" cy="110.0" r="70.0" stroke="0" fill="rgb(0, 255, 0)" opacity="0.2" /><circle cx="485.0" cy="155.0" r="2" stroke="0" fill="rgb(255, 0, 0)" opacity="1" /><circle cx="485.0" cy="155.0" r="15.0" stroke="0" fill="rgb(255, 0, 0)" opacity="0.2" /><circle cx="485.0" cy="155.0" r="70.0" stroke="0" fill="rgb(0, 255, 0)" opacity="0.2" /><circle cx="125.0" cy="495.0" r="2" stroke="0" fill="rgb(255, 0, 0)" opacity="1" /><circle cx="125.0" cy="495.0" r="15.0" stroke="0" fill="rgb(255, 0, 0)" opacity="0.2" /><circle cx="125.0" cy="495.0" r="70.0" stroke="0" fill="rgb(0, 255, 0)" opacity="0.2" /><circle cx="290.0" cy="230.0" r="2" stroke="0" fill="rgb(255, 0, 0)" opacity="1" /><circle cx="290.0" cy="230.0" r="15.0" stroke="0" fill="rgb(255, 0, 0)" opacity="0.2" /><circle cx="290.0" cy="230.0" r="70.0" stroke="0" fill="rgb(0, 255, 0)" opacity="0.2" /><circle cx="190.0" cy="45.0" r="2" stroke="0" fill="rgb(255, 0, 0)" opacity="1" /><circle cx="190.0" cy="45.0" r="15.0" stroke="0" fill="rgb(255, 0, 0)" opacity="0.2" /><circle cx="190.0" cy="45.0" r="70.0" stroke="0" fill="rgb(0, 255, 0)" opacity="0.2" /><circle cx="110.0" cy="345.0" r="2" stroke="0" fill="rgb(255, 0, 0)" opacity="1" /><circle cx="110.0" cy="345.0" r="15.0" stroke="0" fill="rgb(255, 0, 0)" opacity="0.2" /><circle cx="110.0" cy="345.0" r="70.0" stroke="0" fill="rgb(0, 255, 0)" opacity="0.2" /><circle cx="465.0" cy="15.0" r="2" stroke="0" fill="rgb(255, 0, 0)" opacity="1" /><circle cx="465.0" cy="15.0" r="15.0" stroke="0" fill="rgb(255, 0, 0)" opacity="0.2" /><circle cx="465.0" cy="15.0" r="70.0" stroke="0" fill="rgb(0, 255, 0)" opacity="0.2" /><circle cx="250.0" cy="110.0" r="2" stroke="0" fill="rgb(255, 0, 0)" opacity="1" /><circle cx="250.0" cy="110.0" r="15.0" stroke="0" fill="rgb(255, 0, 0)" opacity="0.2" /><circle cx="250.0" cy="110.0" r="70.0" stroke="0" fill="rgb(0, 255, 0)" opacity="0.2" /><circle cx="290.0" cy="325.0" r="2" stroke="0" fill="rgb(255, 0, 0)" opacity="1" /><circle cx="290.0" cy="325.0" r="15.0" stroke="0" fill="rgb(255, 0, 0)" opacity="0.2" /><circle cx="290.0" cy="325.0" r="70.0" stroke="0" fill="rgb(0, 255, 0)" opacity="0.2" /><circle cx="215.0" cy="430.0" r="2" stroke="0" fill="rgb(255, 0, 0)" opacity="1" /><circle cx="215.0" cy="430.0" r="15.0" stroke="0" fill="rgb(255, 0, 0)" opacity="0.2" /><circle cx="215.0" cy="430.0" r="70.0" stroke="0" fill="rgb(0, 255, 0)" opacity="0.2" /><circle cx="120.0" cy="55.0" r="2" stroke="0" fill="rgb(255, 0, 0)" opacity="1" /><circle cx="120.0" cy="55.0" r="15.0" stroke="0" fill="rgb(255, 0, 0)" opacity="0.2" /><circle cx="120.0" cy="55.0" r="70.0" stroke="0" fill="rgb(0, 255, 0)" opacity="0.2" /><circle cx="140.0" cy="370.0" r="2" stroke="0" fill="rgb(255, 0, 0)" opacity="1" /><circle cx="140.0" cy="370.0" r="15.0" stroke="0" fill="rgb(255, 0, 0)" opacity="0.2" /><circle cx="140.0" cy="370.0" r="70.0" stroke="0" fill="rgb(0, 255, 0)" opacity="0.2" /><circle cx="280.0" cy="5.0" r="2" stroke="0" fill="rgb(255, 0, 0)" opacity="1" /><circle cx="280.0" cy="5.0" r="15.0" stroke="0" fill="rgb(255, 0, 0)" opacity="0.2" /><circle cx="280.0" cy="5.0" r="70.0" stroke="0" fill="rgb(0, 255, 0)" opacity="0.2" /><circle cx="135.0" cy="165.0" r="2" stroke="0" fill="rgb(255, 0, 0)" opacity="1" /><circle cx="135.0" cy="165.0" r="15.0" stroke="0" fill="rgb(255, 0, 0)" opacity="0.2" /><circle cx="135.0" cy="165.0" r="70.0" stroke="0" fill="rgb(0, 255, 0)" opacity="0.2" /><circle cx="160.0" cy="265.0" r="2" stroke="0" fill="rgb(255, 0, 0)" opacity="1" /><circle cx="160.0" cy="265.0" r="15.0" stroke="0" fill="rgb(255, 0, 0)" opacity="0.2" /><circle cx="160.0" cy="265.0" r="70.0" stroke="0" fill="rgb(0, 255, 0)" opacity="0.2" /><circle cx="275.0" cy="275.0" r="2" stroke="0" fill="rgb(255, 0, 0)" opacity="1" /><circle cx="275.0" cy="275.0" r="15.0" stroke="0" fill="rgb(255, 0, 0)" opacity="0.2" /><circle cx="275.0" cy="275.0" r="70.0" stroke="0" fill="rgb(0, 255, 0)" opacity="0.2" /><circle cx="305.0" cy="300.0" r="2" stroke="0" fill="rgb(255, 0, 0)" opacity="1" /><circle cx="305.0" cy="300.0" r="15.0" stroke="0" fill="rgb(255, 0, 0)" opacity="0.2" /><circle cx="305.0" cy="300.0" r="70.0" stroke="0" fill="rgb(0, 255, 0)" opacity="0.2" /><circle cx="205.0" cy="15.0" r="2" stroke="0" fill="rgb(255, 0, 0)" opacity="1" /><circle cx="205.0" cy="15.0" r="15.0" stroke="0" fill="rgb(255, 0, 0)" opacity="0.2" /><circle cx="205.0" cy="15.0" r="70.0" stroke="0" fill="rgb(0, 255, 0)" opacity="0.2" /><circle cx="470.0" cy="400.0" r="2" stroke="0" fill="rgb(255, 0, 0)" opacity="1" /><circle cx="470.0" cy="400.0" r="15.0" stroke="0" fill="rgb(255, 0, 0)" opacity="0.2" /><circle cx="470.0" cy="400.0" r="70.0" stroke="0" fill="rgb(0, 255, 0)" opacity="0.2" /><circle cx="425.0" cy="95.0" r="2" stroke="0" fill="rgb(255, 0, 0)" opacity="1" /><circle cx="425.0" cy="95.0" r="15.0" stroke="0" fill="rgb(255, 0, 0)" opacity="0.2" /><circle cx="425.0" cy="95.0" r="70.0" stroke="0" fill="rgb(0, 255, 0)" opacity="0.2" /><circle cx="395.0" cy="30.0" r="2" stroke="0" fill="rgb(255, 0, 0)" opacity="1" /><circle cx="395.0" cy="30.0" r="15.0" stroke="0" fill="rgb(255, 0, 0)" opacity="0.2" /><circle cx="395.0" cy="30.0" r="70.0" stroke="0" fill="rgb(0, 255, 0)" opacity="0.2" /><circle cx="130.0" cy="50.0" r="2" stroke="0" fill="rgb(255, 0, 0)" opacity="1" /><circle cx="130.0" cy="50.0" r="15.0" stroke="0" fill="rgb(255, 0, 0)" opacity="0.2" /><circle cx="130.0" cy="50.0" r="70.0" stroke="0" fill="rgb(0, 255, 0)" opacity="0.2" /><circle cx="235.0" cy="160.0" r="2" stroke="0" fill="rgb(255, 0, 0)" opacity="1" /><circle cx="235.0" cy="160.0" r="15.0" stroke="0" fill="rgb(255, 0, 0)" opacity="0.2" /><circle cx="235.0" cy="160.0" r="70.0" stroke="0" fill="rgb(0, 255, 0)" opacity="0.2" /><circle cx="55.0" cy="0.0" r="2" stroke="0" fill="rgb(255, 0, 0)" opacity="1" /><circle cx="55.0" cy="0.0" r="15.0" stroke="0" fill="rgb(255, 0, 0)" opacity="0.2" /><circle cx="55.0" cy="0.0" r="70.0" stroke="0" fill="rgb(0, 255, 0)" opacity="0.2" /><circle cx="95.0" cy="430.0" r="2" stroke="0" fill="rgb(255, 0, 0)" opacity="1" /><circle cx="95.0" cy="430.0" r="15.0" stroke="0" fill="rgb(255, 0, 0)" opacity="0.2" /><circle cx="95.0" cy="430.0" r="70.0" stroke="0" fill="rgb(0, 255, 0)" opacity="0.2" /><circle cx="235.0" cy="35.0" r="2" stroke="0" fill="rgb(255, 0, 0)" opacity="1" /><circle cx="235.0" cy="35.0" r="15.0" stroke="0" fill="rgb(255, 0, 0)" opacity="0.2" /><circle cx="235.0" cy="35.0" r="70.0" stroke="0" fill="rgb(0, 255, 0)" opacity="0.2" /><circle cx="20.0" cy="445.0" r="2" stroke="0" fill="rgb(255, 0, 0)" opacity="1" /><circle cx="20.0" cy="445.0" r="15.0" stroke="0" fill="rgb(255, 0, 0)" opacity="0.2" /><circle cx="20.0" cy="445.0" r="70.0" stroke="0" fill="rgb(0, 255, 0)" opacity="0.2" /><circle cx="60.0" cy="120.0" r="2" stroke="0" fill="rgb(255, 0, 0)" opacity="1" /><circle cx="60.0" cy="120.0" r="15.0" stroke="0" fill="rgb(255, 0, 0)" opacity="0.2" /><circle cx="60.0" cy="120.0" r="70.0" stroke="0" fill="rgb(0, 255, 0)" opacity="0.2" /><circle cx="175.0" cy="425.0" r="2" stroke="0" fill="rgb(255, 0, 0)" opacity="1" /><circle cx="175.0" cy="425.0" r="15.0" stroke="0" fill="rgb(255, 0, 0)" opacity="0.2" /><circle cx="175.0" cy="425.0" r="70.0" stroke="0" fill="rgb(0, 255, 0)" opacity="0.2" /><circle cx="480.0" cy="225.0" r="2" stroke="0" fill="rgb(255, 0, 0)" opacity="1" /><circle cx="480.0" cy="225.0" r="15.0" stroke="0" fill="rgb(255, 0, 0)" opacity="0.2" /><circle cx="480.0" cy="225.0" r="70.0" stroke="0" fill="rgb(0, 255, 0)" opacity="0.2" /><circle cx="490.0" cy="35.0" r="2" stroke="0" fill="rgb(255, 0, 0)" opacity="1" /><circle cx="490.0" cy="35.0" r="15.0" stroke="0" fill="rgb(255, 0, 0)" opacity="0.2" /><circle cx="490.0" cy="35.0" r="70.0" stroke="0" fill="rgb(0, 255, 0)" opacity="0.2" /><circle cx="75.0" cy="50.0" r="2" stroke="0" fill="rgb(255, 0, 0)" opacity="1" /><circle cx="75.0" cy="50.0" r="15.0" stroke="0" fill="rgb(255, 0, 0)" opacity="0.2" /><circle cx="75.0" cy="50.0" r="70.0" stroke="0" fill="rgb(0, 255, 0)" opacity="0.2" /><circle cx="275.0" cy="155.0" r="2" stroke="0" fill="rgb(255, 0, 0)" opacity="1" /><circle cx="275.0" cy="155.0" r="15.0" stroke="0" fill="rgb(255, 0, 0)" opacity="0.2" /><circle cx="275.0" cy="155.0" r="70.0" stroke="0" fill="rgb(0, 255, 0)" opacity="0.2" /><circle cx="65.0" cy="275.0" r="2" stroke="0" fill="rgb(255, 0, 0)" opacity="1" /><circle cx="65.0" cy="275.0" r="15.0" stroke="0" fill="rgb(255, 0, 0)" opacity="0.2" /><circle cx="65.0" cy="275.0" r="70.0" stroke="0" fill="rgb(0, 255, 0)" opacity="0.2" /><circle cx="455.0" cy="220.0" r="2" stroke="0" fill="rgb(255, 0, 0)" opacity="1" /><circle cx="455.0" cy="220.0" r="15.0" stroke="0" fill="rgb(255, 0, 0)" opacity="0.2" /><circle cx="455.0" cy="220.0" r="70.0" stroke="0" fill="rgb(0, 255, 0)" opacity="0.2" /><circle cx="70.0" cy="175.0" r="2" stroke="0" fill="rgb(255, 0, 0)" opacity="1" /><circle cx="70.0" cy="175.0" r="15.0" stroke="0" fill="rgb(255, 0, 0)" opacity="0.2" /><circle cx="70.0" cy="175.0" r="70.0" stroke="0" fill="rgb(0, 255, 0)" opacity="0.2" /><circle cx="410.0" cy="490.0" r="2" stroke="0" fill="rgb(255, 0, 0)" opacity="1" /><circle cx="410.0" cy="490.0" r="15.0" stroke="0" fill="rgb(255, 0, 0)" opacity="0.2" /><circle cx="410.0" cy="490.0" r="70.0" stroke="0" fill="rgb(0, 255, 0)" opacity="0.2" /><circle cx="275.0" cy="80.0" r="2" stroke="0" fill="rgb(255, 0, 0)" opacity="1" /><circle cx="275.0" cy="80.0" r="15.0" stroke="0" fill="rgb(255, 0, 0)" opacity="0.2" /><circle cx="275.0" cy="80.0" r="70.0" stroke="0" fill="rgb(0, 255, 0)" opacity="0.2" /><circle cx="195.0" cy="325.0" r="2" stroke="0" fill="rgb(255, 0, 0)" opacity="1" /><circle cx="195.0" cy="325.0" r="15.0" stroke="0" fill="rgb(255, 0, 0)" opacity="0.2" /><circle cx="195.0" cy="325.0" r="70.0" stroke="0" fill="rgb(0, 255, 0)" opacity="0.2" /><circle cx="5.0" cy="350.0" r="2" stroke="0" fill="rgb(255, 0, 0)" opacity="1" /><circle cx="5.0" cy="350.0" r="15.0" stroke="0" fill="rgb(255, 0, 0)" opacity="0.2" /><circle cx="5.0" cy="350.0" r="70.0" stroke="0" fill="rgb(0, 255, 0)" opacity="0.2" /><circle cx="240.0" cy="480.0" r="2" stroke="0" fill="rgb(255, 0, 0)" opacity="1" /><circle cx="240.0" cy="480.0" r="15.0" stroke="0" fill="rgb(255, 0, 0)" opacity="0.2" /><circle cx="240.0" cy="480.0" r="70.0" stroke="0" fill="rgb(0, 255, 0)" opacity="0.2" /><circle cx="145.0" cy="335.0" r="2" stroke="0" fill="rgb(255, 0, 0)" opacity="1" /><circle cx="145.0" cy="335.0" r="15.0" stroke="0" fill="rgb(255, 0, 0)" opacity="0.2" /><circle cx="145.0" cy="335.0" r="70.0" stroke="0" fill="rgb(0, 255, 0)" opacity="0.2" /><circle cx="355.0" cy="300.0" r="2" stroke="0" fill="rgb(255, 0, 0)" opacity="1" /><circle cx="355.0" cy="300.0" r="15.0" stroke="0" fill="rgb(255, 0, 0)" opacity="0.2" /><circle cx="355.0" cy="300.0" r="70.0" stroke="0" fill="rgb(0, 255, 0)" opacity="0.2" /><circle cx="410.0" cy="130.0" r="2" stroke="0" fill="rgb(255, 0, 0)" opacity="1" /><circle cx="410.0" cy="130.0" r="15.0" stroke="0" fill="rgb(255, 0, 0)" opacity="0.2" /><circle cx="410.0" cy="130.0" r="70.0" stroke="0" fill="rgb(0, 255, 0)" opacity="0.2" /><circle cx="285.0" cy="175.0" r="2" stroke="0" fill="rgb(255, 0, 0)" opacity="1" /><circle cx="285.0" cy="175.0" r="15.0" stroke="0" fill="rgb(255, 0, 0)" opacity="0.2" /><circle cx="285.0" cy="175.0" r="70.0" stroke="0" fill="rgb(0, 255, 0)" opacity="0.2" /><circle cx="100.0" cy="390.0" r="2" stroke="0" fill="rgb(255, 0, 0)" opacity="1" /><circle cx="100.0" cy="390.0" r="15.0" stroke="0" fill="rgb(255, 0, 0)" opacity="0.2" /><circle cx="100.0" cy="390.0" r="70.0" stroke="0" fill="rgb(0, 255, 0)" opacity="0.2" /><circle cx="290.0" cy="410.0" r="2" stroke="0" fill="rgb(255, 0, 0)" opacity="1" /><circle cx="290.0" cy="410.0" r="15.0" stroke="0" fill="rgb(255, 0, 0)" opacity="0.2" /><circle cx="290.0" cy="410.0" r="70.0" stroke="0" fill="rgb(0, 255, 0)" opacity="0.2" /><circle cx="225.0" cy="375.0" r="2" stroke="0" fill="rgb(255, 0, 0)" opacity="1" /><circle cx="225.0" cy="375.0" r="15.0" stroke="0" fill="rgb(255, 0, 0)" opacity="0.2" /><circle cx="225.0" cy="375.0" r="70.0" stroke="0" fill="rgb(0, 255, 0)" opacity="0.2" /><circle cx="455.0" cy="330.0" r="2" stroke="0" fill="rgb(255, 0, 0)" opacity="1" /><circle cx="455.0" cy="330.0" r="15.0" stroke="0" fill="rgb(255, 0, 0)" opacity="0.2" /><circle cx="455.0" cy="330.0" r="70.0" stroke="0" fill="rgb(0, 255, 0)" opacity="0.2" /><circle cx="50.0" cy="495.0" r="2" stroke="0" fill="rgb(255, 0, 0)" opacity="1" /><circle cx="50.0" cy="495.0" r="15.0" stroke="0" fill="rgb(255, 0, 0)" opacity="0.2" /><circle cx="50.0" cy="495.0" r="70.0" stroke="0" fill="rgb(0, 255, 0)" opacity="0.2" /><circle cx="300.0" cy="270.0" r="2" stroke="0" fill="rgb(255, 0, 0)" opacity="1" /><circle cx="300.0" cy="270.0" r="15.0" stroke="0" fill="rgb(255, 0, 0)" opacity="0.2" /><circle cx="300.0" cy="270.0" r="70.0" stroke="0" fill="rgb(0, 255, 0)" opacity="0.2" /><circle cx="425.0" cy="0.0" r="2" stroke="0" fill="rgb(255, 0, 0)" opacity="1" /><circle cx="425.0" cy="0.0" r="15.0" stroke="0" fill="rgb(255, 0, 0)" opacity="0.2" /><circle cx="425.0" cy="0.0" r="70.0" stroke="0" fill="rgb(0, 255, 0)" opacity="0.2" /><circle cx="0.0" cy="75.0" r="2" stroke="0" fill="rgb(255, 0, 0)" opacity="1" /><circle cx="0.0" cy="75.0" r="15.0" stroke="0" fill="rgb(255, 0, 0)" opacity="0.2" /><circle cx="0.0" cy="75.0" r="70.0" stroke="0" fill="rgb(0, 255, 0)" opacity="0.2" /><circle cx="20.0" cy="260.0" r="2" stroke="0" fill="rgb(255, 0, 0)" opacity="1" /><circle cx="20.0" cy="260.0" r="15.0" stroke="0" fill="rgb(255, 0, 0)" opacity="0.2" /><circle cx="20.0" cy="260.0" r="70.0" stroke="0" fill="rgb(0, 255, 0)" opacity="0.2" /><circle cx="375.0" cy="325.0" r="2" stroke="0" fill="rgb(255, 0, 0)" opacity="1" /><circle cx="375.0" cy="325.0" r="15.0" stroke="0" fill="rgb(255, 0, 0)" opacity="0.2" /><circle cx="375.0" cy="325.0" r="70.0" stroke="0" fill="rgb(0, 255, 0)" opacity="0.2" /><circle cx="325.0" cy="10.0" r="2" stroke="0" fill="rgb(255, 0, 0)" opacity="1" /><circle cx="325.0" cy="10.0" r="15.0" stroke="0" fill="rgb(255, 0, 0)" opacity="0.2" /><circle cx="325.0" cy="10.0" r="70.0" stroke="0" fill="rgb(0, 255, 0)" opacity="0.2" /><circle cx="470.0" cy="15.0" r="2" stroke="0" fill="rgb(255, 0, 0)" opacity="1" /><circle cx="470.0" cy="15.0" r="15.0" stroke="0" fill="rgb(255, 0, 0)" opacity="0.2" /><circle cx="470.0" cy="15.0" r="70.0" stroke="0" fill="rgb(0, 255, 0)" opacity="0.2" /><circle cx="35.0" cy="350.0" r="2" stroke="0" fill="rgb(255, 0, 0)" opacity="1" /><circle cx="35.0" cy="350.0" r="15.0" stroke="0" fill="rgb(255, 0, 0)" opacity="0.2" /><circle cx="35.0" cy="350.0" r="70.0" stroke="0" fill="rgb(0, 255, 0)" opacity="0.2" /><circle cx="105.0" cy="250.0" r="2" stroke="0" fill="rgb(255, 0, 0)" opacity="1" /><circle cx="105.0" cy="250.0" r="15.0" stroke="0" fill="rgb(255, 0, 0)" opacity="0.2" /><circle cx="105.0" cy="250.0" r="70.0" stroke="0" fill="rgb(0, 255, 0)" opacity="0.2" /><circle cx="255.0" cy="245.0" r="2" stroke="0" fill="rgb(255, 0, 0)" opacity="1" /><circle cx="255.0" cy="245.0" r="15.0" stroke="0" fill="rgb(255, 0, 0)" opacity="0.2" /><circle cx="255.0" cy="245.0" r="70.0" stroke="0" fill="rgb(0, 255, 0)" opacity="0.2" /><circle cx="380.0" cy="195.0" r="2" stroke="0" fill="rgb(255, 0, 0)" opacity="1" /><circle cx="380.0" cy="195.0" r="15.0" stroke="0" fill="rgb(255, 0, 0)" opacity="0.2" /><circle cx="380.0" cy="195.0" r="70.0" stroke="0" fill="rgb(0, 255, 0)" opacity="0.2" /><circle cx="165.0" cy="495.0" r="2" stroke="0" fill="rgb(255, 0, 0)" opacity="1" /><circle cx="165.0" cy="495.0" r="15.0" stroke="0" fill="rgb(255, 0, 0)" opacity="0.2" /><circle cx="165.0" cy="495.0" r="70.0" stroke="0" fill="rgb(0, 255, 0)" opacity="0.2" /><circle cx="85.0" cy="475.0" r="2" stroke="0" fill="rgb(255, 0, 0)" opacity="1" /><circle cx="85.0" cy="475.0" r="15.0" stroke="0" fill="rgb(255, 0, 0)" opacity="0.2" /><circle cx="85.0" cy="475.0" r="70.0" stroke="0" fill="rgb(0, 255, 0)" opacity="0.2" /><circle cx="135.0" cy="285.0" r="2" stroke="0" fill="rgb(255, 0, 0)" opacity="1" /><circle cx="135.0" cy="285.0" r="15.0" stroke="0" fill="rgb(255, 0, 0)" opacity="0.2" /><circle cx="135.0" cy="285.0" r="70.0" stroke="0" fill="rgb(0, 255, 0)" opacity="0.2" /></svg>