<svg width="500" height="500" xmlns="http://www.w3.org/2000/svg"><rect x="0" y="0" width="500" height="500" stroke="0" fill="rgb(255, 255, 255)" opacity="1" /><circle cx="495.0" cy="0.0" r="2" stroke="0" fill="rgb(0, 0, 0)" opacity="1" /><circle cx="490.0" cy="0.0" r="2" stroke="0" fill="rgb(0, 0, 0)" opacity="1" /><circle cx="480.0" cy="0.0" r="2" stroke="0" fill="rgb(0, 0, 0)" opacity="1" /><circle cx="470.0" cy="0.0" r="2" stroke="0" fill="rgb(0, 0, 0)" opacity="1" /><circle cx="460.0" cy="0.0" r="2" stroke="0" fill="rgb(0, 0, 0)" opacity="1" /><circle cx="450.0" cy="0.0" r="2" stroke="0" fill="rgb(0, 0, 0)" opacity="1" /><circle cx="440.0" cy="0.0" r="2" stroke="0" fill="rgb(0, 0, 0)" opacity="1" /><circle cx="430.0" cy="0.0" r="2" stroke="0" fill="rgb(0, 0, 0)" opacity="1" /><circle cx="420.0" cy="0.0" r="2" stroke="0" fill="rgb(0, 0, 0)" opacity="1" /><circle cx="410.0" cy="0.0" r="2" stroke="0" fill="rgb(0, 0, 0)" opacity="1" /><circle cx="400.0" cy="0.0" r="2" stroke="0" fill="rgb(0, 0, 0)" opacity="1" /><circle cx="390.0" cy="0.0" r="2" stroke="0" fill="rgb(0, 0, 0)" opacity="1" /><circle cx="380.0" cy="0.0" r="2" stroke="0" fill="rgb(0, 0, 0)" opacity="1" /><circle cx="370.0" cy="0.0" r="2" stroke="0" fill="rgb(0, 0, 0)" opacity="1" /><circle cx="360.0" cy="0.0" r="2" stroke="0" fill="rgb(0, 0, 0)" opacity="1" /><circle cx="350.0" cy="0.0" r="2" stroke="0" fill="rgb(0, 0, 0)" opacity="1" /><circle cx="340.0" cy="0.0" r="2" stroke="0" fill="rgb(0, 0, 0)" opacity="1" /><circle cx="330.0" cy="0.0" r="2" stroke="0" fill="rgb(0, 0, 0)" opacity="1" /><circle cx="320.0" cy="0.0" r="2" stroke="0" fill="rgb(0, 0, 0)" opacity="1" /><circle cx="310.0" cy="0.0" r="2" stroke="0" fill="rgb(0, 0, 0)" opacity="1" /><circle cx="300.0" cy="0.0" r="2" stroke="0" fill="rgb(0, 0, 0)" opacity="1" /><circle cx="290.0" cy="0.0" r="2" stroke="0" fill="rgb(0, 0, 0)" opacity="1" /><circle cx="280.0" cy="0.0" r="2" stroke="0" fill="rgb(0, 0, 0)" opacity="1" /><circle cx="270.0" cy="0.0" r="2" stroke="0" fill="rgb(0, 0, 0)" opacity="1" /><circle cx="260.0" cy="0.0" r="2" stroke="0" fill="rgb(0, 0, 0)" opacity="1" /><circle cx="250.0" cy="0.0" r="2" stroke="0" fill="rgb(0, 0, 0)" opacity="1" /><circle cx="240.0" cy="0.0" r="2" stroke="0" fill="rgb(0, 0, 0)" opacity="1" /><circle cx="230.0" cy="0.0" r="2" stroke="0" fill="rgb(0, 0, 0)" opacity="1" /><circle cx="220.0" cy="0.0" r="2" stroke="0" fill="rgb(0, 0, 0)" opacity="1" /><circle cx="210.0" cy="0.0" r="2" stroke="0" fill="rgb(0, 0, 0)" opacity="1" /><circle cx="200.0" cy="0.0" r="2" stroke="0" fill="rgb(0, 0, 0)" opacity="1" /><circle cx="190.0" cy="0.0" r="2" stroke="0" fill="rgb(0, 0, 0)" opacity="1" /><circle cx="180.0" cy="0.0" r="2" stroke="0" fill="rgb(0, 0, 0)" opacity="1" /><circle cx="170.0" cy="0.0" r="2" stroke="0" fill="rgb(0, 0, 0)" opacity="1" /><circle cx="160.0" cy="0.0" r="2" stroke="0" fill="rgb(0, 0, 0)" opacity="1" /><circle cx="150.0" cy="0.0" r="2" stroke="0" fill="rgb(0, 0, 0)" opacity="1" /><circle cx="140.0" cy="0.0" r="2" stroke="0" fill="rgb(0, 0, 0)" opacity="1" /><circle cx="130.0" cy="0.0" r="2" stroke="0" fill="rgb(0, 0, 0)" opacity="1" /><circle cx="120.0" cy="0.0" r="2" stroke="0" fill="rgb(0, 0, 0)" opacity="1" /><circle cx="110.0" cy="0.0" r="2" stroke="0" fill="rgb(0, 0, 0)" opacity="1" /><circle cx="100.0" cy="0.0" r="2" stroke="0" fill="rgb(0, 0, 0)" opacity="1" /><circle cx="90.0" cy="0.0" r="2" stroke="0" fill="rgb(0, 0, 0)" opacity="1" /><circle cx="80.0" cy="0.0" r="2" stroke="0" fill="rgb(0, 0, 0)" opacity="1" /><circle cx="70.0" cy="0.0" r="2" stroke="0" fill="rgb(0, 0, 0)" opacity="1" /><circle cx="60.0" cy="0.0" r="2" stroke="0" fill="rgb(0, 0, 0)" opacity="1" /><circle cx="50.0" cy="0.0" r="2" stroke="0" fill="rgb(0, 0, 0)" opacity="1" /><circle cx="40.0" cy="0.0" r="2" stroke="0" fill="rgb(0, 0, 0)" opacity="1" /><circle cx="30.0" cy="0.0" r="2" stroke="0" fill="rgb(0, 0, 0)" opacity="1" /><circle cx="20.0" cy="0.0" r="2" stroke="0" fill="rgb(0, 0, 0)" opacity="1" /><circle cx="10.0" cy="0.0" r="2" stroke="0" fill="rgb(0, 0, 0)" opacity="1" /><circle cx="0.0" cy="495.0" r="2" stroke="0" fill="rgb(0, 0, 0)" opacity="1" /><circle cx="0.0" cy="485.0" r="2" stroke="0" fill="rgb(0, 0, 0)" opacity="1" /><circle cx="0.0" cy="470.0" r="2" stroke="0" fill="rgb(0, 0, 0)" opacity="1" /><circle cx="0.0" cy="455.0" r="2" stroke="0" fill="rgb(0, 0, 0)" opacity="1" /><circle cx="0.0" cy="440.0" r="2" stroke="0" fill="rgb(0, 0, 0)" opacity="1" /><circle cx="0.0" cy="425.0" r="2" stroke="0" fill="rgb(0, 0, 0)" opacity="1" /><circle cx="0.0" cy="410.0" r="2" stroke="0" fill="rgb(0, 0, 0)" opacity="1" /><circle cx="0.0" cy="395.0" r="2" stroke="0" fill="rgb(0, 0, 0)" opacity="1" /><circle cx="0.0" cy="380.0" r="2" stroke="0" fill="rgb(0, 0, 0)" opacity="1" /><circle cx="0.0" cy="365.0" r="2" stroke="0" fill="rgb(0, 0, 0)" opacity="1" /><circle cx="0.0" cy="350.0" r="2" stroke="0" fill="rgb(0, 0, 0)" opacity="1" /><circle cx="0.0" cy="335.0" r="2" stroke="0" fill="rgb(0, 0, 0)" opacity="1" /><circle cx="0.0" cy="320.0" r="2" stroke="0" fill="rgb(0, 0, 0)" opacity="1" /><circle cx="0.0" cy="305.0" r="2" stroke="0" fill="rgb(0, 0, 0)" opacity="1" /><circle cx="0.0" cy="290.0" r="2" stroke="0" fill="rgb(0, 0, 0)" opacity="1" /><circle cx="0.0" cy="275.0" r="2" stroke="0" fill="rgb(0, 0, 0)" opacity="1" /><circle cx="0.0" cy="260.0" r="2" stroke="0" fill="rgb(0, 0, 0)" opacity="1" /><circle cx="0.0" cy="245.0" r="2" stroke="0" fill="rgb(0, 0, 0)" opacity="1" /><circle cx="0.0" cy="230.0" r="2" stroke="0" fill="rgb(0, 0, 0)" opacity="1" /><circle cx="0.0" cy="215.0" r="2" stroke="0" fill="rgb(0, 0, 0)" opacity="1" /><circle cx="0.0" cy="200.0" r="2" stroke="0" fill="rgb(0, 0, 0)" opacity="1" /><circle cx="0.0" cy="185.0" r="2" stroke="0" fill="rgb(0, 0, 0)" opacity="1" /><circle cx="0.0" cy="170.0" r="2" stroke="0" fill="rgb(0, 0, 0)" opacity="1" /><circle cx="0.0" cy="155.0" r="2" stroke="0" fill="rgb(0, 0, 0)" opacity="1" /><circle cx="0.0" cy="140.0" r="2" stroke="0" fill="rgb(0, 0, 0)" opacity="1" /><circle cx="0.0" cy="125.0" r="2" stroke="0" fill="rgb(0, 0, 0)" opacity="1" /><circle cx="0.0" cy="110.0" r="2" stroke="0" fill="rgb(0, 0, 0)" opacity="1" /><circle cx="0.0" cy="95.0" r="2" stroke="0" fill="rgb(0, 0, 0)" opacity="1" /><circle cx="0.0" cy="80.0" r="2" stroke="0" fill="rgb(0, 0, 0)" opacity="1" /><circle cx="0.0" cy="65.0" r="2" stroke="0" fill="rgb(0, 0, 0)" opacity="1" /><circle cx="0.0" cy="50.0" r="2" stroke="0" fill="rgb(0, 0, 0)" opacity="1" /><circle cx="0.0" cy="35.0" r="2" stroke="0" fill="rgb(0, 0, 0)" opacity="1" /><circle cx="0.0" cy="20.0" r="2" stroke="0" fill="rgb(0, 0, 0)" opacity="1" /><circle cx="0.0" cy="5.0" r="2" stroke="0" fill="rgb(0, 0, 0)" opacity="1" /><circle cx="250.0" cy="250.0" r="2" stroke="0" fill="rgb(0, 0, 0)" opacity="1" /><circle cx="255.0" cy="150.0" r="2" stroke="0" fill="rgb(0, 0, 0)" opacity="1" /><circle cx="255.0" cy="155.0" r="2" stroke="0" fill="rgb(0, 0, 0)" opacity="1" /><circle cx="255.0" cy="160.0" r="2" stroke="0" fill="rgb(0, 0, 0)" opacity="1" /><circle cx="255.0" cy="165.0" r="2" stroke="0" fill="rgb(0, 0, 0)" opacity="1" /><circle cx="255.0" cy="170.0" r="2" stroke="0" fill="rgb(0, 0, 0)" opacity="1" /><circle cx="255.0" cy="175.0" r="2" stroke="0" fill="rgb(0, 0, 0)" opacity="1" /><circle cx="255.0" cy="180.0" r="2" stroke="0" fill="rgb(0, 0, 0)" opacity="1" /><circle cx="255.0" cy="185.0" r="2" stroke="0" fill="rgb(0, 0, 0)" opacity="1" /><circle cx="255.0" cy="190.0" r="2" stroke="0" fill="rgb(0, 0, 0)" opacity="1" /><circle cx="255.0" cy="195.0" r="2" stroke="0" fill="rgb(0, 0, 0)" opacity="1" /><circle cx="255.0" cy="200.0" r="2" stroke="0" fill="rgb(0, 0, 0)" opacity="1" /><circle cx="255.0" cy="205.0" r="2" stroke="0" fill="rgb(0, 0, 0)" opacity="1" /><circle cx="255.0" cy="210.0" r="2" stroke="0" fill="rgb(0, 0, 0)" opacity="1" /><circle cx="255.0" cy="215.0" r="2" stroke="0" fill="rgb(0, 0, 0)" opacity="1" /><circle cx="255.0" cy="220.0" r="2" stroke="0" fill="rgb(0, 0, 0)" opacity="1" /><circle cx="255.0" cy="225.0" r="2" stroke="0" fill="rgb(0, 0, 0)" opacity="1" /><circle cx="255.0" cy="230.0" r="2" stroke="0" fill="rgb(0, 0, 0)" opacity="1" /><circle cx="255.0" cy="235.0" r="2" stroke="0" fill="rgb(0, 0, 0)" opacity="1" /><circle cx="255.0" cy="240.0" r="2" stroke="0" fill="rgb(0, 0, 0)" opacity="1" /><circle cx="260.0" cy="150.0" r="2" stroke="0" fill="rgb(0, 0, 0)" opacity="1" /><circle cx="260.0" cy="155.0" r="2" stroke="0" fill="rgb(0, 0, 0)" opacity="1" /><circle cx="260.0" cy="160.0" r="2" stroke="0" fill="rgb(0, 0, 0)" opacity="1" /><circle cx="260.0" cy="165.0" r="2" stroke="0" fill="rgb(0, 0, 0)" opacity="1" /><circle cx="260.0" cy="170.0" r="2" stroke="0" fill="rgb(0, 0, 0)" opacity="1" /><circle cx="260.0" cy="175.0" r="2" stroke="0" fill="rgb(0, 0, 0)" opacity="1" /><circle cx="260.0" cy="180.0" r="2" stroke="0" fill="rgb(0, 0, 0)" opacity="1" /><circle cx="260.0" cy="185.0" r="2" stroke="0" fill="rgb(0, 0, 0)" opacity="1" /><circle cx="260.0" cy="190.0" r="2" stroke="0" fill="rgb(0, 0, 0)" opacity="1" /><circle cx="260.0" cy="195.0" r="2" stroke="0" fill="rgb(0, 0, 0)" opacity="1" /><circle cx="260.0" cy="200.0" r="2" stroke="0" fill="rgb(0, 0, 0)" opacity="1" /><circle cx="260.0" cy="205.0" r="2" stroke="0" fill="rgb(0, 0, 0)" opacity="1" /><circle cx="260.0" cy="210.0" r="2" stroke="0" fill="rgb(0, 0, 0)" opacity="1" /><circle cx="260.0" cy="215.0" r="2" stroke="0" fill="rgb(0, 0, 0)" opacity="1" /><circle cx="260.0" cy="220.0" r="2" stroke="0" fill="rgb(0, 0, 0)" opacity="1" /><circle cx="260.0" cy="225.0" r="2" stroke="0" fill="rgb(0, 0, 0)" opacity="1" /><circle cx="260.0" cy="230.0" r="2" stroke="0" fill="rgb(0, 0, 0)" opacity="1" /><circle cx="260.0" cy="235.0" r="2" stroke="0" fill="rgb(0, 0, 0)" opacity="1" /><circle cx="260.0" cy="240.0" r="2" stroke="0" fill="rgb(0, 0, 0)" opacity="1" /><circle cx="265.0" cy="150.0" r="2" stroke="0" fill="rgb(0, 0, 0)" opacity="1" /><circle cx="265.0" cy="155.0" r="2" stroke="0" fill="rgb(0, 0, 0)" opacity="1" /><circle cx="265.0" cy="160.0" r="2" stroke="0" fill="rgb(0, 0, 0)" opacity="1" /><circle cx="265.0" cy="165.0" r="2" stroke="0" fill="rgb(0, 0, 0)" opacity="1" /><circle cx="265.0" cy="170.0" r="2" stroke="0" fill="rgb(0, 0, 0)" opacity="1" /><circle cx="265.0" cy="175.0" r="2" stroke="0" fill="rgb(0, 0, 0)" opacity="1" /><circle cx="265.0" cy="180.0" r="2" stroke="0" fill="rgb(0, 0, 0)" opacity="1" /><circle cx="265.0" cy="185.0" r="2" stroke="0" fill="rgb(0, 0, 0)" opacity="1" /><circle cx="265.0" cy="190.0" r="2" stroke="0" fill="rgb(0, 0, 0)" opacity="1" /><circle cx="265.0" cy="195.0" r="2" stroke="0" fill="rgb(0, 0, 0)" opacity="1" /><circle cx="265.0" cy="200.0" r="2" stroke="0" fill="rgb(0, 0, 0)" opacity="1" /><circle cx="265.0" cy="205.0" r="2" stroke="0" fill="rgb(0, 0, 0)" opacity="1" /><circle cx="265.0" cy="210.0" r="2" stroke="0" fill="rgb(0, 0, 0)" opacity="1" /><circle cx="265.0" cy="215.0" r="2" stroke="0" fill="rgb(0, 0, 0)" opacity="1" /><circle cx="265.0" cy="220.0" r="2" stroke="0" fill="rgb(0, 0, 0)" opacity="1" /><circle cx="265.0" cy="225.0" r="2" stroke="0" fill="rgb(0, 0, 0)" opacity="1" /><circle cx="265.0" cy="230.0" r="2" stroke="0" fill="rgb(0, 0, 0)" opacity="1" /><circle cx="265.0" cy="235.0" r="2" stroke="0" fill="rgb(0, 0, 0)" opacity="1" /><circle cx="265.0" cy="240.0" r="2" stroke="0" fill="rgb(0, 0, 0)" opacity="1" /><circle cx="270.0" cy="150.0" r="2" stroke="0" fill="rgb(0, 0, 0)" opacity="1" /><circle cx="270.0" cy="155.0" r="2" stroke="0" fill="rgb(0, 0, 0)" opacity="1" /><circle cx="270.0" cy="160.0" r="2" stroke="0" fill="rgb(0, 0, 0)" opacity="1" /><circle cx="270.0" cy="165.0" r="2" stroke="0" fill="rgb(0, 0, 0)" opacity="1" /><circle cx="270.0" cy="170.0" r="2" stroke="0" fill="rgb(0, 0, 0)" opacity="1" /><circle cx="270.0" cy="175.0" r="2" stroke="0" fill="rgb(0, 0, 0)" opacity="1" /><circle cx="270.0" cy="180.0" r="2" stroke="0" fill="rgb(0, 0, 0)" opacity="1" /><circle cx="270.0" cy="185.0" r="2" stroke="0" fill="rgb(0, 0, 0)" opacity="1" /><circle cx="270.0" cy="190.0" r="2" stroke="0" fill="rgb(0, 0, 0)" opacity="1" /><circle cx="270.0" cy="195.0" r="2" stroke="0" fill="rgb(0, 0, 0)" opacity="1" /><circle cx="270.0" cy="200.0" r="2" stroke="0" fill="rgb(0, 0, 0)" opacity="1" /><circle cx="270.0" cy="205.0" r="2" stroke="0" fill="rgb(0, 0, 0)" opacity="1" /><circle cx="270.0" cy="210.0" r="2" stroke="0" fill="rgb(0, 0, 0)" opacity="1" /><circle cx="270.0" cy="215.0" r="2" stroke="0" fill="rgb(0, 0, 0)" opacity="1" /><circle cx="270.0" cy="220.0" r="2" stroke="0" fill="rgb(0, 0, 0)" opacity="1" /><circle cx="270.0" cy="225.0" r="2" stroke="0" fill="rgb(0, 0, 0)" opacity="1" /><circle cx="270.0" cy="230.0" r="2" stroke="0" fill="rgb(0, 0, 0)" opacity="1" /><circle cx="270.0" cy="235.0" r="2" stroke="0" fill="rgb(0, 0, 0)" opacity="1" /><circle cx="270.0" cy="240.0" r="2" stroke="0" fill="rgb(0, 0, 0)" opacity="1" /><circle cx="275.0" cy="150.0" r="2" stroke="0" fill="rgb(0, 0, 0)" opacity="1" /><circle cx="275.0" cy="155.0" r="2" stroke="0" fill="rgb(0, 0, 0)" opacity="1" /><circle cx="275.0" cy="160.0" r="2" stroke="0" fill="rgb(0, 0, 0)" opacity="1" /><circle cx="275.0" cy="165.0" r="2" stroke="0" fill="rgb(0, 0, 0)" opacity="1" /><circle cx="275.0" cy="170.0" r="2" stroke="0" fill="rgb(0, 0, 0)" opacity="1" /><circle cx="275.0" cy="175.0" r="2" stroke="0" fill="rgb(0, 0, 0)" opacity="1" /><circle cx="275.0" cy="180.0" r="2" stroke="0" fill="rgb(0, 0, 0)" opacity="1" /><circle cx="275.0" cy="185.0" r="2" stroke="0" fill="rgb(0, 0, 0)" opacity="1" /><circle cx="275.0" cy="190.0" r="2" stroke="0" fill="rgb(0, 0, 0)" opacity="1" /><circle cx="275.0" cy="195.0" r="2" stroke="0" fill="rgb(0, 0, 0)" opacity="1" /><circle cx="275.0" cy="200.0" r="2" stroke="0" fill="rgb(0, 0, 0)" opacity="1" /><circle cx="275.0" cy="205.0" r="2" stroke="0" fill="rgb(0, 0, 0)" opacity="1" /><circle cx="275.0" cy="210.0" r="2" stroke="0" fill="rgb(0, 0, 0)" opacity="1" /><circle cx="275.0" cy="215.0" r="2" stroke="0" fill="rgb(0, 0, 0)" opacity="1" /><circle cx="275.0" cy="220.0" r="2" stroke="0" fill="rgb(0, 0, 0)" opacity="1" /><circle cx="275.0" cy="225.0" r="2" stroke="0" fill="rgb(0, 0, 0)" opacity="1" /><circle cx="275.0" cy="230.0" r="2" stroke="0" fill="rgb(0, 0, 0)" opacity="1" /><circle cx="275.0" cy="235.0" r="2" stroke="0" fill="rgb(0, 0, 0)" opacity="1" /><circle cx="275.0" cy="240.0" r="2" stroke="0" fill="rgb(0, 0, 0)" opacity="1" /><circle cx="280.0" cy="150.0" r="2" stroke="0" fill="rgb(0, 0, 0)" opacity="1" /><circle cx="280.0" cy="155.0" r="2" stroke="0" fill="rgb(0, 0, 0)" opacity="1" /><circle cx="280.0" cy="160.0" r="2" stroke="0" fill="rgb(0, 0, 0)" opacity="1" /><circle cx="280.0" cy="165.0" r="2" stroke="0" fill="rgb(0, 0, 0)" opacity="1" /><circle cx="280.0" cy="170.0" r="2" stroke="0" fill="rgb(0, 0, 0)" opacity="1" /><circle cx="280.0" cy="175.0" r="2" stroke="0" fill="rgb(0, 0, 0)" opacity="1" /><circle cx="280.0" cy="180.0" r="2" stroke="0" fill="rgb(0, 0, 0)" opacity="1" /><circle cx="280.0" cy="185.0" r="2" stroke="0" fill="rgb(0, 0, 0)" opacity="1" /><circle cx="280.0" cy="190.0" r="2" stroke="0" fill="rgb(0, 0, 0)" opacity="1" /><circle cx="280.0" cy="195.0" r="2" stroke="0" fill="rgb(0, 0, 0)" opacity="1" /><circle cx="280.0" cy="200.0" r="2" stroke="0" fill="rgb(0, 0, 0)" opacity="1" /><circle cx="280.0" cy="205.0" r="2" stroke="0" fill="rgb(0, 0, 0)" opacity="1" /><circle cx="280.0" cy="210.0" r="2" stroke="0" fill="rgb(0, 0, 0)" opacity="1" /><circle cx="280.0" cy="215.0" r="2" stroke="0" fill="rgb(0, 0, 0)" opacity="1" /><circle cx="280.0" cy="220.0" r="2" stroke="0" fill="rgb(0, 0, 0)" opacity="1" /><circle cx="280.0" cy="225.0" r="2" stroke="0" fill="rgb(0, 0, 0)" opacity="1" /><circle cx="280.0" cy="230.0" r="2" stroke="0" fill="rgb(0, 0, 0)" opacity="1" /><circle cx="280.0" cy="235.0" r="2" stroke="0" fill="rgb(0, 0, 0)" opacity="1" /><circle cx="280.0" cy="240.0" r="2" stroke="0" fill="rgb(0, 0, 0)" opacity="1" /><circle cx="285.0" cy="150.0" r="2" stroke="0" fill="rgb(0, 0, 0)" opacity="1" /><circle cx="495.0" cy="495.0" r="2" stroke="0" fill="rgb(0, 0, 0)" opacity="1" /><circle cx="0.0" cy="35.0" r="2" stroke="0" fill="rgb(255, 0, 0)" opacity="1" /><circle cx="0.0" cy="35.0" r="15.0" stroke="0" fill="rgb(255, 0, 0)" opacity="0.2" /><circle cx="0.0" cy="35.0" r="70.0" stroke="0" fill="rgb(0, 255, 0)" opacity="0.2" /><circle cx="0.0" cy="80.0" r="2" stroke="0" fill="rgb(255, 0, 0)" opacity="1" /><circle cx="0.0" cy="80.0" r="15.0" stroke="0" fill="rgb(255, 0, 0)" opacity="0.2" /><circle cx="0.0" cy="80.0" r="70.0" stroke="0" fill="rgb(0, 255, 0)" opacity="0.2" /><circle cx="0.0" cy="125.0" r="2" stroke="0" fill="rgb(255, 0, 0)" opacity="1" /><circle cx="0.0" cy="125.0" r="15.0" stroke="0" fill="rgb(255, 0, 0)" opacity="0.2" /><circle cx="0.0" cy="125.0" r="70.0" stroke="0" fill="rgb(0, 255, 0)" opacity="0.2" /><circle cx="0.0" cy="170.0" r="2" stroke="0" fill="rgb(255, 0, 0)" opacity="1" /><circle cx="0.0" cy="170.0" r="15.0" stroke="0" fill="rgb(255, 0, 0)" opacity="0.2" /><circle cx="0.0" cy="170.0" r="70.0" stroke="0" fill="rgb(0, 255, 0)" opacity="0.2" /><circle cx="0.0" cy="215.0" r="2" stroke="0" fill="rgb(255, 0, 0)" opacity="1" /><circle cx="0.0" cy="215.0" r="15.0" stroke="0" fill="rgb(255, 0, 0)" opacity="0.2" /><circle cx="0.0" cy="215.0" r="70.0" stroke="0" fill="rgb(0, 255, 0)" opacity="0.2" /><circle cx="0.0" cy="260.0" r="2" stroke="0" fill="rgb(255, 0, 0)" opacity="1" /><circle cx="0.0" cy="260.0" r="15.0" stroke="0" fill="rgb(255, 0, 0)" opacity="0.2" /><circle cx="0.0" cy="260.0" r="70.0" stroke="0" fill="rgb(0, 255, 0)" opacity="0.2" /><circle cx="0.0" cy="305.0" r="2" stroke="0" fill="rgb(255, 0, 0)" opacity="1" /><circle cx="0.0" cy="305.0" r="15.0" stroke="0" fill="rgb(255, 0, 0)" opacity="0.2" /><circle cx="0.0" cy="305.0" r="70.0" stroke="0" fill="rgb(0, 255, 0)" opacity="0.2" /><circle cx="0.0" cy="350.0" r="2" stroke="0" fill="rgb(255, 0, 0)" opacity="1" /><circle cx="0.0" cy="350.0" r="15.0" stroke="0" fill="rgb(255, 0, 0)" opacity="0.2" /><circle cx="0.0" cy="350.0" r="70.0" stroke="0" fill="rgb(0, 255, 0)" opacity="0.2" /><circle cx="0.0" cy="395.0" r="2" stroke="0" fill="rgb(255, 0, 0)" opacity="1" /><circle cx="0.0" cy="395.0" r="15.0" stroke="0" fill="rgb(255, 0, 0)" opacity="0.2" /><circle cx="0.0" cy="395.0" r="70.0" stroke="0" fill="rgb(0, 255, 0)" opacity="0.2" /><circle cx="0.0" cy="440.0" r="2" stroke="0" fill="rgb(255, 0, 0)" opacity="1" /><circle cx="0.0" cy="440.0" r="15.0" stroke="0" fill="rgb(255, 0, 0)" opacity="0.2" /><circle cx="0.0" cy="440.0" r="70.0" stroke="0" fill="rgb(0, 255, 0)" opacity="0.2" /><circle cx="0.0" cy="485.0" r="2" stroke="0" fill="rgb(255, 0, 0)" opacity="1" /><circle cx="0.0" cy="485.0" r="15.0" stroke="0" fill="rgb(255, 0, 0)" opacity="0.2" /><circle cx="0.0" cy="485.0" r="70.0" stroke="0" fill="rgb(0, 255, 0)" opacity="0.2" /><circle cx="5.0" cy="0.0" r="2" stroke="0" fill="rgb(255, 0, 0)" opacity="1" /><circle cx="5.0" cy="0.0" r="15.0" stroke="0" fill="rgb(255, 0, 0)" opacity="0.2" /><circle cx="5.0" cy="0.0" r="70.0" stroke="0" fill="rgb(0, 255, 0)" opacity="0.2" /><circle cx="45.0" cy="0.0" r="2" stroke="0" fill="rgb(255, 0, 0)" opacity="1" /><circle cx="45.0" cy="0.0" r="15.0" stroke="0" fill="rgb(255, 0, 0)" opacity="0.2" /><circle cx="45.0" cy="0.0" r="70.0" stroke="0" fill="rgb(0, 255, 0)" opacity="0.2" /><circle cx="85.0" cy="0.0" r="2" stroke="0" fill="rgb(255, 0, 0)" opacity="1" /><circle cx="85.0" cy="0.0" r="15.0" stroke="0" fill="rgb(255, 0, 0)" opacity="0.2" /><circle cx="85.0" cy="0.0" r="70.0" stroke="0" fill="rgb(0, 255, 0)" opacity="0.2" /><circle cx="125.0" cy="0.0" r="2" stroke="0" fill="rgb(255, 0, 0)" opacity="1" /><circle cx="125.0" cy="0.0" r="15.0" stroke="0" fill="rgb(255, 0, 0)" opacity="0.2" /><circle cx="125.0" cy="0.0" r="70.0" stroke="0" fill="rgb(0, 255, 0)" opacity="0.2" /><circle cx="165.0" cy="0.0" r="2" stroke="0" fill="rgb(255, 0, 0)" opacity="1" /><circle cx="165.0" cy="0.0" r="15.0" stroke="0" fill="rgb(255, 0, 0)" opacity="0.2" /><circle cx="165.0" cy="0.0" r="70.0" stroke="0" fill="rgb(0, 255, 0)" opacity="0.2" /><circle cx="205.0" cy="0.0" r="2" stroke="0" fill="rgb(255, 0, 0)" opacity="1" /><circle cx="205.0" cy="0.0" r="15.0" stroke="0" fill="rgb(255, 0, 0)" opacity="0.2" /><circle cx="205.0" cy="0.0" r="70.0" stroke="0" fill="rgb(0, 255, 0)" opacity="0.2" /><circle cx="245.0" cy="0.0" r="2" stroke="0" fill="rgb(255, 0, 0)" opacity="1" /><circle cx="245.0" cy="0.0" r="15.0" stroke="0" fill="rgb(255, 0, 0)" opacity="0.2" /><circle cx="245.0" cy="0.0" r="70.0" stroke="0" fill="rgb(0, 255, 0)" opacity="0.2" /><circle cx="255.0" cy="155.0" r="2" stroke="0" fill="rgb(255, 0, 0)" opacity="1" /><circle cx="255.0" cy="155.0" r="15.0" stroke="0" fill="rgb(255, 0, 0)" opacity="0.2" /><circle cx="255.0" cy="155.0" r="70.0" stroke="0" fill="rgb(0, 255, 0)" opacity="0.2" /><circle cx="255.0" cy="210.0" r="2" stroke="0" fill="rgb(255, 0, 0)" opacity="1" /><circle cx="255.0" cy="210.0" r="15.0" stroke="0" fill="rgb(255, 0, 0)" opacity="0.2" /><circle cx="255.0" cy="210.0" r="70.0" stroke="0" fill="rgb(0, 255, 0)" opacity="0.2" /><circle cx="260.0" cy="240.0" r="2" stroke="0" fill="rgb(255, 0, 0)" opacity="1" /><circle cx="260.0" cy="240.0" r="15.0" stroke="0" fill="rgb(255, 0, 0)" opacity="0.2" /><circle cx="260.0" cy="240.0" r="70.0" stroke="0" fill="rgb(0, 255, 0)" opacity="0.2" /><circle cx="265.0" cy="180.0" r="2" stroke="0" fill="rgb(255, 0, 0)" opacity="1" /><circle cx="265.0" cy="180.0" r="15.0" stroke="0" fill="rgb(255, 0, 0)" opacity="0.2" /><circle cx="265.0" cy="180.0" r="70.0" stroke="0" fill="rgb(0, 255, 0)" opacity="0.2" /><circle cx="275.0" cy="195.0" r="2" stroke="0" fill="rgb(255, 0, 0)" opacity="1" /><circle cx="275.0" cy="195.0" r="15.0" stroke="0" fill="rgb(255, 0, 0)" opacity="0.2" /><circle cx="275.0" cy="195.0" r="70.0" stroke="0" fill="rgb(0, 255, 0)" opacity="0.2" /><circle cx="280.0" cy="160.0" r="2" stroke="0" fill="rgb(255, 0, 0)" opacity="1" /><circle cx="280.0" cy="160.0" r="15.0" stroke="0" fill="rgb(255, 0, 0)" opacity="0.2" /><circle cx="280.0" cy="160.0" r="70.0" stroke="0" fill="rgb(0, 255, 0)" opacity="0.2" /><circle cx="280.0" cy="225.0" r="2" stroke="0" fill="rgb(255, 0, 0)" opacity="1" /><circle cx="280.0" cy="225.0" r="15.0" stroke="0" fill="rgb(255, 0, 0)" opacity="0.2" /><circle cx="280.0" cy="225.0" r="70.0" stroke="0" fill="rgb(0, 255, 0)" opacity="0.2" /><circle cx="285.0" cy="0.0" r="2" stroke="0" fill="rgb(255, 0, 0)" opacity="1" /><circle cx="285.0" cy="0.0" r="15.0" stroke="0" fill="rgb(255, 0, 0)" opacity="0.2" /><circle cx="285.0" cy="0.0" r="70.0" stroke="0" fill="rgb(0, 255, 0)" opacity="0.2" /><circle cx="325.0" cy="0.0" r="2" stroke="0" fill="rgb(255, 0, 0)" opacity="1" /><circle cx="325.0" cy="0.0" r="15.0" stroke="0" fill="rgb(255, 0, 0)" opacity="0.2" /><circle cx="325.0" cy="0.0" r="70.0" stroke="0" fill="rgb(0, 255, 0)" opacity="0.2" /><circle cx="365.0" cy="0.0" r="2" stroke="0" fill="rgb(255, 0, 0)" opacity="1" /><circle cx="365.0" cy="0.0" r="15.0" stroke="0" fill="rgb(255, 0, 0)" opacity="0.2" /><circle cx="365.0" cy="0.0" r="70.0" stroke="0" fill="rgb(0, 255, 0)" opacity="0.2" /><circle cx="405.0" cy="0.0" r="2" stroke="0" fill="rgb(255, 0, 0)" opacity="1" /><circle cx="405.0" cy="0.0" r="15.0" stroke="0" fill="rgb(255, 0, 0)" opacity="0.2" /><circle cx="405.0" cy="0.0" r="70.0" stroke="0" fill="rgb(0, 255, 0)" opacity="0.2" /><circle cx="445.0" cy="0.0" r="2" stroke="0" fill="rgb(255, 0, 0)" opacity="1" /><circle cx="445.0" cy="0.0" r="15.0" stroke="0" fill="rgb(255, 0, 0)" opacity="0.2" /><circle cx="445.0" cy="0.0" r="70.0" stroke="0" fill="rgb(0, 255, 0)" opacity="0.2" /><circle cx="485.0" cy="0.0" r="2" stroke="0" fill="rgb(255, 0, 0)" opacity="1" /><circle cx="485.0" cy="0.0" r="15.0" stroke="0" fill="rgb(255, 0, 0)" opacity="0.2" /><circle cx="485.0" cy="0.0" r="70.0" stroke="0" fill="rgb(0, 255, 0)" opacity="0.2" /><circle cx="495.0" cy="495.0" r="2" stroke="0" fill="rgb(255, 0, 0)" opacity="1" /><circle cx="495.0" cy="495.0" r="15.0" stroke="0" fill="rgb(255, 0, 0)" opacity="0.2" /><circle cx="495.0" cy="495.0" r="70.0" stroke="0" fill="rgb(0, 255, 0)" opacity="0.2" /></svg>