<svg width="500" height="500" xmlns="http://www.w3.org/2000/svg"><rect x="0" y="0" width="500" height="500" stroke="0" fill="rgb(255, 255, 255)" opacity="1" /><circle cx="5.0" cy="5.0" r="2" stroke="0" fill="rgb(0, 0, 0)" opacity="1" /><circle cx="5.0" cy="10.0" r="2" stroke="0" fill="rgb(0, 0, 0)" opacity="1" /><circle cx="5.0" cy="40.0" r="2" stroke="0" fill="rgb(0, 0, 0)" opacity="1" /><circle cx="5.0" cy="65.0" r="2" stroke="0" fill="rgb(0, 0, 0)" opacity="1" /><circle cx="10.0" cy="5.0" r="2" stroke="0" fill="rgb(0, 0, 0)" opacity="1" /><circle cx="10.0" cy="25.0" r="2" stroke="0" fill="rgb(0, 0, 0)" opacity="1" /><circle cx="10.0" cy="50.0" r="2" stroke="0" fill="rgb(0, 0, 0)" opacity="1" /><circle cx="10.0" cy="85.0" r="2" stroke="0" fill="rgb(0, 0, 0)" opacity="1" /><circle cx="15.0" cy="15.0" r="2" stroke="0" fill="rgb(0, 0, 0)" opacity="1" /><circle cx="20.0" cy="45.0" r="2" stroke="0" fill="rgb(0, 0, 0)" opacity="1" /><circle cx="20.0" cy="70.0" r="2" stroke="0" fill="rgb(0, 0, 0)" opacity="1" /><circle cx="25.0" cy="10.0" r="2" stroke="0" fill="rgb(0, 0, 0)" opacity="1" /><circle cx="25.0" cy="35.0" r="2" stroke="0" fill="rgb(0, 0, 0)" opacity="1" /><circle cx="30.0" cy="45.0" r="2" stroke="0" fill="rgb(0, 0, 0)" opacity="1" /><circle cx="30.0" cy="80.0" r="2" stroke="0" fill="rgb(0, 0, 0)" opacity="1" /><circle cx="35.0" cy="20.0" r="2" stroke="0" fill="rgb(0, 0, 0)" opacity="1" /><circle cx="35.0" cy="60.0" r="2" stroke="0" fill="rgb(0, 0, 0)" opacity="1" /><circle cx="40.0" cy="50.0" r="2" stroke="0" fill="rgb(0, 0, 0)" opacity="1" /><circle cx="40.0" cy="75.0" r="2" stroke="0" fill="rgb(0, 0, 0)" opacity="1" /><circle cx="45.0" cy="35.0" r="2" stroke="0" fill="rgb(0, 0, 0)" opacity="1" /><circle cx="50.0" cy="10.0" r="2" stroke="0" fill="rgb(0, 0, 0)" opacity="1" /><circle cx="50.0" cy="25.0" r="2" stroke="0" fill="rgb(0, 0, 0)" opacity="1" /><circle cx="50.0" cy="70.0" r="2" stroke="0" fill="rgb(0, 0, 0)" opacity="1" /><circle cx="55.0" cy="55.0" r="2" stroke="0" fill="rgb(0, 0, 0)" opacity="1" /><circle cx="60.0" cy="10.0" r="2" stroke="0" fill="rgb(0, 0, 0)" opacity="1" /><circle cx="65.0" cy="20.0" r="2" stroke="0" fill="rgb(0, 0, 0)" opacity="1" /><circle cx="65.0" cy="30.0" r="2" stroke="0" fill="rgb(0, 0, 0)" opacity="1" /><circle cx="65.0" cy="35.0" r="2" stroke="0" fill="rgb(0, 0, 0)" opacity="1" /><circle cx="65.0" cy="40.0" r="2" stroke="0" fill="rgb(0, 0, 0)" opacity="1" /><circle cx="65.0" cy="50.0" r="2" stroke="0" fill="rgb(0, 0, 0)" opacity="1" /><circle cx="65.0" cy="55.0" r="2" stroke="0" fill="rgb(0, 0, 0)" opacity="1" /><circle cx="65.0" cy="65.0" r="2" stroke="0" fill="rgb(0, 0, 0)" opacity="1" /><circle cx="70.0" cy="40.0" r="2" stroke="0" fill="rgb(0, 0, 0)" opacity="1" /><circle cx="75.0" cy="30.0" r="2" stroke="0" fill="rgb(0, 0, 0)" opacity="1" /><circle cx="75.0" cy="45.0" r="2" stroke="0" fill="rgb(0, 0, 0)" opacity="1" /><circle cx="75.0" cy="55.0" r="2" stroke="0" fill="rgb(0, 0, 0)" opacity="1" /><circle cx="75.0" cy="70.0" r="2" stroke="0" fill="rgb(0, 0, 0)" opacity="1" /><circle cx="75.0" cy="85.0" r="2" stroke="0" fill="rgb(0, 0, 0)" opacity="1" /><circle cx="80.0" cy="95.0" r="2" stroke="0" fill="rgb(0, 0, 0)" opacity="1" /><circle cx="80.0" cy="100.0" r="2" stroke="0" fill="rgb(0, 0, 0)" opacity="1" /><circle cx="80.0" cy="105.0" r="2" stroke="0" fill="rgb(0, 0, 0)" opacity="1" /><circle cx="80.0" cy="110.0" r="2" stroke="0" fill="rgb(0, 0, 0)" opacity="1" /><circle cx="80.0" cy="115.0" r="2" stroke="0" fill="rgb(0, 0, 0)" opacity="1" /><circle cx="80.0" cy="120.0" r="2" stroke="0" fill="rgb(0, 0, 0)" opacity="1" /><circle cx="80.0" cy="125.0" r="2" stroke="0" fill="rgb(0, 0, 0)" opacity="1" /><circle cx="80.0" cy="130.0" r="2" stroke="0" fill="rgb(0, 0, 0)" opacity="1" /><circle cx="80.0" cy="135.0" r="2" stroke="0" fill="rgb(0, 0, 0)" opacity="1" /><circle cx="80.0" cy="140.0" r="2" stroke="0" fill="rgb(0, 0, 0)" opacity="1" /><circle cx="80.0" cy="145.0" r="2" stroke="0" fill="rgb(0, 0, 0)" opacity="1" /><circle cx="80.0" cy="150.0" r="2" stroke="0" fill="rgb(0, 0, 0)" opacity="1" /><circle cx="85.0" cy="45.0" r="2" stroke="0" fill="rgb(0, 0, 0)" opacity="1" /><circle cx="85.0" cy="70.0" r="2" stroke="0" fill="rgb(0, 0, 0)" opacity="1" /><circle cx="85.0" cy="80.0" r="2" stroke="0" fill="rgb(0, 0, 0)" opacity="1" /><circle cx="85.0" cy="90.0" r="2" stroke="0" fill="rgb(0, 0, 0)" opacity="1" /><circle cx="85.0" cy="140.0" r="2" stroke="0" fill="rgb(0, 0, 0)" opacity="1" /><circle cx="90.0" cy="55.0" r="2" stroke="0" fill="rgb(0, 0, 0)" opacity="1" /><circle cx="90.0" cy="105.0" r="2" stroke="0" fill="rgb(0, 0, 0)" opacity="1" /><circle cx="90.0" cy="125.0" r="2" stroke="0" fill="rgb(0, 0, 0)" opacity="1" /><circle cx="95.0" cy="10.0" r="2" stroke="0" fill="rgb(0, 0, 0)" opacity="1" /><circle cx="95.0" cy="60.0" r="2" stroke="0" fill="rgb(0, 0, 0)" opacity="1" /><circle cx="95.0" cy="65.0" r="2" stroke="0" fill="rgb(0, 0, 0)" opacity="1" /><circle cx="95.0" cy="70.0" r="2" stroke="0" fill="rgb(0, 0, 0)" opacity="1" /><circle cx="95.0" cy="75.0" r="2" stroke="0" fill="rgb(0, 0, 0)" opacity="1" /><circle cx="95.0" cy="80.0" r="2" stroke="0" fill="rgb(0, 0, 0)" opacity="1" /><circle cx="95.0" cy="85.0" r="2" stroke="0" fill="rgb(0, 0, 0)" opacity="1" /><circle cx="95.0" cy="90.0" r="2" stroke="0" fill="rgb(0, 0, 0)" opacity="1" /><circle cx="95.0" cy="95.0" r="2" stroke="0" fill="rgb(0, 0, 0)" opacity="1" /><circle cx="95.0" cy="115.0" r="2" stroke="0" fill="rgb(0, 0, 0)" opacity="1" /><circle cx="95.0" cy="135.0" r="2" stroke="0" fill="rgb(0, 0, 0)" opacity="1" /><circle cx="100.0" cy="25.0" r="2" stroke="0" fill="rgb(0, 0, 0)" opacity="1" /><circle cx="100.0" cy="55.0" r="2" stroke="0" fill="rgb(0, 0, 0)" opacity="1" /><circle cx="100.0" cy="60.0" r="2" stroke="0" fill="rgb(0, 0, 0)" opacity="1" /><circle cx="100.0" cy="65.0" r="2" stroke="0" fill="rgb(0, 0, 0)" opacity="1" /><circle cx="100.0" cy="70.0" r="2" stroke="0" fill="rgb(0, 0, 0)" opacity="1" /><circle cx="100.0" cy="75.0" r="2" stroke="0" fill="rgb(0, 0, 0)" opacity="1" /><circle cx="100.0" cy="80.0" r="2" stroke="0" fill="rgb(0, 0, 0)" opacity="1" /><circle cx="100.0" cy="85.0" r="2" stroke="0" fill="rgb(0, 0, 0)" opacity="1" /><circle cx="100.0" cy="90.0" r="2" stroke="0" fill="rgb(0, 0, 0)" opacity="1" /><circle cx="100.0" cy="95.0" r="2" stroke="0" fill="rgb(0, 0, 0)" opacity="1" /><circle cx="100.0" cy="105.0" r="2" stroke="0" fill="rgb(0, 0, 0)" opacity="1" /><circle cx="100.0" cy="125.0" r="2" stroke="0" fill="rgb(0, 0, 0)" opacity="1" /><circle cx="105.0" cy="10.0" r="2" stroke="0" fill="rgb(0, 0, 0)" opacity="1" /><circle cx="105.0" cy="35.0" r="2" stroke="0" fill="rgb(0, 0, 0)" opacity="1" /><circle cx="105.0" cy="60.0" r="2" stroke="0" fill="rgb(0, 0, 0)" opacity="1" /><circle cx="105.0" cy="65.0" r="2" stroke="0" fill="rgb(0, 0, 0)" opacity="1" /><circle cx="105.0" cy="70.0" r="2" stroke="0" fill="rgb(0, 0, 0)" opacity="1" /><circle cx="105.0" cy="75.0" r="2" stroke="0" fill="rgb(0, 0, 0)" opacity="1" /><circle cx="105.0" cy="80.0" r="2" stroke="0" fill="rgb(0, 0, 0)" opacity="1" /><circle cx="105.0" cy="85.0" r="2" stroke="0" fill="rgb(0, 0, 0)" opacity="1" /><circle cx="105.0" cy="90.0" r="2" stroke="0" fill="rgb(0, 0, 0)" opacity="1" /><circle cx="105.0" cy="95.0" r="2" stroke="0" fill="rgb(0, 0, 0)" opacity="1" /><circle cx="110.0" cy="50.0" r="2" stroke="0" fill="rgb(0, 0, 0)" opacity="1" /><circle cx="110.0" cy="60.0" r="2" stroke="0" fill="rgb(0, 0, 0)" opacity="1" /><circle cx="110.0" cy="65.0" r="2" stroke="0" fill="rgb(0, 0, 0)" opacity="1" /><circle cx="110.0" cy="70.0" r="2" stroke="0" fill="rgb(0, 0, 0)" opacity="1" /><circle cx="110.0" cy="75.0" r="2" stroke="0" fill="rgb(0, 0, 0)" opacity="1" /><circle cx="110.0" cy="80.0" r="2" stroke="0" fill="rgb(0, 0, 0)" opacity="1" /><circle cx="110.0" cy="85.0" r="2" stroke="0" fill="rgb(0, 0, 0)" opacity="1" /><circle cx="110.0" cy="90.0" r="2" stroke="0" fill="rgb(0, 0, 0)" opacity="1" /><circle cx="110.0" cy="95.0" r="2" stroke="0" fill="rgb(0, 0, 0)" opacity="1" /><circle cx="110.0" cy="120.0" r="2" stroke="0" fill="rgb(0, 0, 0)" opacity="1" /><circle cx="110.0" cy="135.0" r="2" stroke="0" fill="rgb(0, 0, 0)" opacity="1" /><circle cx="115.0" cy="15.0" r="2" stroke="0" fill="rgb(0, 0, 0)" opacity="1" /><circle cx="115.0" cy="60.0" r="2" stroke="0" fill="rgb(0, 0, 0)" opacity="1" /><circle cx="115.0" cy="65.0" r="2" stroke="0" fill="rgb(0, 0, 0)" opacity="1" /><circle cx="115.0" cy="70.0" r="2" stroke="0" fill="rgb(0, 0, 0)" opacity="1" /><circle cx="115.0" cy="75.0" r="2" stroke="0" fill="rgb(0, 0, 0)" opacity="1" /><circle cx="115.0" cy="80.0" r="2" stroke="0" fill="rgb(0, 0, 0)" opacity="1" /><circle cx="115.0" cy="85.0" r="2" stroke="0" fill="rgb(0, 0, 0)" opacity="1" /><circle cx="115.0" cy="90.0" r="2" stroke="0" fill="rgb(0, 0, 0)" opacity="1" /><circle cx="115.0" cy="95.0" r="2" stroke="0" fill="rgb(0, 0, 0)" opacity="1" /><circle cx="115.0" cy="105.0" r="2" stroke="0" fill="rgb(0, 0, 0)" opacity="1" /><circle cx="115.0" cy="110.0" r="2" stroke="0" fill="rgb(0, 0, 0)" opacity="1" /><circle cx="120.0" cy="35.0" r="2" stroke="0" fill="rgb(0, 0, 0)" opacity="1" /><circle cx="120.0" cy="50.0" r="2" stroke="0" fill="rgb(0, 0, 0)" opacity="1" /><circle cx="120.0" cy="60.0" r="2" stroke="0" fill="rgb(0, 0, 0)" opacity="1" /><circle cx="120.0" cy="65.0" r="2" stroke="0" fill="rgb(0, 0, 0)" opacity="1" /><circle cx="120.0" cy="70.0" r="2" stroke="0" fill="rgb(0, 0, 0)" opacity="1" /><circle cx="120.0" cy="75.0" r="2" stroke="0" fill="rgb(0, 0, 0)" opacity="1" /><circle cx="120.0" cy="80.0" r="2" stroke="0" fill="rgb(0, 0, 0)" opacity="1" /><circle cx="120.0" cy="85.0" r="2" stroke="0" fill="rgb(0, 0, 0)" opacity="1" /><circle cx="120.0" cy="90.0" r="2" stroke="0" fill="rgb(0, 0, 0)" opacity="1" /><circle cx="120.0" cy="95.0" r="2" stroke="0" fill="rgb(0, 0, 0)" opacity="1" /><circle cx="125.0" cy="10.0" r="2" stroke="0" fill="rgb(0, 0, 0)" opacity="1" /><circle cx="125.0" cy="60.0" r="2" stroke="0" fill="rgb(0, 0, 0)" opacity="1" /><circle cx="125.0" cy="65.0" r="2" stroke="0" fill="rgb(0, 0, 0)" opacity="1" /><circle cx="125.0" cy="70.0" r="2" stroke="0" fill="rgb(0, 0, 0)" opacity="1" /><circle cx="125.0" cy="75.0" r="2" stroke="0" fill="rgb(0, 0, 0)" opacity="1" /><circle cx="125.0" cy="80.0" r="2" stroke="0" fill="rgb(0, 0, 0)" opacity="1" /><circle cx="125.0" cy="85.0" r="2" stroke="0" fill="rgb(0, 0, 0)" opacity="1" /><circle cx="125.0" cy="90.0" r="2" stroke="0" fill="rgb(0, 0, 0)" opacity="1" /><circle cx="125.0" cy="95.0" r="2" stroke="0" fill="rgb(0, 0, 0)" opacity="1" /><circle cx="125.0" cy="135.0" r="2" stroke="0" fill="rgb(0, 0, 0)" opacity="1" /><circle cx="130.0" cy="25.0" r="2" stroke="0" fill="rgb(0, 0, 0)" opacity="1" /><circle cx="130.0" cy="60.0" r="2" stroke="0" fill="rgb(0, 0, 0)" opacity="1" /><circle cx="130.0" cy="65.0" r="2" stroke="0" fill="rgb(0, 0, 0)" opacity="1" /><circle cx="130.0" cy="70.0" r="2" stroke="0" fill="rgb(0, 0, 0)" opacity="1" /><circle cx="130.0" cy="75.0" r="2" stroke="0" fill="rgb(0, 0, 0)" opacity="1" /><circle cx="130.0" cy="80.0" r="2" stroke="0" fill="rgb(0, 0, 0)" opacity="1" /><circle cx="130.0" cy="85.0" r="2" stroke="0" fill="rgb(0, 0, 0)" opacity="1" /><circle cx="130.0" cy="90.0" r="2" stroke="0" fill="rgb(0, 0, 0)" opacity="1" /><circle cx="130.0" cy="95.0" r="2" stroke="0" fill="rgb(0, 0, 0)" opacity="1" /><circle cx="130.0" cy="105.0" r="2" stroke="0" fill="rgb(0, 0, 0)" opacity="1" /><circle cx="130.0" cy="135.0" r="2" stroke="0" fill="rgb(0, 0, 0)" opacity="1" /><circle cx="135.0" cy="20.0" r="2" stroke="0" fill="rgb(0, 0, 0)" opacity="1" /><circle cx="135.0" cy="30.0" r="2" stroke="0" fill="rgb(0, 0, 0)" opacity="1" /><circle cx="135.0" cy="50.0" r="2" stroke="0" fill="rgb(0, 0, 0)" opacity="1" /><circle cx="135.0" cy="60.0" r="2" stroke="0" fill="rgb(0, 0, 0)" opacity="1" /><circle cx="135.0" cy="65.0" r="2" stroke="0" fill="rgb(0, 0, 0)" opacity="1" /><circle cx="135.0" cy="70.0" r="2" stroke="0" fill="rgb(0, 0, 0)" opacity="1" /><circle cx="135.0" cy="75.0" r="2" stroke="0" fill="rgb(0, 0, 0)" opacity="1" /><circle cx="135.0" cy="80.0" r="2" stroke="0" fill="rgb(0, 0, 0)" opacity="1" /><circle cx="135.0" cy="85.0" r="2" stroke="0" fill="rgb(0, 0, 0)" opacity="1" /><circle cx="135.0" cy="90.0" r="2" stroke="0" fill="rgb(0, 0, 0)" opacity="1" /><circle cx="135.0" cy="95.0" r="2" stroke="0" fill="rgb(0, 0, 0)" opacity="1" /><circle cx="135.0" cy="115.0" r="2" stroke="0" fill="rgb(0, 0, 0)" opacity="1" /><circle cx="135.0" cy="130.0" r="2" stroke="0" fill="rgb(0, 0, 0)" opacity="1" /><circle cx="140.0" cy="15.0" r="2" stroke="0" fill="rgb(0, 0, 0)" opacity="1" /><circle cx="140.0" cy="25.0" r="2" stroke="0" fill="rgb(0, 0, 0)" opacity="1" /><circle cx="140.0" cy="35.0" r="2" stroke="0" fill="rgb(0, 0, 0)" opacity="1" /><circle cx="140.0" cy="65.0" r="2" stroke="0" fill="rgb(0, 0, 0)" opacity="1" /><circle cx="140.0" cy="85.0" r="2" stroke="0" fill="rgb(0, 0, 0)" opacity="1" /><circle cx="140.0" cy="115.0" r="2" stroke="0" fill="rgb(0, 0, 0)" opacity="1" /><circle cx="140.0" cy="130.0" r="2" stroke="0" fill="rgb(0, 0, 0)" opacity="1" /><circle cx="145.0" cy="10.0" r="2" stroke="0" fill="rgb(0, 0, 0)" opacity="1" /><circle cx="145.0" cy="20.0" r="2" stroke="0" fill="rgb(0, 0, 0)" opacity="1" /><circle cx="145.0" cy="30.0" r="2" stroke="0" fill="rgb(0, 0, 0)" opacity="1" /><circle cx="145.0" cy="40.0" r="2" stroke="0" fill="rgb(0, 0, 0)" opacity="1" /><circle cx="145.0" cy="75.0" r="2" stroke="0" fill="rgb(0, 0, 0)" opacity="1" /><circle cx="145.0" cy="95.0" r="2" stroke="0" fill="rgb(0, 0, 0)" opacity="1" /><circle cx="145.0" cy="125.0" r="2" stroke="0" fill="rgb(0, 0, 0)" opacity="1" /><circle cx="150.0" cy="5.0" r="2" stroke="0" fill="rgb(0, 0, 0)" opacity="1" /><circle cx="150.0" cy="15.0" r="2" stroke="0" fill="rgb(0, 0, 0)" opacity="1" /><circle cx="150.0" cy="25.0" r="2" stroke="0" fill="rgb(0, 0, 0)" opacity="1" /><circle cx="150.0" cy="35.0" r="2" stroke="0" fill="rgb(0, 0, 0)" opacity="1" /><circle cx="150.0" cy="45.0" r="2" stroke="0" fill="rgb(0, 0, 0)" opacity="1" /><circle cx="150.0" cy="70.0" r="2" stroke="0" fill="rgb(0, 0, 0)" opacity="1" /><circle cx="150.0" cy="110.0" r="2" stroke="0" fill="rgb(0, 0, 0)" opacity="1" /><circle cx="155.0" cy="100.0" r="2" stroke="0" fill="rgb(0, 0, 0)" opacity="1" /><circle cx="155.0" cy="115.0" r="2" stroke="0" fill="rgb(0, 0, 0)" opacity="1" /><circle cx="155.0" cy="125.0" r="2" stroke="0" fill="rgb(0, 0, 0)" opacity="1" /><circle cx="160.0" cy="60.0" r="2" stroke="0" fill="rgb(0, 0, 0)" opacity="1" /><circle cx="160.0" cy="65.0" r="2" stroke="0" fill="rgb(0, 0, 0)" opacity="1" /><circle cx="160.0" cy="85.0" r="2" stroke="0" fill="rgb(0, 0, 0)" opacity="1" /><circle cx="160.0" cy="90.0" r="2" stroke="0" fill="rgb(0, 0, 0)" opacity="1" /><circle cx="165.0" cy="45.0" r="2" stroke="0" fill="rgb(0, 0, 0)" opacity="1" /><circle cx="165.0" cy="55.0" r="2" stroke="0" fill="rgb(0, 0, 0)" opacity="1" /><circle cx="165.0" cy="70.0" r="2" stroke="0" fill="rgb(0, 0, 0)" opacity="1" /><circle cx="165.0" cy="80.0" r="2" stroke="0" fill="rgb(0, 0, 0)" opacity="1" /><circle cx="165.0" cy="95.0" r="2" stroke="0" fill="rgb(0, 0, 0)" opacity="1" /><circle cx="170.0" cy="50.0" r="2" stroke="0" fill="rgb(0, 0, 0)" opacity="1" /><circle cx="170.0" cy="75.0" r="2" stroke="0" fill="rgb(0, 0, 0)" opacity="1" /><circle cx="170.0" cy="100.0" r="2" stroke="0" fill="rgb(0, 0, 0)" opacity="1" /><circle cx="175.0" cy="50.0" r="2" stroke="0" fill="rgb(0, 0, 0)" opacity="1" /><circle cx="175.0" cy="100.0" r="2" stroke="0" fill="rgb(0, 0, 0)" opacity="1" /><circle cx="180.0" cy="55.0" r="2" stroke="0" fill="rgb(0, 0, 0)" opacity="1" /><circle cx="180.0" cy="95.0" r="2" stroke="0" fill="rgb(0, 0, 0)" opacity="1" /><circle cx="185.0" cy="60.0" r="2" stroke="0" fill="rgb(0, 0, 0)" opacity="1" /><circle cx="185.0" cy="90.0" r="2" stroke="0" fill="rgb(0, 0, 0)" opacity="1" /><circle cx="190.0" cy="65.0" r="2" stroke="0" fill="rgb(0, 0, 0)" opacity="1" /><circle cx="190.0" cy="85.0" r="2" stroke="0" fill="rgb(0, 0, 0)" opacity="1" /><circle cx="195.0" cy="70.0" r="2" stroke="0" fill="rgb(0, 0, 0)" opacity="1" /><circle cx="195.0" cy="80.0" r="2" stroke="0" fill="rgb(0, 0, 0)" opacity="1" /><circle cx="200.0" cy="75.0" r="2" stroke="0" fill="rgb(0, 0, 0)" opacity="1" /><circle cx="15.0" cy="0.0" r="2" stroke="0" fill="rgb(255, 0, 0)" opacity="1" /><circle cx="15.0" cy="0.0" r="15.0" stroke="0" fill="rgb(255, 0, 0)" opacity="0.2" /><circle cx="15.0" cy="0.0" r="70.0" stroke="0" fill="rgb(0, 255, 0)" opacity="0.2" /><circle cx="10.0" cy="10.0" r="2" stroke="0" fill="rgb(255, 0, 0)" opacity="1" /><circle cx="10.0" cy="10.0" r="15.0" stroke="0" fill="rgb(255, 0, 0)" opacity="0.2" /><circle cx="10.0" cy="10.0" r="70.0" stroke="0" fill="rgb(0, 255, 0)" opacity="0.2" /><circle cx="190.0" cy="70.0" r="2" stroke="0" fill="rgb(255, 0, 0)" opacity="1" /><circle cx="190.0" cy="70.0" r="15.0" stroke="0" fill="rgb(255, 0, 0)" opacity="0.2" /><circle cx="190.0" cy="70.0" r="70.0" stroke="0" fill="rgb(0, 255, 0)" opacity="0.2" /><circle cx="170.0" cy="90.0" r="2" stroke="0" fill="rgb(255, 0, 0)" opacity="1" /><circle cx="170.0" cy="90.0" r="15.0" stroke="0" fill="rgb(255, 0, 0)" opacity="0.2" /><circle cx="170.0" cy="90.0" r="70.0" stroke="0" fill="rgb(0, 255, 0)" opacity="0.2" /><circle cx="5.0" cy="55.0" r="2" stroke="0" fill="rgb(255, 0, 0)" opacity="1" /><circle cx="5.0" cy="55.0" r="15.0" stroke="0" fill="rgb(255, 0, 0)" opacity="0.2" /><circle cx="5.0" cy="55.0" r="70.0" stroke="0" fill="rgb(0, 255, 0)" opacity="0.2" /><circle cx="170.0" cy="60.0" r="2" stroke="0" fill="rgb(255, 0, 0)" opacity="1" /><circle cx="170.0" cy="60.0" r="15.0" stroke="0" fill="rgb(255, 0, 0)" opacity="0.2" /><circle cx="170.0" cy="60.0" r="70.0" stroke="0" fill="rgb(0, 255, 0)" opacity="0.2" /><circle cx="155.0" cy="35.0" r="2" stroke="0" fill="rgb(255, 0, 0)" opacity="1" /><circle cx="155.0" cy="35.0" r="15.0" stroke="0" fill="rgb(255, 0, 0)" opacity="0.2" /><circle cx="155.0" cy="35.0" r="70.0" stroke="0" fill="rgb(0, 255, 0)" opacity="0.2" /><circle cx="15.0" cy="80.0" r="2" stroke="0" fill="rgb(255, 0, 0)" opacity="1" /><circle cx="15.0" cy="80.0" r="15.0" stroke="0" fill="rgb(255, 0, 0)" opacity="0.2" /><circle cx="15.0" cy="80.0" r="70.0" stroke="0" fill="rgb(0, 255, 0)" opacity="0.2" /><circle cx="35.0" cy="45.0" r="2" stroke="0" fill="rgb(255, 0, 0)" opacity="1" /><circle cx="35.0" cy="45.0" r="15.0" stroke="0" fill="rgb(255, 0, 0)" opacity="0.2" /><circle cx="35.0" cy="45.0" r="70.0" stroke="0" fill="rgb(0, 255, 0)" opacity="0.2" /><circle cx="50.0" cy="20.0" r="2" stroke="0" fill="rgb(255, 0, 0)" opacity="1" /><circle cx="50.0" cy="20.0" r="15.0" stroke="0" fill="rgb(255, 0, 0)" opacity="0.2" /><circle cx="50.0" cy="20.0" r="70.0" stroke="0" fill="rgb(0, 255, 0)" opacity="0.2" /><circle cx="45.0" cy="65.0" r="2" stroke="0" fill="rgb(255, 0, 0)" opacity="1" /><circle cx="45.0" cy="65.0" r="15.0" stroke="0" fill="rgb(255, 0, 0)" opacity="0.2" /><circle cx="45.0" cy="65.0" r="70.0" stroke="0" fill="rgb(0, 255, 0)" opacity="0.2" /><circle cx="145.0" cy="125.0" r="2" stroke="0" fill="rgb(255, 0, 0)" opacity="1" /><circle cx="145.0" cy="125.0" r="15.0" stroke="0" fill="rgb(255, 0, 0)" opacity="0.2" /><circle cx="145.0" cy="125.0" r="70.0" stroke="0" fill="rgb(0, 255, 0)" opacity="0.2" /><circle cx="75.0" cy="40.0" r="2" stroke="0" fill="rgb(255, 0, 0)" opacity="1" /><circle cx="75.0" cy="40.0" r="15.0" stroke="0" fill="rgb(255, 0, 0)" opacity="0.2" /><circle cx="75.0" cy="40.0" r="70.0" stroke="0" fill="rgb(0, 255, 0)" opacity="0.2" /><circle cx="75.0" cy="65.0" r="2" stroke="0" fill="rgb(255, 0, 0)" opacity="1" /><circle cx="75.0" cy="65.0" r="15.0" stroke="0" fill="rgb(255, 0, 0)" opacity="0.2" /><circle cx="75.0" cy="65.0" r="70.0" stroke="0" fill="rgb(0, 255, 0)" opacity="0.2" /><circle cx="90.0" cy="85.0" r="2" stroke="0" fill="rgb(255, 0, 0)" opacity="1" /><circle cx="90.0" cy="85.0" r="15.0" stroke="0" fill="rgb(255, 0, 0)" opacity="0.2" /><circle cx="90.0" cy="85.0" r="70.0" stroke="0" fill="rgb(0, 255, 0)" opacity="0.2" /><circle cx="135.0" cy="70.0" r="2" stroke="0" fill="rgb(255, 0, 0)" opacity="1" /><circle cx="135.0" cy="70.0" r="15.0" stroke="0" fill="rgb(255, 0, 0)" opacity="0.2" /><circle cx="135.0" cy="70.0" r="70.0" stroke="0" fill="rgb(0, 255, 0)" opacity="0.2" /><circle cx="135.0" cy="15.0" r="2" stroke="0" fill="rgb(255, 0, 0)" opacity="1" /><circle cx="135.0" cy="15.0" r="15.0" stroke="0" fill="rgb(255, 0, 0)" opacity="0.2" /><circle cx="135.0" cy="15.0" r="70.0" stroke="0" fill="rgb(0, 255, 0)" opacity="0.2" /><circle cx="80.0" cy="115.0" r="2" stroke="0" fill="rgb(255, 0, 0)" opacity="1" /><circle cx="80.0" cy="115.0" r="15.0" stroke="0" fill="rgb(255, 0, 0)" opacity="0.2" /><circle cx="80.0" cy="115.0" r="70.0" stroke="0" fill="rgb(0, 255, 0)" opacity="0.2" /><circle cx="160.0" cy="0.0" r="2" stroke="0" fill="rgb(255, 0, 0)" opacity="1" /><circle cx="160.0" cy="0.0" r="15.0" stroke="0" fill="rgb(255, 0, 0)" opacity="0.2" /><circle cx="160.0" cy="0.0" r="70.0" stroke="0" fill="rgb(0, 255, 0)" opacity="0.2" /><circle cx="85.0" cy="145.0" r="2" stroke="0" fill="rgb(255, 0, 0)" opacity="1" /><circle cx="85.0" cy="145.0" r="15.0" stroke="0" fill="rgb(255, 0, 0)" opacity="0.2" /><circle cx="85.0" cy="145.0" r="70.0" stroke="0" fill="rgb(0, 255, 0)" opacity="0.2" /><circle cx="100.0" cy="65.0" r="2" stroke="0" fill="rgb(255, 0, 0)" opacity="1" /><circle cx="100.0" cy="65.0" r="15.0" stroke="0" fill="rgb(255, 0, 0)" opacity="0.2" /><circle cx="100.0" cy="65.0" r="70.0" stroke="0" fill="rgb(0, 255, 0)" opacity="0.2" /><circle cx="140.0" cy="100.0" r="2" stroke="0" fill="rgb(255, 0, 0)" opacity="1" /><circle cx="140.0" cy="100.0" r="15.0" stroke="0" fill="rgb(255, 0, 0)" opacity="0.2" /><circle cx="140.0" cy="100.0" r="70.0" stroke="0" fill="rgb(0, 255, 0)" opacity="0.2" /><circle cx="120.0" cy="50.0" r="2" stroke="0" fill="rgb(255, 0, 0)" opacity="1" /><circle cx="120.0" cy="50.0" r="15.0" stroke="0" fill="rgb(255, 0, 0)" opacity="0.2" /><circle cx="120.0" cy="50.0" r="70.0" stroke="0" fill="rgb(0, 255, 0)" opacity="0.2" /><circle cx="120.0" cy="145.0" r="2" stroke="0" fill="rgb(255, 0, 0)" opacity="1" /><circle cx="120.0" cy="145.0" r="15.0" stroke="0" fill="rgb(255, 0, 0)" opacity="0.2" /><circle cx="120.0" cy="145.0" r="70.0" stroke="0" fill="rgb(0, 255, 0)" opacity="0.2" /><circle cx="105.0" cy="20.0" r="2" stroke="0" fill="rgb(255, 0, 0)" opacity="1" /><circle cx="105.0" cy="20.0" r="15.0" stroke="0" fill="rgb(255, 0, 0)" opacity="0.2" /><circle cx="105.0" cy="20.0" r="70.0" stroke="0" fill="rgb(0, 255, 0)" opacity="0.2" /><circle cx="115.0" cy="85.0" r="2" stroke="0" fill="rgb(255, 0, 0)" opacity="1" /><circle cx="115.0" cy="85.0" r="15.0" stroke="0" fill="rgb(255, 0, 0)" opacity="0.2" /><circle cx="115.0" cy="85.0" r="70.0" stroke="0" fill="rgb(0, 255, 0)" opacity="0.2" /><circle cx="110.0" cy="115.0" r="2" stroke="0" fill="rgb(255, 0, 0)" opacity="1" /><circle cx="110.0" cy="115.0" r="15.0" stroke="0" fill="rgb(255, 0, 0)" opacity="0.2" /><circle cx="110.0" cy="115.0" r="70.0" stroke="0" fill="rgb(0, 255, 0)" opacity="0.2" /></svg>