<svg width="500" height="500" xmlns="http://www.w3.org/2000/svg"><rect x="0" y="0" width="500" height="500" stroke="0" fill="rgb(255, 255, 255)" opacity="1" /><circle cx="120.0" cy="280.0" r="2" stroke="0" fill="rgb(0, 0, 0)" opacity="1" /><circle cx="95.0" cy="290.0" r="2" stroke="0" fill="rgb(0, 0, 0)" opacity="1" /><circle cx="165.0" cy="300.0" r="2" stroke="0" fill="rgb(0, 0, 0)" opacity="1" /><circle cx="105.0" cy="225.0" r="2" stroke="0" fill="rgb(0, 0, 0)" opacity="1" /><circle cx="150.0" cy="230.0" r="2" stroke="0" fill="rgb(0, 0, 0)" opacity="1" /><circle cx="145.0" cy="245.0" r="2" stroke="0" fill="rgb(0, 0, 0)" opacity="1" /><circle cx="110.0" cy="285.0" r="2" stroke="0" fill="rgb(0, 0, 0)" opacity="1" /><circle cx="60.0" cy="270.0" r="2" stroke="0" fill="rgb(0, 0, 0)" opacity="1" /><circle cx="170.0" cy="270.0" r="2" stroke="0" fill="rgb(0, 0, 0)" opacity="1" /><circle cx="80.0" cy="265.0" r="2" stroke="0" fill="rgb(0, 0, 0)" opacity="1" /><circle cx="160.0" cy="270.0" r="2" stroke="0" fill="rgb(0, 0, 0)" opacity="1" /><circle cx="85.0" cy="300.0" r="2" stroke="0" fill="rgb(0, 0, 0)" opacity="1" /><circle cx="60.0" cy="305.0" r="2" stroke="0" fill="rgb(0, 0, 0)" opacity="1" /><circle cx="175.0" cy="275.0" r="2" stroke="0" fill="rgb(0, 0, 0)" opacity="1" /><circle cx="175.0" cy="270.0" r="2" stroke="0" fill="rgb(0, 0, 0)" opacity="1" /><circle cx="90.0" cy="230.0" r="2" stroke="0" fill="rgb(0, 0, 0)" opacity="1" /><circle cx="95.0" cy="270.0" r="2" stroke="0" fill="rgb(0, 0, 0)" opacity="1" /><circle cx="140.0" cy="295.0" r="2" stroke="0" fill="rgb(0, 0, 0)" opacity="1" /><circle cx="75.0" cy="275.0" r="2" stroke="0" fill="rgb(0, 0, 0)" opacity="1" /><circle cx="100.0" cy="340.0" r="2" stroke="0" fill="rgb(0, 0, 0)" opacity="1" /><circle cx="115.0" cy="315.0" r="2" stroke="0" fill="rgb(0, 0, 0)" opacity="1" /><circle cx="180.0" cy="270.0" r="2" stroke="0" fill="rgb(0, 0, 0)" opacity="1" /><circle cx="175.0" cy="245.0" r="2" stroke="0" fill="rgb(0, 0, 0)" opacity="1" /><circle cx="140.0" cy="220.0" r="2" stroke="0" fill="rgb(0, 0, 0)" opacity="1" /><circle cx="70.0" cy="295.0" r="2" stroke="0" fill="rgb(0, 0, 0)" opacity="1" /><circle cx="150.0" cy="240.0" r="2" stroke="0" fill="rgb(0, 0, 0)" opacity="1" /><circle cx="140.0" cy="240.0" r="2" stroke="0" fill="rgb(0, 0, 0)" opacity="1" /><circle cx="155.0" cy="235.0" r="2" stroke="0" fill="rgb(0, 0, 0)" opacity="1" /><circle cx="115.0" cy="300.0" r="2" stroke="0" fill="rgb(0, 0, 0)" opacity="1" /><circle cx="100.0" cy="295.0" r="2" stroke="0" fill="rgb(0, 0, 0)" opacity="1" /><circle cx="150.0" cy="310.0" r="2" stroke="0" fill="rgb(0, 0, 0)" opacity="1" /><circle cx="165.0" cy="315.0" r="2" stroke="0" fill="rgb(0, 0, 0)" opacity="1" /><circle cx="85.0" cy="325.0" r="2" stroke="0" fill="rgb(0, 0, 0)" opacity="1" /><circle cx="135.0" cy="285.0" r="2" stroke="0" fill="rgb(0, 0, 0)" opacity="1" /><circle cx="180.0" cy="305.0" r="2" stroke="0" fill="rgb(0, 0, 0)" opacity="1" /><circle cx="170.0" cy="285.0" r="2" stroke="0" fill="rgb(0, 0, 0)" opacity="1" /><circle cx="165.0" cy="325.0" r="2" stroke="0" fill="rgb(0, 0, 0)" opacity="1" /><circle cx="65.0" cy="275.0" r="2" stroke="0" fill="rgb(0, 0, 0)" opacity="1" /><circle cx="155.0" cy="265.0" r="2" stroke="0" fill="rgb(0, 0, 0)" opacity="1" /><circle cx="100.0" cy="330.0" r="2" stroke="0" fill="rgb(0, 0, 0)" opacity="1" /><circle cx="115.0" cy="305.0" r="2" stroke="0" fill="rgb(0, 0, 0)" opacity="1" /><circle cx="155.0" cy="240.0" r="2" stroke="0" fill="rgb(0, 0, 0)" opacity="1" /><circle cx="95.0" cy="235.0" r="2" stroke="0" fill="rgb(0, 0, 0)" opacity="1" /><circle cx="165.0" cy="230.0" r="2" stroke="0" fill="rgb(0, 0, 0)" opacity="1" /><circle cx="85.0" cy="220.0" r="2" stroke="0" fill="rgb(0, 0, 0)" opacity="1" /><circle cx="115.0" cy="235.0" r="2" stroke="0" fill="rgb(0, 0, 0)" opacity="1" /><circle cx="155.0" cy="285.0" r="2" stroke="0" fill="rgb(0, 0, 0)" opacity="1" /><circle cx="65.0" cy="315.0" r="2" stroke="0" fill="rgb(0, 0, 0)" opacity="1" /><circle cx="60.0" cy="275.0" r="2" stroke="0" fill="rgb(0, 0, 0)" opacity="1" /><circle cx="90.0" cy="315.0" r="2" stroke="0" fill="rgb(0, 0, 0)" opacity="1" /><circle cx="85.0" cy="330.0" r="2" stroke="0" fill="rgb(0, 0, 0)" opacity="1" /><circle cx="125.0" cy="340.0" r="2" stroke="0" fill="rgb(0, 0, 0)" opacity="1" /><circle cx="75.0" cy="325.0" r="2" stroke="0" fill="rgb(0, 0, 0)" opacity="1" /><circle cx="110.0" cy="240.0" r="2" stroke="0" fill="rgb(0, 0, 0)" opacity="1" /><circle cx="125.0" cy="305.0" r="2" stroke="0" fill="rgb(0, 0, 0)" opacity="1" /><circle cx="145.0" cy="270.0" r="2" stroke="0" fill="rgb(0, 0, 0)" opacity="1" /><circle cx="70.0" cy="305.0" r="2" stroke="0" fill="rgb(0, 0, 0)" opacity="1" /><circle cx="95.0" cy="285.0" r="2" stroke="0" fill="rgb(0, 0, 0)" opacity="1" /><circle cx="140.0" cy="315.0" r="2" stroke="0" fill="rgb(0, 0, 0)" opacity="1" /><circle cx="125.0" cy="285.0" r="2" stroke="0" fill="rgb(0, 0, 0)" opacity="1" /><circle cx="185.0" cy="290.0" r="2" stroke="0" fill="rgb(0, 0, 0)" opacity="1" /><circle cx="160.0" cy="230.0" r="2" stroke="0" fill="rgb(0, 0, 0)" opacity="1" /><circle cx="180.0" cy="280.0" r="2" stroke="0" fill="rgb(0, 0, 0)" opacity="1" /><circle cx="95.0" cy="330.0" r="2" stroke="0" fill="rgb(0, 0, 0)" opacity="1" /><circle cx="75.0" cy="280.0" r="2" stroke="0" fill="rgb(0, 0, 0)" opacity="1" /><circle cx="55.0" cy="270.0" r="2" stroke="0" fill="rgb(0, 0, 0)" opacity="1" /><circle cx="75.0" cy="260.0" r="2" stroke="0" fill="rgb(0, 0, 0)" opacity="1" /><circle cx="105.0" cy="310.0" r="2" stroke="0" fill="rgb(0, 0, 0)" opacity="1" /><circle cx="185.0" cy="300.0" r="2" stroke="0" fill="rgb(0, 0, 0)" opacity="1" /><circle cx="70.0" cy="320.0" r="2" stroke="0" fill="rgb(0, 0, 0)" opacity="1" /><circle cx="115.0" cy="320.0" r="2" stroke="0" fill="rgb(0, 0, 0)" opacity="1" /><circle cx="95.0" cy="240.0" r="2" stroke="0" fill="rgb(0, 0, 0)" opacity="1" /><circle cx="145.0" cy="320.0" r="2" stroke="0" fill="rgb(0, 0, 0)" opacity="1" /><circle cx="140.0" cy="305.0" r="2" stroke="0" fill="rgb(0, 0, 0)" opacity="1" /><circle cx="115.0" cy="245.0" r="2" stroke="0" fill="rgb(0, 0, 0)" opacity="1" /><circle cx="150.0" cy="275.0" r="2" stroke="0" fill="rgb(0, 0, 0)" opacity="1" /><circle cx="125.0" cy="280.0" r="2" stroke="0" fill="rgb(0, 0, 0)" opacity="1" /><circle cx="105.0" cy="330.0" r="2" stroke="0" fill="rgb(0, 0, 0)" opacity="1" /><circle cx="100.0" cy="315.0" r="2" stroke="0" fill="rgb(0, 0, 0)" opacity="1" /><circle cx="165.0" cy="250.0" r="2" stroke="0" fill="rgb(0, 0, 0)" opacity="1" /><circle cx="55.0" cy="260.0" r="2" stroke="0" fill="rgb(0, 0, 0)" opacity="1" /><circle cx="155.0" cy="220.0" r="2" stroke="0" fill="rgb(0, 0, 0)" opacity="1" /><circle cx="80.0" cy="255.0" r="2" stroke="0" fill="rgb(0, 0, 0)" opacity="1" /><circle cx="95.0" cy="320.0" r="2" stroke="0" fill="rgb(0, 0, 0)" opacity="1" /><circle cx="130.0" cy="270.0" r="2" stroke="0" fill="rgb(0, 0, 0)" opacity="1" /><circle cx="135.0" cy="275.0" r="2" stroke="0" fill="rgb(0, 0, 0)" opacity="1" /><circle cx="130.0" cy="335.0" r="2" stroke="0" fill="rgb(0, 0, 0)" opacity="1" /><circle cx="95.0" cy="255.0" r="2" stroke="0" fill="rgb(0, 0, 0)" opacity="1" /><circle cx="100.0" cy="220.0" r="2" stroke="0" fill="rgb(0, 0, 0)" opacity="1" /><circle cx="135.0" cy="330.0" r="2" stroke="0" fill="rgb(0, 0, 0)" opacity="1" /><circle cx="90.0" cy="310.0" r="2" stroke="0" fill="rgb(0, 0, 0)" opacity="1" /><circle cx="60.0" cy="250.0" r="2" stroke="0" fill="rgb(0, 0, 0)" opacity="1" /><circle cx="125.0" cy="230.0" r="2" stroke="0" fill="rgb(0, 0, 0)" opacity="1" /><circle cx="105.0" cy="305.0" r="2" stroke="0" fill="rgb(0, 0, 0)" opacity="1" /><circle cx="80.0" cy="260.0" r="2" stroke="0" fill="rgb(0, 0, 0)" opacity="1" /><circle cx="140.0" cy="280.0" r="2" stroke="0" fill="rgb(0, 0, 0)" opacity="1" /><circle cx="135.0" cy="320.0" r="2" stroke="0" fill="rgb(0, 0, 0)" opacity="1" /><circle cx="80.0" cy="325.0" r="2" stroke="0" fill="rgb(0, 0, 0)" opacity="1" /><circle cx="135.0" cy="225.0" r="2" stroke="0" fill="rgb(0, 0, 0)" opacity="1" /><circle cx="180.0" cy="300.0" r="2" stroke="0" fill="rgb(0, 0, 0)" opacity="1" /><circle cx="145.0" cy="265.0" r="2" stroke="0" fill="rgb(0, 0, 0)" opacity="1" /><circle cx="130.0" cy="260.0" r="2" stroke="0" fill="rgb(0, 0, 0)" opacity="1" /><circle cx="85.0" cy="290.0" r="2" stroke="0" fill="rgb(0, 0, 0)" opacity="1" /><circle cx="80.0" cy="290.0" r="2" stroke="0" fill="rgb(0, 0, 0)" opacity="1" /><circle cx="150.0" cy="255.0" r="2" stroke="0" fill="rgb(0, 0, 0)" opacity="1" /><circle cx="170.0" cy="320.0" r="2" stroke="0" fill="rgb(0, 0, 0)" opacity="1" /><circle cx="65.0" cy="320.0" r="2" stroke="0" fill="rgb(0, 0, 0)" opacity="1" /><circle cx="180.0" cy="255.0" r="2" stroke="0" fill="rgb(0, 0, 0)" opacity="1" /><circle cx="155.0" cy="225.0" r="2" stroke="0" fill="rgb(0, 0, 0)" opacity="1" /><circle cx="115.0" cy="280.0" r="2" stroke="0" fill="rgb(0, 0, 0)" opacity="1" /><circle cx="120.0" cy="305.0" r="2" stroke="0" fill="rgb(0, 0, 0)" opacity="1" /><circle cx="135.0" cy="235.0" r="2" stroke="0" fill="rgb(0, 0, 0)" opacity="1" /><circle cx="60.0" cy="315.0" r="2" stroke="0" fill="rgb(0, 0, 0)" opacity="1" /><circle cx="135.0" cy="300.0" r="2" stroke="0" fill="rgb(0, 0, 0)" opacity="1" /><circle cx="145.0" cy="255.0" r="2" stroke="0" fill="rgb(0, 0, 0)" opacity="1" /><circle cx="115.0" cy="250.0" r="2" stroke="0" fill="rgb(0, 0, 0)" opacity="1" /><circle cx="155.0" cy="290.0" r="2" stroke="0" fill="rgb(0, 0, 0)" opacity="1" /><circle cx="125.0" cy="275.0" r="2" stroke="0" fill="rgb(0, 0, 0)" opacity="1" /><circle cx="170.0" cy="300.0" r="2" stroke="0" fill="rgb(0, 0, 0)" opacity="1" /><circle cx="160.0" cy="260.0" r="2" stroke="0" fill="rgb(0, 0, 0)" opacity="1" /><circle cx="85.0" cy="315.0" r="2" stroke="0" fill="rgb(0, 0, 0)" opacity="1" /><circle cx="55.0" cy="285.0" r="2" stroke="0" fill="rgb(0, 0, 0)" opacity="1" /><circle cx="160.0" cy="335.0" r="2" stroke="0" fill="rgb(0, 0, 0)" opacity="1" /><circle cx="185.0" cy="270.0" r="2" stroke="0" fill="rgb(0, 0, 0)" opacity="1" /><circle cx="175.0" cy="305.0" r="2" stroke="0" fill="rgb(0, 0, 0)" opacity="1" /><circle cx="145.0" cy="240.0" r="2" stroke="0" fill="rgb(0, 0, 0)" opacity="1" /><circle cx="140.0" cy="290.0" r="2" stroke="0" fill="rgb(0, 0, 0)" opacity="1" /><circle cx="125.0" cy="315.0" r="2" stroke="0" fill="rgb(0, 0, 0)" opacity="1" /><circle cx="170.0" cy="280.0" r="2" stroke="0" fill="rgb(0, 0, 0)" opacity="1" /><circle cx="125.0" cy="220.0" r="2" stroke="0" fill="rgb(0, 0, 0)" opacity="1" /><circle cx="100.0" cy="275.0" r="2" stroke="0" fill="rgb(0, 0, 0)" opacity="1" /><circle cx="105.0" cy="265.0" r="2" stroke="0" fill="rgb(0, 0, 0)" opacity="1" /><circle cx="135.0" cy="220.0" r="2" stroke="0" fill="rgb(0, 0, 0)" opacity="1" /><circle cx="165.0" cy="240.0" r="2" stroke="0" fill="rgb(0, 0, 0)" opacity="1" /><circle cx="130.0" cy="325.0" r="2" stroke="0" fill="rgb(0, 0, 0)" opacity="1" /><circle cx="115.0" cy="265.0" r="2" stroke="0" fill="rgb(0, 0, 0)" opacity="1" /><circle cx="130.0" cy="240.0" r="2" stroke="0" fill="rgb(0, 0, 0)" opacity="1" /><circle cx="105.0" cy="275.0" r="2" stroke="0" fill="rgb(0, 0, 0)" opacity="1" /><circle cx="140.0" cy="250.0" r="2" stroke="0" fill="rgb(0, 0, 0)" opacity="1" /><circle cx="105.0" cy="260.0" r="2" stroke="0" fill="rgb(0, 0, 0)" opacity="1" /><circle cx="155.0" cy="320.0" r="2" stroke="0" fill="rgb(0, 0, 0)" opacity="1" /><circle cx="120.0" cy="275.0" r="2" stroke="0" fill="rgb(0, 0, 0)" opacity="1" /><circle cx="120.0" cy="265.0" r="2" stroke="0" fill="rgb(0, 0, 0)" opacity="1" /><circle cx="170.0" cy="310.0" r="2" stroke="0" fill="rgb(0, 0, 0)" opacity="1" /><circle cx="115.0" cy="310.0" r="2" stroke="0" fill="rgb(0, 0, 0)" opacity="1" /><circle cx="70.0" cy="250.0" r="2" stroke="0" fill="rgb(0, 0, 0)" opacity="1" /><circle cx="155.0" cy="315.0" r="2" stroke="0" fill="rgb(0, 0, 0)" opacity="1" /><circle cx="125.0" cy="335.0" r="2" stroke="0" fill="rgb(0, 0, 0)" opacity="1" /><circle cx="95.0" cy="340.0" r="2" stroke="0" fill="rgb(0, 0, 0)" opacity="1" /><circle cx="80.0" cy="245.0" r="2" stroke="0" fill="rgb(0, 0, 0)" opacity="1" /><circle cx="65.0" cy="265.0" r="2" stroke="0" fill="rgb(0, 0, 0)" opacity="1" /><circle cx="150.0" cy="270.0" r="2" stroke="0" fill="rgb(0, 0, 0)" opacity="1" /><circle cx="65.0" cy="260.0" r="2" stroke="0" fill="rgb(0, 0, 0)" opacity="1" /><circle cx="70.0" cy="265.0" r="2" stroke="0" fill="rgb(0, 0, 0)" opacity="1" /><circle cx="60.0" cy="260.0" r="2" stroke="0" fill="rgb(0, 0, 0)" opacity="1" /><circle cx="70.0" cy="245.0" r="2" stroke="0" fill="rgb(0, 0, 0)" opacity="1" /><circle cx="150.0" cy="335.0" r="2" stroke="0" fill="rgb(0, 0, 0)" opacity="1" /><circle cx="100.0" cy="285.0" r="2" stroke="0" fill="rgb(0, 0, 0)" opacity="1" /><circle cx="170.0" cy="325.0" r="2" stroke="0" fill="rgb(0, 0, 0)" opacity="1" /><circle cx="165.0" cy="285.0" r="2" stroke="0" fill="rgb(0, 0, 0)" opacity="1" /><circle cx="90.0" cy="305.0" r="2" stroke="0" fill="rgb(0, 0, 0)" opacity="1" /><circle cx="175.0" cy="265.0" r="2" stroke="0" fill="rgb(0, 0, 0)" opacity="1" /><circle cx="120.0" cy="335.0" r="2" stroke="0" fill="rgb(0, 0, 0)" opacity="1" /><circle cx="140.0" cy="235.0" r="2" stroke="0" fill="rgb(0, 0, 0)" opacity="1" /><circle cx="145.0" cy="295.0" r="2" stroke="0" fill="rgb(0, 0, 0)" opacity="1" /><circle cx="120.0" cy="220.0" r="2" stroke="0" fill="rgb(0, 0, 0)" opacity="1" /><circle cx="170.0" cy="260.0" r="2" stroke="0" fill="rgb(0, 0, 0)" opacity="1" /><circle cx="60.0" cy="300.0" r="2" stroke="0" fill="rgb(0, 0, 0)" opacity="1" /><circle cx="85.0" cy="225.0" r="2" stroke="0" fill="rgb(0, 0, 0)" opacity="1" /><circle cx="65.0" cy="295.0" r="2" stroke="0" fill="rgb(0, 0, 0)" opacity="1" /><circle cx="145.0" cy="250.0" r="2" stroke="0" fill="rgb(0, 0, 0)" opacity="1" /><circle cx="105.0" cy="285.0" r="2" stroke="0" fill="rgb(0, 0, 0)" opacity="1" /><circle cx="110.0" cy="280.0" r="2" stroke="0" fill="rgb(0, 0, 0)" opacity="1" /><circle cx="95.0" cy="335.0" r="2" stroke="0" fill="rgb(0, 0, 0)" opacity="1" /><circle cx="170.0" cy="290.0" r="2" stroke="0" fill="rgb(0, 0, 0)" opacity="1" /><circle cx="75.0" cy="265.0" r="2" stroke="0" fill="rgb(0, 0, 0)" opacity="1" /><circle cx="80.0" cy="310.0" r="2" stroke="0" fill="rgb(0, 0, 0)" opacity="1" /><circle cx="130.0" cy="305.0" r="2" stroke="0" fill="rgb(0, 0, 0)" opacity="1" /><circle cx="175.0" cy="260.0" r="2" stroke="0" fill="rgb(0, 0, 0)" opacity="1" /><circle cx="55.0" cy="255.0" r="2" stroke="0" fill="rgb(0, 0, 0)" opacity="1" /><circle cx="120.0" cy="285.0" r="2" stroke="0" fill="rgb(0, 0, 0)" opacity="1" /><circle cx="130.0" cy="295.0" r="2" stroke="0" fill="rgb(0, 0, 0)" opacity="1" /><circle cx="135.0" cy="340.0" r="2" stroke="0" fill="rgb(0, 0, 0)" opacity="1" /><circle cx="95.0" cy="305.0" r="2" stroke="0" fill="rgb(0, 0, 0)" opacity="1" /><circle cx="125.0" cy="265.0" r="2" stroke="0" fill="rgb(0, 0, 0)" opacity="1" /><circle cx="60.0" cy="280.0" r="2" stroke="0" fill="rgb(0, 0, 0)" opacity="1" /><circle cx="145.0" cy="275.0" r="2" stroke="0" fill="rgb(0, 0, 0)" opacity="1" /><circle cx="115.0" cy="270.0" r="2" stroke="0" fill="rgb(0, 0, 0)" opacity="1" /><circle cx="85.0" cy="255.0" r="2" stroke="0" fill="rgb(0, 0, 0)" opacity="1" /><circle cx="155.0" cy="330.0" r="2" stroke="0" fill="rgb(0, 0, 0)" opacity="1" /><circle cx="130.0" cy="290.0" r="2" stroke="0" fill="rgb(0, 0, 0)" opacity="1" /><circle cx="180.0" cy="285.0" r="2" stroke="0" fill="rgb(0, 0, 0)" opacity="1" /><circle cx="60.0" cy="255.0" r="2" stroke="0" fill="rgb(0, 0, 0)" opacity="1" /><circle cx="105.0" cy="295.0" r="2" stroke="0" fill="rgb(0, 0, 0)" opacity="1" /><circle cx="150.0" cy="265.0" r="2" stroke="0" fill="rgb(0, 0, 0)" opacity="1" /><circle cx="150.0" cy="235.0" r="2" stroke="0" fill="rgb(0, 0, 0)" opacity="1" /><circle cx="105.0" cy="230.0" r="2" stroke="0" fill="rgb(0, 0, 0)" opacity="1" /><circle cx="115.0" cy="325.0" r="2" stroke="0" fill="rgb(0, 0, 0)" opacity="1" /><circle cx="120.0" cy="345.0" r="2" stroke="0" fill="rgb(0, 0, 0)" opacity="1" /><circle cx="110.0" cy="325.0" r="2" stroke="0" fill="rgb(0, 0, 0)" opacity="1" /><circle cx="110.0" cy="320.0" r="2" stroke="0" fill="rgb(0, 0, 0)" opacity="1" /><circle cx="115.0" cy="275.0" r="2" stroke="0" fill="rgb(255, 0, 0)" opacity="1" /><circle cx="115.0" cy="275.0" r="15.0" stroke="0" fill="rgb(255, 0, 0)" opacity="0.2" /><circle cx="115.0" cy="275.0" r="70.0" stroke="0" fill="rgb(0, 255, 0)" opacity="0.2" /><circle cx="95.0" cy="305.0" r="2" stroke="0" fill="rgb(255, 0, 0)" opacity="1" /><circle cx="95.0" cy="305.0" r="15.0" stroke="0" fill="rgb(255, 0, 0)" opacity="0.2" /><circle cx="95.0" cy="305.0" r="70.0" stroke="0" fill="rgb(0, 255, 0)" opacity="0.2" /><circle cx="175.0" cy="290.0" r="2" stroke="0" fill="rgb(255, 0, 0)" opacity="1" /><circle cx="175.0" cy="290.0" r="15.0" stroke="0" fill="rgb(255, 0, 0)" opacity="0.2" /><circle cx="175.0" cy="290.0" r="70.0" stroke="0" fill="rgb(0, 255, 0)" opacity="0.2" /><circle cx="90.0" cy="230.0" r="2" stroke="0" fill="rgb(255, 0, 0)" opacity="1" /><circle cx="90.0" cy="230.0" r="15.0" stroke="0" fill="rgb(255, 0, 0)" opacity="0.2" /><circle cx="90.0" cy="230.0" r="70.0" stroke="0" fill="rgb(0, 255, 0)" opacity="0.2" /><circle cx="145.0" cy="225.0" r="2" stroke="0" fill="rgb(255, 0, 0)" opacity="1" /><circle cx="145.0" cy="225.0" r="15.0" stroke="0" fill="rgb(255, 0, 0)" opacity="0.2" /><circle cx="145.0" cy="225.0" r="70.0" stroke="0" fill="rgb(0, 255, 0)" opacity="0.2" /><circle cx="45.0" cy="265.0" r="2" stroke="0" fill="rgb(255, 0, 0)" opacity="1" /><circle cx="45.0" cy="265.0" r="15.0" stroke="0" fill="rgb(255, 0, 0)" opacity="0.2" /><circle cx="45.0" cy="265.0" r="70.0" stroke="0" fill="rgb(0, 255, 0)" opacity="0.2" /><circle cx="160.0" cy="255.0" r="2" stroke="0" fill="rgb(255, 0, 0)" opacity="1" /><circle cx="160.0" cy="255.0" r="15.0" stroke="0" fill="rgb(255, 0, 0)" opacity="0.2" /><circle cx="160.0" cy="255.0" r="70.0" stroke="0" fill="rgb(0, 255, 0)" opacity="0.2" /><circle cx="70.0" cy="315.0" r="2" stroke="0" fill="rgb(255, 0, 0)" opacity="1" /><circle cx="70.0" cy="315.0" r="15.0" stroke="0" fill="rgb(255, 0, 0)" opacity="0.2" /><circle cx="70.0" cy="315.0" r="70.0" stroke="0" fill="rgb(0, 255, 0)" opacity="0.2" /><circle cx="175.0" cy="260.0" r="2" stroke="0" fill="rgb(255, 0, 0)" opacity="1" /><circle cx="175.0" cy="260.0" r="15.0" stroke="0" fill="rgb(255, 0, 0)" opacity="0.2" /><circle cx="175.0" cy="260.0" r="70.0" stroke="0" fill="rgb(0, 255, 0)" opacity="0.2" /><circle cx="85.0" cy="285.0" r="2" stroke="0" fill="rgb(255, 0, 0)" opacity="1" /><circle cx="85.0" cy="285.0" r="15.0" stroke="0" fill="rgb(255, 0, 0)" opacity="0.2" /><circle cx="85.0" cy="285.0" r="70.0" stroke="0" fill="rgb(0, 255, 0)" opacity="0.2" /><circle cx="130.0" cy="300.0" r="2" stroke="0" fill="rgb(255, 0, 0)" opacity="1" /><circle cx="130.0" cy="300.0" r="15.0" stroke="0" fill="rgb(255, 0, 0)" opacity="0.2" /><circle cx="130.0" cy="300.0" r="70.0" stroke="0" fill="rgb(0, 255, 0)" opacity="0.2" /><circle cx="110.0" cy="335.0" r="2" stroke="0" fill="rgb(255, 0, 0)" opacity="1" /><circle cx="110.0" cy="335.0" r="15.0" stroke="0" fill="rgb(255, 0, 0)" opacity="0.2" /><circle cx="110.0" cy="335.0" r="70.0" stroke="0" fill="rgb(0, 255, 0)" opacity="0.2" /><circle cx="125.0" cy="315.0" r="2" stroke="0" fill="rgb(255, 0, 0)" opacity="1" /><circle cx="125.0" cy="315.0" r="15.0" stroke="0" fill="rgb(255, 0, 0)" opacity="0.2" /><circle cx="125.0" cy="315.0" r="70.0" stroke="0" fill="rgb(0, 255, 0)" opacity="0.2" /><circle cx="60.0" cy="285.0" r="2" stroke="0" fill="rgb(255, 0, 0)" opacity="1" /><circle cx="60.0" cy="285.0" r="15.0" stroke="0" fill="rgb(255, 0, 0)" opacity="0.2" /><circle cx="60.0" cy="285.0" r="70.0" stroke="0" fill="rgb(0, 255, 0)" opacity="0.2" /><circle cx="160.0" cy="320.0" r="2" stroke="0" fill="rgb(255, 0, 0)" opacity="1" /><circle cx="160.0" cy="320.0" r="15.0" stroke="0" fill="rgb(255, 0, 0)" opacity="0.2" /><circle cx="160.0" cy="320.0" r="70.0" stroke="0" fill="rgb(0, 255, 0)" opacity="0.2" /><circle cx="85.0" cy="340.0" r="2" stroke="0" fill="rgb(255, 0, 0)" opacity="1" /><circle cx="85.0" cy="340.0" r="15.0" stroke="0" fill="rgb(255, 0, 0)" opacity="0.2" /><circle cx="85.0" cy="340.0" r="70.0" stroke="0" fill="rgb(0, 255, 0)" opacity="0.2" /><circle cx="145.0" cy="280.0" r="2" stroke="0" fill="rgb(255, 0, 0)" opacity="1" /><circle cx="145.0" cy="280.0" r="15.0" stroke="0" fill="rgb(255, 0, 0)" opacity="0.2" /><circle cx="145.0" cy="280.0" r="70.0" stroke="0" fill="rgb(0, 255, 0)" opacity="0.2" /><circle cx="195.0" cy="305.0" r="2" stroke="0" fill="rgb(255, 0, 0)" opacity="1" /><circle cx="195.0" cy="305.0" r="15.0" stroke="0" fill="rgb(255, 0, 0)" opacity="0.2" /><circle cx="195.0" cy="305.0" r="70.0" stroke="0" fill="rgb(0, 255, 0)" opacity="0.2" /><circle cx="155.0" cy="240.0" r="2" stroke="0" fill="rgb(255, 0, 0)" opacity="1" /><circle cx="155.0" cy="240.0" r="15.0" stroke="0" fill="rgb(255, 0, 0)" opacity="0.2" /><circle cx="155.0" cy="240.0" r="70.0" stroke="0" fill="rgb(0, 255, 0)" opacity="0.2" /><circle cx="115.0" cy="230.0" r="2" stroke="0" fill="rgb(255, 0, 0)" opacity="1" /><circle cx="115.0" cy="230.0" r="15.0" stroke="0" fill="rgb(255, 0, 0)" opacity="0.2" /><circle cx="115.0" cy="230.0" r="70.0" stroke="0" fill="rgb(0, 255, 0)" opacity="0.2" /><circle cx="140.0" cy="340.0" r="2" stroke="0" fill="rgb(255, 0, 0)" opacity="1" /><circle cx="140.0" cy="340.0" r="15.0" stroke="0" fill="rgb(255, 0, 0)" opacity="0.2" /><circle cx="140.0" cy="340.0" r="70.0" stroke="0" fill="rgb(0, 255, 0)" opacity="0.2" /><circle cx="70.0" cy="255.0" r="2" stroke="0" fill="rgb(255, 0, 0)" opacity="1" /><circle cx="70.0" cy="255.0" r="15.0" stroke="0" fill="rgb(255, 0, 0)" opacity="0.2" /><circle cx="70.0" cy="255.0" r="70.0" stroke="0" fill="rgb(0, 255, 0)" opacity="0.2" /><circle cx="130.0" cy="255.0" r="2" stroke="0" fill="rgb(255, 0, 0)" opacity="1" /><circle cx="130.0" cy="255.0" r="15.0" stroke="0" fill="rgb(255, 0, 0)" opacity="0.2" /><circle cx="130.0" cy="255.0" r="70.0" stroke="0" fill="rgb(0, 255, 0)" opacity="0.2" /><circle cx="105.0" cy="260.0" r="2" stroke="0" fill="rgb(255, 0, 0)" opacity="1" /><circle cx="105.0" cy="260.0" r="15.0" stroke="0" fill="rgb(255, 0, 0)" opacity="0.2" /><circle cx="105.0" cy="260.0" r="70.0" stroke="0" fill="rgb(0, 255, 0)" opacity="0.2" /></svg>