<svg width="500" height="500" xmlns="http://www.w3.org/2000/svg"><rect x="0" y="0" width="500" height="500" stroke="0" fill="rgb(255, 255, 255)" opacity="1" /><circle cx="30.0" cy="10.0" r="2" stroke="0" fill="rgb(0, 0, 0)" opacity="1" /><circle cx="30.0" cy="50.0" r="2" stroke="0" fill="rgb(0, 0, 0)" opacity="1" /><circle cx="30.0" cy="90.0" r="2" stroke="0" fill="rgb(0, 0, 0)" opacity="1" /><circle cx="30.0" cy="130.0" r="2" stroke="0" fill="rgb(0, 0, 0)" opacity="1" /><circle cx="30.0" cy="170.0" r="2" stroke="0" fill="rgb(0, 0, 0)" opacity="1" /><circle cx="30.0" cy="210.0" r="2" stroke="0" fill="rgb(0, 0, 0)" opacity="1" /><circle cx="30.0" cy="250.0" r="2" stroke="0" fill="rgb(0, 0, 0)" opacity="1" /><circle cx="30.0" cy="290.0" r="2" stroke="0" fill="rgb(0, 0, 0)" opacity="1" /><circle cx="30.0" cy="330.0" r="2" stroke="0" fill="rgb(0, 0, 0)" opacity="1" /><circle cx="30.0" cy="370.0" r="2" stroke="0" fill="rgb(0, 0, 0)" opacity="1" /><circle cx="30.0" cy="410.0" r="2" stroke="0" fill="rgb(0, 0, 0)" opacity="1" /><circle cx="30.0" cy="450.0" r="2" stroke="0" fill="rgb(0, 0, 0)" opacity="1" /><circle cx="30.0" cy="490.0" r="2" stroke="0" fill="rgb(0, 0, 0)" opacity="1" /><circle cx="90.0" cy="10.0" r="2" stroke="0" fill="rgb(0, 0, 0)" opacity="1" /><circle cx="90.0" cy="50.0" r="2" stroke="0" fill="rgb(0, 0, 0)" opacity="1" /><circle cx="90.0" cy="90.0" r="2" stroke="0" fill="rgb(0, 0, 0)" opacity="1" /><circle cx="90.0" cy="130.0" r="2" stroke="0" fill="rgb(0, 0, 0)" opacity="1" /><circle cx="90.0" cy="170.0" r="2" stroke="0" fill="rgb(0, 0, 0)" opacity="1" /><circle cx="90.0" cy="210.0" r="2" stroke="0" fill="rgb(0, 0, 0)" opacity="1" /><circle cx="90.0" cy="250.0" r="2" stroke="0" fill="rgb(0, 0, 0)" opacity="1" /><circle cx="90.0" cy="290.0" r="2" stroke="0" fill="rgb(0, 0, 0)" opacity="1" /><circle cx="90.0" cy="330.0" r="2" stroke="0" fill="rgb(0, 0, 0)" opacity="1" /><circle cx="90.0" cy="370.0" r="2" stroke="0" fill="rgb(0, 0, 0)" opacity="1" /><circle cx="90.0" cy="410.0" r="2" stroke="0" fill="rgb(0, 0, 0)" opacity="1" /><circle cx="90.0" cy="450.0" r="2" stroke="0" fill="rgb(0, 0, 0)" opacity="1" /><circle cx="90.0" cy="490.0" r="2" stroke="0" fill="rgb(0, 0, 0)" opacity="1" /><circle cx="410.0" cy="10.0" r="2" stroke="0" fill="rgb(0, 0, 0)" opacity="1" /><circle cx="410.0" cy="50.0" r="2" stroke="0" fill="rgb(0, 0, 0)" opacity="1" /><circle cx="410.0" cy="90.0" r="2" stroke="0" fill="rgb(0, 0, 0)" opacity="1" /><circle cx="410.0" cy="130.0" r="2" stroke="0" fill="rgb(0, 0, 0)" opacity="1" /><circle cx="410.0" cy="170.0" r="2" stroke="0" fill="rgb(0, 0, 0)" opacity="1" /><circle cx="410.0" cy="210.0" r="2" stroke="0" fill="rgb(0, 0, 0)" opacity="1" /><circle cx="410.0" cy="250.0" r="2" stroke="0" fill="rgb(0, 0, 0)" opacity="1" /><circle cx="410.0" cy="290.0" r="2" stroke="0" fill="rgb(0, 0, 0)" opacity="1" /><circle cx="410.0" cy="330.0" r="2" stroke="0" fill="rgb(0, 0, 0)" opacity="1" /><circle cx="410.0" cy="370.0" r="2" stroke="0" fill="rgb(0, 0, 0)" opacity="1" /><circle cx="410.0" cy="410.0" r="2" stroke="0" fill="rgb(0, 0, 0)" opacity="1" /><circle cx="410.0" cy="450.0" r="2" stroke="0" fill="rgb(0, 0, 0)" opacity="1" /><circle cx="410.0" cy="490.0" r="2" stroke="0" fill="rgb(0, 0, 0)" opacity="1" /><circle cx="470.0" cy="10.0" r="2" stroke="0" fill="rgb(0, 0, 0)" opacity="1" /><circle cx="470.0" cy="50.0" r="2" stroke="0" fill="rgb(0, 0, 0)" opacity="1" /><circle cx="470.0" cy="90.0" r="2" stroke="0" fill="rgb(0, 0, 0)" opacity="1" /><circle cx="470.0" cy="130.0" r="2" stroke="0" fill="rgb(0, 0, 0)" opacity="1" /><circle cx="470.0" cy="170.0" r="2" stroke="0" fill="rgb(0, 0, 0)" opacity="1" /><circle cx="470.0" cy="210.0" r="2" stroke="0" fill="rgb(0, 0, 0)" opacity="1" /><circle cx="470.0" cy="250.0" r="2" stroke="0" fill="rgb(0, 0, 0)" opacity="1" /><circle cx="470.0" cy="290.0" r="2" stroke="0" fill="rgb(0, 0, 0)" opacity="1" /><circle cx="470.0" cy="330.0" r="2" stroke="0" fill="rgb(0, 0, 0)" opacity="1" /><circle cx="470.0" cy="370.0" r="2" stroke="0" fill="rgb(0, 0, 0)" opacity="1" /><circle cx="470.0" cy="410.0" r="2" stroke="0" fill="rgb(0, 0, 0)" opacity="1" /><circle cx="470.0" cy="450.0" r="2" stroke="0" fill="rgb(0, 0, 0)" opacity="1" /><circle cx="470.0" cy="490.0" r="2" stroke="0" fill="rgb(0, 0, 0)" opacity="1" /><circle cx="50.0" cy="30.0" r="2" stroke="0" fill="rgb(255, 0, 0)" opacity="1" /><circle cx="50.0" cy="30.0" r="30.0" stroke="0" fill="rgb(255, 0, 0)" opacity="0.2" /><circle cx="50.0" cy="30.0" r="100.0" stroke="0" fill="rgb(0, 255, 0)" opacity="0.2" /><circle cx="60.0" cy="90.0" r="2" stroke="0" fill="rgb(255, 0, 0)" opacity="1" /><circle cx="60.0" cy="90.0" r="30.0" stroke="0" fill="rgb(255, 0, 0)" opacity="0.2" /><circle cx="60.0" cy="90.0" r="100.0" stroke="0" fill="rgb(0, 255, 0)" opacity="0.2" /><circle cx="440.0" cy="490.0" r="2" stroke="0" fill="rgb(255, 0, 0)" opacity="1" /><circle cx="440.0" cy="490.0" r="30.0" stroke="0" fill="rgb(255, 0, 0)" opacity="0.2" /><circle cx="440.0" cy="490.0" r="100.0" stroke="0" fill="rgb(0, 255, 0)" opacity="0.2" /><circle cx="60.0" cy="130.0" r="2" stroke="0" fill="rgb(255, 0, 0)" opacity="1" /><circle cx="60.0" cy="130.0" r="30.0" stroke="0" fill="rgb(255, 0, 0)" opacity="0.2" /><circle cx="60.0" cy="130.0" r="100.0" stroke="0" fill="rgb(0, 255, 0)" opacity="0.2" /><circle cx="10.0" cy="190.0" r="2" stroke="0" fill="rgb(255, 0, 0)" opacity="1" /><circle cx="10.0" cy="190.0" r="30.0" stroke="0" fill="rgb(255, 0, 0)" opacity="0.2" /><circle cx="10.0" cy="190.0" r="100.0" stroke="0" fill="rgb(0, 255, 0)" opacity="0.2" /><circle cx="30.0" cy="270.0" r="2" stroke="0" fill="rgb(255, 0, 0)" opacity="1" /><circle cx="30.0" cy="270.0" r="30.0" stroke="0" fill="rgb(255, 0, 0)" opacity="0.2" /><circle cx="30.0" cy="270.0" r="100.0" stroke="0" fill="rgb(0, 255, 0)" opacity="0.2" /><circle cx="10.0" cy="350.0" r="2" stroke="0" fill="rgb(255, 0, 0)" opacity="1" /><circle cx="10.0" cy="350.0" r="30.0" stroke="0" fill="rgb(255, 0, 0)" opacity="0.2" /><circle cx="10.0" cy="350.0" r="100.0" stroke="0" fill="rgb(0, 255, 0)" opacity="0.2" /><circle cx="30.0" cy="440.0" r="2" stroke="0" fill="rgb(255, 0, 0)" opacity="1" /><circle cx="30.0" cy="440.0" r="30.0" stroke="0" fill="rgb(255, 0, 0)" opacity="0.2" /><circle cx="30.0" cy="440.0" r="100.0" stroke="0" fill="rgb(0, 255, 0)" opacity="0.2" /><circle cx="60.0" cy="490.0" r="2" stroke="0" fill="rgb(255, 0, 0)" opacity="1" /><circle cx="60.0" cy="490.0" r="30.0" stroke="0" fill="rgb(255, 0, 0)" opacity="0.2" /><circle cx="60.0" cy="490.0" r="100.0" stroke="0" fill="rgb(0, 255, 0)" opacity="0.2" /><circle cx="90.0" cy="20.0" r="2" stroke="0" fill="rgb(255, 0, 0)" opacity="1" /><circle cx="90.0" cy="20.0" r="30.0" stroke="0" fill="rgb(255, 0, 0)" opacity="0.2" /><circle cx="90.0" cy="20.0" r="100.0" stroke="0" fill="rgb(0, 255, 0)" opacity="0.2" /><circle cx="110.0" cy="190.0" r="2" stroke="0" fill="rgb(255, 0, 0)" opacity="1" /><circle cx="110.0" cy="190.0" r="30.0" stroke="0" fill="rgb(255, 0, 0)" opacity="0.2" /><circle cx="110.0" cy="190.0" r="100.0" stroke="0" fill="rgb(0, 255, 0)" opacity="0.2" /><circle cx="450.0" cy="430.0" r="2" stroke="0" fill="rgb(255, 0, 0)" opacity="1" /><circle cx="450.0" cy="430.0" r="30.0" stroke="0" fill="rgb(255, 0, 0)" opacity="0.2" /><circle cx="450.0" cy="430.0" r="100.0" stroke="0" fill="rgb(0, 255, 0)" opacity="0.2" /><circle cx="440.0" cy="370.0" r="2" stroke="0" fill="rgb(255, 0, 0)" opacity="1" /><circle cx="440.0" cy="370.0" r="30.0" stroke="0" fill="rgb(255, 0, 0)" opacity="0.2" /><circle cx="440.0" cy="370.0" r="100.0" stroke="0" fill="rgb(0, 255, 0)" opacity="0.2" /><circle cx="440.0" cy="330.0" r="2" stroke="0" fill="rgb(255, 0, 0)" opacity="1" /><circle cx="440.0" cy="330.0" r="30.0" stroke="0" fill="rgb(255, 0, 0)" opacity="0.2" /><circle cx="440.0" cy="330.0" r="100.0" stroke="0" fill="rgb(0, 255, 0)" opacity="0.2" /><circle cx="90.0" cy="270.0" r="2" stroke="0" fill="rgb(255, 0, 0)" opacity="1" /><circle cx="90.0" cy="270.0" r="30.0" stroke="0" fill="rgb(255, 0, 0)" opacity="0.2" /><circle cx="90.0" cy="270.0" r="100.0" stroke="0" fill="rgb(0, 255, 0)" opacity="0.2" /><circle cx="480.0" cy="270.0" r="2" stroke="0" fill="rgb(255, 0, 0)" opacity="1" /><circle cx="480.0" cy="270.0" r="30.0" stroke="0" fill="rgb(255, 0, 0)" opacity="0.2" /><circle cx="480.0" cy="270.0" r="100.0" stroke="0" fill="rgb(0, 255, 0)" opacity="0.2" /><circle cx="470.0" cy="200.0" r="2" stroke="0" fill="rgb(255, 0, 0)" opacity="1" /><circle cx="470.0" cy="200.0" r="30.0" stroke="0" fill="rgb(255, 0, 0)" opacity="0.2" /><circle cx="470.0" cy="200.0" r="100.0" stroke="0" fill="rgb(0, 255, 0)" opacity="0.2" /><circle cx="440.0" cy="130.0" r="2" stroke="0" fill="rgb(255, 0, 0)" opacity="1" /><circle cx="440.0" cy="130.0" r="30.0" stroke="0" fill="rgb(255, 0, 0)" opacity="0.2" /><circle cx="440.0" cy="130.0" r="100.0" stroke="0" fill="rgb(0, 255, 0)" opacity="0.2" /><circle cx="440.0" cy="90.0" r="2" stroke="0" fill="rgb(255, 0, 0)" opacity="1" /><circle cx="440.0" cy="90.0" r="30.0" stroke="0" fill="rgb(255, 0, 0)" opacity="0.2" /><circle cx="440.0" cy="90.0" r="100.0" stroke="0" fill="rgb(0, 255, 0)" opacity="0.2" /><circle cx="470.0" cy="30.0" r="2" stroke="0" fill="rgb(255, 0, 0)" opacity="1" /><circle cx="470.0" cy="30.0" r="30.0" stroke="0" fill="rgb(255, 0, 0)" opacity="0.2" /><circle cx="470.0" cy="30.0" r="100.0" stroke="0" fill="rgb(0, 255, 0)" opacity="0.2" /><circle cx="410.0" cy="440.0" r="2" stroke="0" fill="rgb(255, 0, 0)" opacity="1" /><circle cx="410.0" cy="440.0" r="30.0" stroke="0" fill="rgb(255, 0, 0)" opacity="0.2" /><circle cx="410.0" cy="440.0" r="100.0" stroke="0" fill="rgb(0, 255, 0)" opacity="0.2" /><circle cx="100.0" cy="350.0" r="2" stroke="0" fill="rgb(255, 0, 0)" opacity="1" /><circle cx="100.0" cy="350.0" r="30.0" stroke="0" fill="rgb(255, 0, 0)" opacity="0.2" /><circle cx="100.0" cy="350.0" r="100.0" stroke="0" fill="rgb(0, 255, 0)" opacity="0.2" /><circle cx="110.0" cy="430.0" r="2" stroke="0" fill="rgb(255, 0, 0)" opacity="1" /><circle cx="110.0" cy="430.0" r="30.0" stroke="0" fill="rgb(255, 0, 0)" opacity="0.2" /><circle cx="110.0" cy="430.0" r="100.0" stroke="0" fill="rgb(0, 255, 0)" opacity="0.2" /><circle cx="430.0" cy="30.0" r="2" stroke="0" fill="rgb(255, 0, 0)" opacity="1" /><circle cx="430.0" cy="30.0" r="30.0" stroke="0" fill="rgb(255, 0, 0)" opacity="0.2" /><circle cx="430.0" cy="30.0" r="100.0" stroke="0" fill="rgb(0, 255, 0)" opacity="0.2" /><circle cx="390.0" cy="270.0" r="2" stroke="0" fill="rgb(255, 0, 0)" opacity="1" /><circle cx="390.0" cy="270.0" r="30.0" stroke="0" fill="rgb(255, 0, 0)" opacity="0.2" /><circle cx="390.0" cy="270.0" r="100.0" stroke="0" fill="rgb(0, 255, 0)" opacity="0.2" /><circle cx="400.0" cy="190.0" r="2" stroke="0" fill="rgb(255, 0, 0)" opacity="1" /><circle cx="400.0" cy="190.0" r="30.0" stroke="0" fill="rgb(255, 0, 0)" opacity="0.2" /><circle cx="400.0" cy="190.0" r="100.0" stroke="0" fill="rgb(0, 255, 0)" opacity="0.2" /></svg>