<svg width="500" height="500" xmlns="http://www.w3.org/2000/svg"><rect x="0" y="0" width="500" height="500" stroke="0" fill="rgb(255, 255, 255)" opacity="1" /><circle cx="0.0" cy="0.0" r="2" stroke="0" fill="rgb(0, 0, 0)" opacity="1" /><circle cx="0.0" cy="50.0" r="2" stroke="0" fill="rgb(0, 0, 0)" opacity="1" /><circle cx="0.0" cy="100.0" r="2" stroke="0" fill="rgb(0, 0, 0)" opacity="1" /><circle cx="0.0" cy="150.0" r="2" stroke="0" fill="rgb(0, 0, 0)" opacity="1" /><circle cx="0.0" cy="200.0" r="2" stroke="0" fill="rgb(0, 0, 0)" opacity="1" /><circle cx="0.0" cy="250.0" r="2" stroke="0" fill="rgb(0, 0, 0)" opacity="1" /><circle cx="0.0" cy="300.0" r="2" stroke="0" fill="rgb(0, 0, 0)" opacity="1" /><circle cx="0.0" cy="350.0" r="2" stroke="0" fill="rgb(0, 0, 0)" opacity="1" /><circle cx="0.0" cy="400.0" r="2" stroke="0" fill="rgb(0, 0, 0)" opacity="1" /><circle cx="0.0" cy="450.0" r="2" stroke="0" fill="rgb(0, 0, 0)" opacity="1" /><circle cx="0.0" cy="490.0" r="2" stroke="0" fill="rgb(0, 0, 0)" opacity="1" /><circle cx="50.0" cy="0.0" r="2" stroke="0" fill="rgb(0, 0, 0)" opacity="1" /><circle cx="50.0" cy="50.0" r="2" stroke="0" fill="rgb(0, 0, 0)" opacity="1" /><circle cx="50.0" cy="100.0" r="2" stroke="0" fill="rgb(0, 0, 0)" opacity="1" /><circle cx="50.0" cy="150.0" r="2" stroke="0" fill="rgb(0, 0, 0)" opacity="1" /><circle cx="50.0" cy="200.0" r="2" stroke="0" fill="rgb(0, 0, 0)" opacity="1" /><circle cx="50.0" cy="250.0" r="2" stroke="0" fill="rgb(0, 0, 0)" opacity="1" /><circle cx="50.0" cy="300.0" r="2" stroke="0" fill="rgb(0, 0, 0)" opacity="1" /><circle cx="50.0" cy="350.0" r="2" stroke="0" fill="rgb(0, 0, 0)" opacity="1" /><circle cx="50.0" cy="400.0" r="2" stroke="0" fill="rgb(0, 0, 0)" opacity="1" /><circle cx="50.0" cy="450.0" r="2" stroke="0" fill="rgb(0, 0, 0)" opacity="1" /><circle cx="50.0" cy="490.0" r="2" stroke="0" fill="rgb(0, 0, 0)" opacity="1" /><circle cx="100.0" cy="0.0" r="2" stroke="0" fill="rgb(0, 0, 0)" opacity="1" /><circle cx="100.0" cy="50.0" r="2" stroke="0" fill="rgb(0, 0, 0)" opacity="1" /><circle cx="100.0" cy="100.0" r="2" stroke="0" fill="rgb(0, 0, 0)" opacity="1" /><circle cx="100.0" cy="150.0" r="2" stroke="0" fill="rgb(0, 0, 0)" opacity="1" /><circle cx="100.0" cy="200.0" r="2" stroke="0" fill="rgb(0, 0, 0)" opacity="1" /><circle cx="100.0" cy="250.0" r="2" stroke="0" fill="rgb(0, 0, 0)" opacity="1" /><circle cx="100.0" cy="300.0" r="2" stroke="0" fill="rgb(0, 0, 0)" opacity="1" /><circle cx="100.0" cy="350.0" r="2" stroke="0" fill="rgb(0, 0, 0)" opacity="1" /><circle cx="100.0" cy="400.0" r="2" stroke="0" fill="rgb(0, 0, 0)" opacity="1" /><circle cx="100.0" cy="450.0" r="2" stroke="0" fill="rgb(0, 0, 0)" opacity="1" /><circle cx="100.0" cy="490.0" r="2" stroke="0" fill="rgb(0, 0, 0)" opacity="1" /><circle cx="150.0" cy="0.0" r="2" stroke="0" fill="rgb(0, 0, 0)" opacity="1" /><circle cx="150.0" cy="50.0" r="2" stroke="0" fill="rgb(0, 0, 0)" opacity="1" /><circle cx="150.0" cy="100.0" r="2" stroke="0" fill="rgb(0, 0, 0)" opacity="1" /><circle cx="150.0" cy="150.0" r="2" stroke="0" fill="rgb(0, 0, 0)" opacity="1" /><circle cx="150.0" cy="200.0" r="2" stroke="0" fill="rgb(0, 0, 0)" opacity="1" /><circle cx="150.0" cy="250.0" r="2" stroke="0" fill="rgb(0, 0, 0)" opacity="1" /><circle cx="150.0" cy="300.0" r="2" stroke="0" fill="rgb(0, 0, 0)" opacity="1" /><circle cx="150.0" cy="350.0" r="2" stroke="0" fill="rgb(0, 0, 0)" opacity="1" /><circle cx="150.0" cy="400.0" r="2" stroke="0" fill="rgb(0, 0, 0)" opacity="1" /><circle cx="150.0" cy="450.0" r="2" stroke="0" fill="rgb(0, 0, 0)" opacity="1" /><circle cx="150.0" cy="490.0" r="2" stroke="0" fill="rgb(0, 0, 0)" opacity="1" /><circle cx="490.0" cy="0.0" r="2" stroke="0" fill="rgb(0, 0, 0)" opacity="1" /><circle cx="490.0" cy="50.0" r="2" stroke="0" fill="rgb(0, 0, 0)" opacity="1" /><circle cx="490.0" cy="100.0" r="2" stroke="0" fill="rgb(0, 0, 0)" opacity="1" /><circle cx="490.0" cy="150.0" r="2" stroke="0" fill="rgb(0, 0, 0)" opacity="1" /><circle cx="490.0" cy="200.0" r="2" stroke="0" fill="rgb(0, 0, 0)" opacity="1" /><circle cx="490.0" cy="250.0" r="2" stroke="0" fill="rgb(0, 0, 0)" opacity="1" /><circle cx="490.0" cy="300.0" r="2" stroke="0" fill="rgb(0, 0, 0)" opacity="1" /><circle cx="490.0" cy="350.0" r="2" stroke="0" fill="rgb(0, 0, 0)" opacity="1" /><circle cx="490.0" cy="400.0" r="2" stroke="0" fill="rgb(0, 0, 0)" opacity="1" /><circle cx="490.0" cy="450.0" r="2" stroke="0" fill="rgb(0, 0, 0)" opacity="1" /><circle cx="250.0" cy="250.0" r="2" stroke="0" fill="rgb(0, 0, 0)" opacity="1" /><circle cx="0.0" cy="20.0" r="2" stroke="0" fill="rgb(255, 0, 0)" opacity="1" /><circle cx="0.0" cy="20.0" r="30.0" stroke="0" fill="rgb(255, 0, 0)" opacity="0.2" /><circle cx="0.0" cy="20.0" r="100.0" stroke="0" fill="rgb(0, 255, 0)" opacity="0.2" /><circle cx="0.0" cy="130.0" r="2" stroke="0" fill="rgb(255, 0, 0)" opacity="1" /><circle cx="0.0" cy="130.0" r="30.0" stroke="0" fill="rgb(255, 0, 0)" opacity="0.2" /><circle cx="0.0" cy="130.0" r="100.0" stroke="0" fill="rgb(0, 255, 0)" opacity="0.2" /><circle cx="260.0" cy="250.0" r="2" stroke="0" fill="rgb(255, 0, 0)" opacity="1" /><circle cx="260.0" cy="250.0" r="30.0" stroke="0" fill="rgb(255, 0, 0)" opacity="0.2" /><circle cx="260.0" cy="250.0" r="100.0" stroke="0" fill="rgb(0, 255, 0)" opacity="0.2" /><circle cx="0.0" cy="220.0" r="2" stroke="0" fill="rgb(255, 0, 0)" opacity="1" /><circle cx="0.0" cy="220.0" r="30.0" stroke="0" fill="rgb(255, 0, 0)" opacity="0.2" /><circle cx="0.0" cy="220.0" r="100.0" stroke="0" fill="rgb(0, 255, 0)" opacity="0.2" /><circle cx="0.0" cy="330.0" r="2" stroke="0" fill="rgb(255, 0, 0)" opacity="1" /><circle cx="0.0" cy="330.0" r="30.0" stroke="0" fill="rgb(255, 0, 0)" opacity="0.2" /><circle cx="0.0" cy="330.0" r="100.0" stroke="0" fill="rgb(0, 255, 0)" opacity="0.2" /><circle cx="490.0" cy="430.0" r="2" stroke="0" fill="rgb(255, 0, 0)" opacity="1" /><circle cx="490.0" cy="430.0" r="30.0" stroke="0" fill="rgb(255, 0, 0)" opacity="0.2" /><circle cx="490.0" cy="430.0" r="100.0" stroke="0" fill="rgb(0, 255, 0)" opacity="0.2" /><circle cx="20.0" cy="400.0" r="2" stroke="0" fill="rgb(255, 0, 0)" opacity="1" /><circle cx="20.0" cy="400.0" r="30.0" stroke="0" fill="rgb(255, 0, 0)" opacity="0.2" /><circle cx="20.0" cy="400.0" r="100.0" stroke="0" fill="rgb(0, 255, 0)" opacity="0.2" /><circle cx="20.0" cy="450.0" r="2" stroke="0" fill="rgb(255, 0, 0)" opacity="1" /><circle cx="20.0" cy="450.0" r="30.0" stroke="0" fill="rgb(255, 0, 0)" opacity="0.2" /><circle cx="20.0" cy="450.0" r="100.0" stroke="0" fill="rgb(0, 255, 0)" opacity="0.2" /><circle cx="20.0" cy="490.0" r="2" stroke="0" fill="rgb(255, 0, 0)" opacity="1" /><circle cx="20.0" cy="490.0" r="30.0" stroke="0" fill="rgb(255, 0, 0)" opacity="0.2" /><circle cx="20.0" cy="490.0" r="100.0" stroke="0" fill="rgb(0, 255, 0)" opacity="0.2" /><circle cx="50.0" cy="20.0" r="2" stroke="0" fill="rgb(255, 0, 0)" opacity="1" /><circle cx="50.0" cy="20.0" r="30.0" stroke="0" fill="rgb(255, 0, 0)" opacity="0.2" /><circle cx="50.0" cy="20.0" r="100.0" stroke="0" fill="rgb(0, 255, 0)" opacity="0.2" /><circle cx="50.0" cy="130.0" r="2" stroke="0" fill="rgb(255, 0, 0)" opacity="1" /><circle cx="50.0" cy="130.0" r="30.0" stroke="0" fill="rgb(255, 0, 0)" opacity="0.2" /><circle cx="50.0" cy="130.0" r="100.0" stroke="0" fill="rgb(0, 255, 0)" opacity="0.2" /><circle cx="50.0" cy="220.0" r="2" stroke="0" fill="rgb(255, 0, 0)" opacity="1" /><circle cx="50.0" cy="220.0" r="30.0" stroke="0" fill="rgb(255, 0, 0)" opacity="0.2" /><circle cx="50.0" cy="220.0" r="100.0" stroke="0" fill="rgb(0, 255, 0)" opacity="0.2" /><circle cx="490.0" cy="320.0" r="2" stroke="0" fill="rgb(255, 0, 0)" opacity="1" /><circle cx="490.0" cy="320.0" r="30.0" stroke="0" fill="rgb(255, 0, 0)" opacity="0.2" /><circle cx="490.0" cy="320.0" r="100.0" stroke="0" fill="rgb(0, 255, 0)" opacity="0.2" /><circle cx="490.0" cy="230.0" r="2" stroke="0" fill="rgb(255, 0, 0)" opacity="1" /><circle cx="490.0" cy="230.0" r="30.0" stroke="0" fill="rgb(255, 0, 0)" opacity="0.2" /><circle cx="490.0" cy="230.0" r="100.0" stroke="0" fill="rgb(0, 255, 0)" opacity="0.2" /><circle cx="50.0" cy="330.0" r="2" stroke="0" fill="rgb(255, 0, 0)" opacity="1" /><circle cx="50.0" cy="330.0" r="30.0" stroke="0" fill="rgb(255, 0, 0)" opacity="0.2" /><circle cx="50.0" cy="330.0" r="100.0" stroke="0" fill="rgb(0, 255, 0)" opacity="0.2" /><circle cx="490.0" cy="120.0" r="2" stroke="0" fill="rgb(255, 0, 0)" opacity="1" /><circle cx="490.0" cy="120.0" r="30.0" stroke="0" fill="rgb(255, 0, 0)" opacity="0.2" /><circle cx="490.0" cy="120.0" r="100.0" stroke="0" fill="rgb(0, 255, 0)" opacity="0.2" /><circle cx="490.0" cy="30.0" r="2" stroke="0" fill="rgb(255, 0, 0)" opacity="1" /><circle cx="490.0" cy="30.0" r="30.0" stroke="0" fill="rgb(255, 0, 0)" opacity="0.2" /><circle cx="490.0" cy="30.0" r="100.0" stroke="0" fill="rgb(0, 255, 0)" opacity="0.2" /><circle cx="100.0" cy="30.0" r="2" stroke="0" fill="rgb(255, 0, 0)" opacity="1" /><circle cx="100.0" cy="30.0" r="30.0" stroke="0" fill="rgb(255, 0, 0)" opacity="0.2" /><circle cx="100.0" cy="30.0" r="100.0" stroke="0" fill="rgb(0, 255, 0)" opacity="0.2" /><circle cx="140.0" cy="470.0" r="2" stroke="0" fill="rgb(255, 0, 0)" opacity="1" /><circle cx="140.0" cy="470.0" r="30.0" stroke="0" fill="rgb(255, 0, 0)" opacity="0.2" /><circle cx="140.0" cy="470.0" r="100.0" stroke="0" fill="rgb(0, 255, 0)" opacity="0.2" /><circle cx="130.0" cy="400.0" r="2" stroke="0" fill="rgb(255, 0, 0)" opacity="1" /><circle cx="130.0" cy="400.0" r="30.0" stroke="0" fill="rgb(255, 0, 0)" opacity="0.2" /><circle cx="130.0" cy="400.0" r="100.0" stroke="0" fill="rgb(0, 255, 0)" opacity="0.2" /><circle cx="100.0" cy="120.0" r="2" stroke="0" fill="rgb(255, 0, 0)" opacity="1" /><circle cx="100.0" cy="120.0" r="30.0" stroke="0" fill="rgb(255, 0, 0)" opacity="0.2" /><circle cx="100.0" cy="120.0" r="100.0" stroke="0" fill="rgb(0, 255, 0)" opacity="0.2" /><circle cx="150.0" cy="320.0" r="2" stroke="0" fill="rgb(255, 0, 0)" opacity="1" /><circle cx="150.0" cy="320.0" r="30.0" stroke="0" fill="rgb(255, 0, 0)" opacity="0.2" /><circle cx="150.0" cy="320.0" r="100.0" stroke="0" fill="rgb(0, 255, 0)" opacity="0.2" /><circle cx="100.0" cy="230.0" r="2" stroke="0" fill="rgb(255, 0, 0)" opacity="1" /><circle cx="100.0" cy="230.0" r="30.0" stroke="0" fill="rgb(255, 0, 0)" opacity="0.2" /><circle cx="100.0" cy="230.0" r="100.0" stroke="0" fill="rgb(0, 255, 0)" opacity="0.2" /><circle cx="150.0" cy="230.0" r="2" stroke="0" fill="rgb(255, 0, 0)" opacity="1" /><circle cx="150.0" cy="230.0" r="30.0" stroke="0" fill="rgb(255, 0, 0)" opacity="0.2" /><circle cx="150.0" cy="230.0" r="100.0" stroke="0" fill="rgb(0, 255, 0)" opacity="0.2" /><circle cx="150.0" cy="120.0" r="2" stroke="0" fill="rgb(255, 0, 0)" opacity="1" /><circle cx="150.0" cy="120.0" r="30.0" stroke="0" fill="rgb(255, 0, 0)" opacity="0.2" /><circle cx="150.0" cy="120.0" r="100.0" stroke="0" fill="rgb(0, 255, 0)" opacity="0.2" /><circle cx="150.0" cy="30.0" r="2" stroke="0" fill="rgb(255, 0, 0)" opacity="1" /><circle cx="150.0" cy="30.0" r="30.0" stroke="0" fill="rgb(255, 0, 0)" opacity="0.2" /><circle cx="150.0" cy="30.0" r="100.0" stroke="0" fill="rgb(0, 255, 0)" opacity="0.2" /><circle cx="120.0" cy="470.0" r="2" stroke="0" fill="rgb(255, 0, 0)" opacity="1" /><circle cx="120.0" cy="470.0" r="30.0" stroke="0" fill="rgb(255, 0, 0)" opacity="0.2" /><circle cx="120.0" cy="470.0" r="100.0" stroke="0" fill="rgb(0, 255, 0)" opacity="0.2" /><circle cx="100.0" cy="320.0" r="2" stroke="0" fill="rgb(255, 0, 0)" opacity="1" /><circle cx="100.0" cy="320.0" r="30.0" stroke="0" fill="rgb(255, 0, 0)" opacity="0.2" /><circle cx="100.0" cy="320.0" r="100.0" stroke="0" fill="rgb(0, 255, 0)" opacity="0.2" /></svg>