<svg width="500" height="500" xmlns="http://www.w3.org/2000/svg"><rect x="0" y="0" width="500" height="500" stroke="0" fill="rgb(255, 255, 255)" opacity="1" /><circle cx="20.0" cy="20.0" r="2" stroke="0" fill="rgb(0, 0, 0)" opacity="1" /><circle cx="20.0" cy="60.0" r="2" stroke="0" fill="rgb(0, 0, 0)" opacity="1" /><circle cx="20.0" cy="100.0" r="2" stroke="0" fill="rgb(0, 0, 0)" opacity="1" /><circle cx="20.0" cy="140.0" r="2" stroke="0" fill="rgb(0, 0, 0)" opacity="1" /><circle cx="40.0" cy="40.0" r="2" stroke="0" fill="rgb(0, 0, 0)" opacity="1" /><circle cx="40.0" cy="80.0" r="2" stroke="0" fill="rgb(0, 0, 0)" opacity="1" /><circle cx="40.0" cy="120.0" r="2" stroke="0" fill="rgb(0, 0, 0)" opacity="1" /><circle cx="40.0" cy="160.0" r="2" stroke="0" fill="rgb(0, 0, 0)" opacity="1" /><circle cx="60.0" cy="20.0" r="2" stroke="0" fill="rgb(0, 0, 0)" opacity="1" /><circle cx="60.0" cy="60.0" r="2" stroke="0" fill="rgb(0, 0, 0)" opacity="1" /><circle cx="60.0" cy="100.0" r="2" stroke="0" fill="rgb(0, 0, 0)" opacity="1" /><circle cx="60.0" cy="140.0" r="2" stroke="0" fill="rgb(0, 0, 0)" opacity="1" /><circle cx="80.0" cy="40.0" r="2" stroke="0" fill="rgb(0, 0, 0)" opacity="1" /><circle cx="80.0" cy="80.0" r="2" stroke="0" fill="rgb(0, 0, 0)" opacity="1" /><circle cx="80.0" cy="120.0" r="2" stroke="0" fill="rgb(0, 0, 0)" opacity="1" /><circle cx="80.0" cy="160.0" r="2" stroke="0" fill="rgb(0, 0, 0)" opacity="1" /><circle cx="100.0" cy="20.0" r="2" stroke="0" fill="rgb(0, 0, 0)" opacity="1" /><circle cx="100.0" cy="60.0" r="2" stroke="0" fill="rgb(0, 0, 0)" opacity="1" /><circle cx="100.0" cy="100.0" r="2" stroke="0" fill="rgb(0, 0, 0)" opacity="1" /><circle cx="100.0" cy="140.0" r="2" stroke="0" fill="rgb(0, 0, 0)" opacity="1" /><circle cx="120.0" cy="40.0" r="2" stroke="0" fill="rgb(0, 0, 0)" opacity="1" /><circle cx="120.0" cy="80.0" r="2" stroke="0" fill="rgb(0, 0, 0)" opacity="1" /><circle cx="120.0" cy="120.0" r="2" stroke="0" fill="rgb(0, 0, 0)" opacity="1" /><circle cx="120.0" cy="160.0" r="2" stroke="0" fill="rgb(0, 0, 0)" opacity="1" /><circle cx="140.0" cy="20.0" r="2" stroke="0" fill="rgb(0, 0, 0)" opacity="1" /><circle cx="140.0" cy="60.0" r="2" stroke="0" fill="rgb(0, 0, 0)" opacity="1" /><circle cx="140.0" cy="100.0" r="2" stroke="0" fill="rgb(0, 0, 0)" opacity="1" /><circle cx="140.0" cy="140.0" r="2" stroke="0" fill="rgb(0, 0, 0)" opacity="1" /><circle cx="160.0" cy="40.0" r="2" stroke="0" fill="rgb(0, 0, 0)" opacity="1" /><circle cx="160.0" cy="80.0" r="2" stroke="0" fill="rgb(0, 0, 0)" opacity="1" /><circle cx="160.0" cy="120.0" r="2" stroke="0" fill="rgb(0, 0, 0)" opacity="1" /><circle cx="160.0" cy="160.0" r="2" stroke="0" fill="rgb(0, 0, 0)" opacity="1" /><circle cx="180.0" cy="20.0" r="2" stroke="0" fill="rgb(0, 0, 0)" opacity="1" /><circle cx="180.0" cy="60.0" r="2" stroke="0" fill="rgb(0, 0, 0)" opacity="1" /><circle cx="180.0" cy="100.0" r="2" stroke="0" fill="rgb(0, 0, 0)" opacity="1" /><circle cx="180.0" cy="140.0" r="2" stroke="0" fill="rgb(0, 0, 0)" opacity="1" /><circle cx="200.0" cy="40.0" r="2" stroke="0" fill="rgb(0, 0, 0)" opacity="1" /><circle cx="200.0" cy="80.0" r="2" stroke="0" fill="rgb(0, 0, 0)" opacity="1" /><circle cx="200.0" cy="120.0" r="2" stroke="0" fill="rgb(0, 0, 0)" opacity="1" /><circle cx="200.0" cy="160.0" r="2" stroke="0" fill="rgb(0, 0, 0)" opacity="1" /><circle cx="220.0" cy="20.0" r="2" stroke="0" fill="rgb(0, 0, 0)" opacity="1" /><circle cx="220.0" cy="60.0" r="2" stroke="0" fill="rgb(0, 0, 0)" opacity="1" /><circle cx="220.0" cy="100.0" r="2" stroke="0" fill="rgb(0, 0, 0)" opacity="1" /><circle cx="220.0" cy="140.0" r="2" stroke="0" fill="rgb(0, 0, 0)" opacity="1" /><circle cx="240.0" cy="40.0" r="2" stroke="0" fill="rgb(0, 0, 0)" opacity="1" /><circle cx="240.0" cy="80.0" r="2" stroke="0" fill="rgb(0, 0, 0)" opacity="1" /><circle cx="240.0" cy="120.0" r="2" stroke="0" fill="rgb(0, 0, 0)" opacity="1" /><circle cx="240.0" cy="160.0" r="2" stroke="0" fill="rgb(0, 0, 0)" opacity="1" /><circle cx="230.0" cy="160.0" r="2" stroke="0" fill="rgb(255, 0, 0)" opacity="1" /><circle cx="230.0" cy="160.0" r="30.0" stroke="0" fill="rgb(255, 0, 0)" opacity="0.2" /><circle cx="230.0" cy="160.0" r="100.0" stroke="0" fill="rgb(0, 255, 0)" opacity="0.2" /><circle cx="40.0" cy="10.0" r="2" stroke="0" fill="rgb(255, 0, 0)" opacity="1" /><circle cx="40.0" cy="10.0" r="30.0" stroke="0" fill="rgb(255, 0, 0)" opacity="0.2" /><circle cx="40.0" cy="10.0" r="100.0" stroke="0" fill="rgb(0, 255, 0)" opacity="0.2" /><circle cx="220.0" cy="100.0" r="2" stroke="0" fill="rgb(255, 0, 0)" opacity="1" /><circle cx="220.0" cy="100.0" r="30.0" stroke="0" fill="rgb(255, 0, 0)" opacity="0.2" /><circle cx="220.0" cy="100.0" r="100.0" stroke="0" fill="rgb(0, 255, 0)" opacity="0.2" /><circle cx="50.0" cy="140.0" r="2" stroke="0" fill="rgb(255, 0, 0)" opacity="1" /><circle cx="50.0" cy="140.0" r="30.0" stroke="0" fill="rgb(255, 0, 0)" opacity="0.2" /><circle cx="50.0" cy="140.0" r="100.0" stroke="0" fill="rgb(0, 255, 0)" opacity="0.2" /><circle cx="40.0" cy="80.0" r="2" stroke="0" fill="rgb(255, 0, 0)" opacity="1" /><circle cx="40.0" cy="80.0" r="30.0" stroke="0" fill="rgb(255, 0, 0)" opacity="0.2" /><circle cx="40.0" cy="80.0" r="100.0" stroke="0" fill="rgb(0, 255, 0)" opacity="0.2" /><circle cx="220.0" cy="50.0" r="2" stroke="0" fill="rgb(255, 0, 0)" opacity="1" /><circle cx="220.0" cy="50.0" r="30.0" stroke="0" fill="rgb(255, 0, 0)" opacity="0.2" /><circle cx="220.0" cy="50.0" r="100.0" stroke="0" fill="rgb(0, 255, 0)" opacity="0.2" /><circle cx="420.0" cy="430.0" r="2" stroke="0" fill="rgb(255, 0, 0)" opacity="1" /><circle cx="420.0" cy="430.0" r="30.0" stroke="0" fill="rgb(255, 0, 0)" opacity="0.2" /><circle cx="420.0" cy="430.0" r="100.0" stroke="0" fill="rgb(0, 255, 0)" opacity="0.2" /><circle cx="160.0" cy="140.0" r="2" stroke="0" fill="rgb(255, 0, 0)" opacity="1" /><circle cx="160.0" cy="140.0" r="30.0" stroke="0" fill="rgb(255, 0, 0)" opacity="0.2" /><circle cx="160.0" cy="140.0" r="100.0" stroke="0" fill="rgb(0, 255, 0)" opacity="0.2" /><circle cx="110.0" cy="40.0" r="2" stroke="0" fill="rgb(255, 0, 0)" opacity="1" /><circle cx="110.0" cy="40.0" r="30.0" stroke="0" fill="rgb(255, 0, 0)" opacity="0.2" /><circle cx="110.0" cy="40.0" r="100.0" stroke="0" fill="rgb(0, 255, 0)" opacity="0.2" /><circle cx="160.0" cy="80.0" r="2" stroke="0" fill="rgb(255, 0, 0)" opacity="1" /><circle cx="160.0" cy="80.0" r="30.0" stroke="0" fill="rgb(255, 0, 0)" opacity="0.2" /><circle cx="160.0" cy="80.0" r="100.0" stroke="0" fill="rgb(0, 255, 0)" opacity="0.2" /><circle cx="160.0" cy="10.0" r="2" stroke="0" fill="rgb(255, 0, 0)" opacity="1" /><circle cx="160.0" cy="10.0" r="30.0" stroke="0" fill="rgb(255, 0, 0)" opacity="0.2" /><circle cx="160.0" cy="10.0" r="100.0" stroke="0" fill="rgb(0, 255, 0)" opacity="0.2" /><circle cx="100.0" cy="100.0" r="2" stroke="0" fill="rgb(255, 0, 0)" opacity="1" /><circle cx="100.0" cy="100.0" r="30.0" stroke="0" fill="rgb(255, 0, 0)" opacity="0.2" /><circle cx="100.0" cy="100.0" r="100.0" stroke="0" fill="rgb(0, 255, 0)" opacity="0.2" /><circle cx="100.0" cy="170.0" r="2" stroke="0" fill="rgb(255, 0, 0)" opacity="1" /><circle cx="100.0" cy="170.0" r="30.0" stroke="0" fill="rgb(255, 0, 0)" opacity="0.2" /><circle cx="100.0" cy="170.0" r="100.0" stroke="0" fill="rgb(0, 255, 0)" opacity="0.2" /></svg>