<svg width="500" height="500" xmlns="http://www.w3.org/2000/svg"><rect x="0" y="0" width="500" height="500" stroke="0" fill="rgb(255, 255, 255)" opacity="1" /><circle cx="0.0" cy="0.0" r="2" stroke="0" fill="rgb(0, 0, 0)" opacity="1" /><circle cx="0.0" cy="50.0" r="2" stroke="0" fill="rgb(0, 0, 0)" opacity="1" /><circle cx="0.0" cy="100.0" r="2" stroke="0" fill="rgb(0, 0, 0)" opacity="1" /><circle cx="0.0" cy="150.0" r="2" stroke="0" fill="rgb(0, 0, 0)" opacity="1" /><circle cx="0.0" cy="200.0" r="2" stroke="0" fill="rgb(0, 0, 0)" opacity="1" /><circle cx="0.0" cy="250.0" r="2" stroke="0" fill="rgb(0, 0, 0)" opacity="1" /><circle cx="0.0" cy="300.0" r="2" stroke="0" fill="rgb(0, 0, 0)" opacity="1" /><circle cx="0.0" cy="350.0" r="2" stroke="0" fill="rgb(0, 0, 0)" opacity="1" /><circle cx="0.0" cy="400.0" r="2" stroke="0" fill="rgb(0, 0, 0)" opacity="1" /><circle cx="0.0" cy="450.0" r="2" stroke="0" fill="rgb(0, 0, 0)" opacity="1" /><circle cx="0.0" cy="490.0" r="2" stroke="0" fill="rgb(0, 0, 0)" opacity="1" /><circle cx="50.0" cy="0.0" r="2" stroke="0" fill="rgb(0, 0, 0)" opacity="1" /><circle cx="50.0" cy="50.0" r="2" stroke="0" fill="rgb(0, 0, 0)" opacity="1" /><circle cx="50.0" cy="100.0" r="2" stroke="0" fill="rgb(0, 0, 0)" opacity="1" /><circle cx="50.0" cy="150.0" r="2" stroke="0" fill="rgb(0, 0, 0)" opacity="1" /><circle cx="50.0" cy="200.0" r="2" stroke="0" fill="rgb(0, 0, 0)" opacity="1" /><circle cx="50.0" cy="250.0" r="2" stroke="0" fill="rgb(0, 0, 0)" opacity="1" /><circle cx="50.0" cy="300.0" r="2" stroke="0" fill="rgb(0, 0, 0)" opacity="1" /><circle cx="50.0" cy="350.0" r="2" stroke="0" fill="rgb(0, 0, 0)" opacity="1" /><circle cx="50.0" cy="400.0" r="2" stroke="0" fill="rgb(0, 0, 0)" opacity="1" /><circle cx="50.0" cy="450.0" r="2" stroke="0" fill="rgb(0, 0, 0)" opacity="1" /><circle cx="50.0" cy="490.0" r="2" stroke="0" fill="rgb(0, 0, 0)" opacity="1" /><circle cx="100.0" cy="0.0" r="2" stroke="0" fill="rgb(0, 0, 0)" opacity="1" /><circle cx="100.0" cy="50.0" r="2" stroke="0" fill="rgb(0, 0, 0)" opacity="1" /><circle cx="100.0" cy="100.0" r="2" stroke="0" fill="rgb(0, 0, 0)" opacity="1" /><circle cx="100.0" cy="150.0" r="2" stroke="0" fill="rgb(0, 0, 0)" opacity="1" /><circle cx="100.0" cy="200.0" r="2" stroke="0" fill="rgb(0, 0, 0)" opacity="1" /><circle cx="100.0" cy="250.0" r="2" stroke="0" fill="rgb(0, 0, 0)" opacity="1" /><circle cx="100.0" cy="300.0" r="2" stroke="0" fill="rgb(0, 0, 0)" opacity="1" /><circle cx="100.0" cy="350.0" r="2" stroke="0" fill="rgb(0, 0, 0)" opacity="1" /><circle cx="100.0" cy="400.0" r="2" stroke="0" fill="rgb(0, 0, 0)" opacity="1" /><circle cx="100.0" cy="450.0" r="2" stroke="0" fill="rgb(0, 0, 0)" opacity="1" /><circle cx="100.0" cy="490.0" r="2" stroke="0" fill="rgb(0, 0, 0)" opacity="1" /><circle cx="150.0" cy="0.0" r="2" stroke="0" fill="rgb(0, 0, 0)" opacity="1" /><circle cx="150.0" cy="50.0" r="2" stroke="0" fill="rgb(0, 0, 0)" opacity="1" /><circle cx="150.0" cy="100.0" r="2" stroke="0" fill="rgb(0, 0, 0)" opacity="1" /><circle cx="150.0" cy="150.0" r="2" stroke="0" fill="rgb(0, 0, 0)" opacity="1" /><circle cx="150.0" cy="200.0" r="2" stroke="0" fill="rgb(0, 0, 0)" opacity="1" /><circle cx="150.0" cy="250.0" r="2" stroke="0" fill="rgb(0, 0, 0)" opacity="1" /><circle cx="150.0" cy="300.0" r="2" stroke="0" fill="rgb(0, 0, 0)" opacity="1" /><circle cx="150.0" cy="350.0" r="2" stroke="0" fill="rgb(0, 0, 0)" opacity="1" /><circle cx="150.0" cy="400.0" r="2" stroke="0" fill="rgb(0, 0, 0)" opacity="1" /><circle cx="150.0" cy="450.0" r="2" stroke="0" fill="rgb(0, 0, 0)" opacity="1" /><circle cx="150.0" cy="490.0" r="2" stroke="0" fill="rgb(0, 0, 0)" opacity="1" /><circle cx="490.0" cy="0.0" r="2" stroke="0" fill="rgb(0, 0, 0)" opacity="1" /><circle cx="490.0" cy="50.0" r="2" stroke="0" fill="rgb(0, 0, 0)" opacity="1" /><circle cx="490.0" cy="100.0" r="2" stroke="0" fill="rgb(0, 0, 0)" opacity="1" /><circle cx="490.0" cy="150.0" r="2" stroke="0" fill="rgb(0, 0, 0)" opacity="1" /><circle cx="490.0" cy="200.0" r="2" stroke="0" fill="rgb(0, 0, 0)" opacity="1" /><circle cx="490.0" cy="250.0" r="2" stroke="0" fill="rgb(0, 0, 0)" opacity="1" /><circle cx="490.0" cy="300.0" r="2" stroke="0" fill="rgb(0, 0, 0)" opacity="1" /><circle cx="490.0" cy="350.0" r="2" stroke="0" fill="rgb(0, 0, 0)" opacity="1" /><circle cx="490.0" cy="400.0" r="2" stroke="0" fill="rgb(0, 0, 0)" opacity="1" /><circle cx="490.0" cy="450.0" r="2" stroke="0" fill="rgb(0, 0, 0)" opacity="1" /><circle cx="250.0" cy="250.0" r="2" stroke="0" fill="rgb(0, 0, 0)" opacity="1" /><circle cx="30.0" cy="0.0" r="2" stroke="0" fill="rgb(255, 0, 0)" opacity="1" /><circle cx="30.0" cy="0.0" r="30.0" stroke="0" fill="rgb(255, 0, 0)" opacity="0.2" /><circle cx="30.0" cy="0.0" r="100.0" stroke="0" fill="rgb(0, 255, 0)" opacity="0.2" /><circle cx="0.0" cy="70.0" r="2" stroke="0" fill="rgb(255, 0, 0)" opacity="1" /><circle cx="0.0" cy="70.0" r="30.0" stroke="0" fill="rgb(255, 0, 0)" opacity="0.2" /><circle cx="0.0" cy="70.0" r="100.0" stroke="0" fill="rgb(0, 255, 0)" opacity="0.2" /><circle cx="0.0" cy="180.0" r="2" stroke="0" fill="rgb(255, 0, 0)" opacity="1" /><circle cx="0.0" cy="180.0" r="30.0" stroke="0" fill="rgb(255, 0, 0)" opacity="0.2" /><circle cx="0.0" cy="180.0" r="100.0" stroke="0" fill="rgb(0, 255, 0)" opacity="0.2" /><circle cx="0.0" cy="270.0" r="2" stroke="0" fill="rgb(255, 0, 0)" opacity="1" /><circle cx="0.0" cy="270.0" r="30.0" stroke="0" fill="rgb(255, 0, 0)" opacity="0.2" /><circle cx="0.0" cy="270.0" r="100.0" stroke="0" fill="rgb(0, 255, 0)" opacity="0.2" /><circle cx="0.0" cy="380.0" r="2" stroke="0" fill="rgb(255, 0, 0)" opacity="1" /><circle cx="0.0" cy="380.0" r="30.0" stroke="0" fill="rgb(255, 0, 0)" opacity="0.2" /><circle cx="0.0" cy="380.0" r="100.0" stroke="0" fill="rgb(0, 255, 0)" opacity="0.2" /><circle cx="0.0" cy="470.0" r="2" stroke="0" fill="rgb(255, 0, 0)" opacity="1" /><circle cx="0.0" cy="470.0" r="30.0" stroke="0" fill="rgb(255, 0, 0)" opacity="0.2" /><circle cx="0.0" cy="470.0" r="100.0" stroke="0" fill="rgb(0, 255, 0)" opacity="0.2" /><circle cx="50.0" cy="80.0" r="2" stroke="0" fill="rgb(255, 0, 0)" opacity="1" /><circle cx="50.0" cy="80.0" r="30.0" stroke="0" fill="rgb(255, 0, 0)" opacity="0.2" /><circle cx="50.0" cy="80.0" r="100.0" stroke="0" fill="rgb(0, 255, 0)" opacity="0.2" /><circle cx="50.0" cy="170.0" r="2" stroke="0" fill="rgb(255, 0, 0)" opacity="1" /><circle cx="50.0" cy="170.0" r="30.0" stroke="0" fill="rgb(255, 0, 0)" opacity="0.2" /><circle cx="50.0" cy="170.0" r="100.0" stroke="0" fill="rgb(0, 255, 0)" opacity="0.2" /><circle cx="50.0" cy="280.0" r="2" stroke="0" fill="rgb(255, 0, 0)" opacity="1" /><circle cx="50.0" cy="280.0" r="30.0" stroke="0" fill="rgb(255, 0, 0)" opacity="0.2" /><circle cx="50.0" cy="280.0" r="100.0" stroke="0" fill="rgb(0, 255, 0)" opacity="0.2" /><circle cx="50.0" cy="370.0" r="2" stroke="0" fill="rgb(255, 0, 0)" opacity="1" /><circle cx="50.0" cy="370.0" r="30.0" stroke="0" fill="rgb(255, 0, 0)" opacity="0.2" /><circle cx="50.0" cy="370.0" r="100.0" stroke="0" fill="rgb(0, 255, 0)" opacity="0.2" /><circle cx="50.0" cy="480.0" r="2" stroke="0" fill="rgb(255, 0, 0)" opacity="1" /><circle cx="50.0" cy="480.0" r="30.0" stroke="0" fill="rgb(255, 0, 0)" opacity="0.2" /><circle cx="50.0" cy="480.0" r="100.0" stroke="0" fill="rgb(0, 255, 0)" opacity="0.2" /><circle cx="120.0" cy="0.0" r="2" stroke="0" fill="rgb(255, 0, 0)" opacity="1" /><circle cx="120.0" cy="0.0" r="30.0" stroke="0" fill="rgb(255, 0, 0)" opacity="0.2" /><circle cx="120.0" cy="0.0" r="100.0" stroke="0" fill="rgb(0, 255, 0)" opacity="0.2" /><circle cx="120.0" cy="50.0" r="2" stroke="0" fill="rgb(255, 0, 0)" opacity="1" /><circle cx="120.0" cy="50.0" r="30.0" stroke="0" fill="rgb(255, 0, 0)" opacity="0.2" /><circle cx="120.0" cy="50.0" r="100.0" stroke="0" fill="rgb(0, 255, 0)" opacity="0.2" /><circle cx="130.0" cy="100.0" r="2" stroke="0" fill="rgb(255, 0, 0)" opacity="1" /><circle cx="130.0" cy="100.0" r="30.0" stroke="0" fill="rgb(255, 0, 0)" opacity="0.2" /><circle cx="130.0" cy="100.0" r="100.0" stroke="0" fill="rgb(0, 255, 0)" opacity="0.2" /><circle cx="130.0" cy="150.0" r="2" stroke="0" fill="rgb(255, 0, 0)" opacity="1" /><circle cx="130.0" cy="150.0" r="30.0" stroke="0" fill="rgb(255, 0, 0)" opacity="0.2" /><circle cx="130.0" cy="150.0" r="100.0" stroke="0" fill="rgb(0, 255, 0)" opacity="0.2" /><circle cx="120.0" cy="200.0" r="2" stroke="0" fill="rgb(255, 0, 0)" opacity="1" /><circle cx="120.0" cy="200.0" r="30.0" stroke="0" fill="rgb(255, 0, 0)" opacity="0.2" /><circle cx="120.0" cy="200.0" r="100.0" stroke="0" fill="rgb(0, 255, 0)" opacity="0.2" /><circle cx="120.0" cy="250.0" r="2" stroke="0" fill="rgb(255, 0, 0)" opacity="1" /><circle cx="120.0" cy="250.0" r="30.0" stroke="0" fill="rgb(255, 0, 0)" opacity="0.2" /><circle cx="120.0" cy="250.0" r="100.0" stroke="0" fill="rgb(0, 255, 0)" opacity="0.2" /><circle cx="130.0" cy="300.0" r="2" stroke="0" fill="rgb(255, 0, 0)" opacity="1" /><circle cx="130.0" cy="300.0" r="30.0" stroke="0" fill="rgb(255, 0, 0)" opacity="0.2" /><circle cx="130.0" cy="300.0" r="100.0" stroke="0" fill="rgb(0, 255, 0)" opacity="0.2" /><circle cx="130.0" cy="350.0" r="2" stroke="0" fill="rgb(255, 0, 0)" opacity="1" /><circle cx="130.0" cy="350.0" r="30.0" stroke="0" fill="rgb(255, 0, 0)" opacity="0.2" /><circle cx="130.0" cy="350.0" r="100.0" stroke="0" fill="rgb(0, 255, 0)" opacity="0.2" /><circle cx="120.0" cy="400.0" r="2" stroke="0" fill="rgb(255, 0, 0)" opacity="1" /><circle cx="120.0" cy="400.0" r="30.0" stroke="0" fill="rgb(255, 0, 0)" opacity="0.2" /><circle cx="120.0" cy="400.0" r="100.0" stroke="0" fill="rgb(0, 255, 0)" opacity="0.2" /><circle cx="110.0" cy="470.0" r="2" stroke="0" fill="rgb(255, 0, 0)" opacity="1" /><circle cx="110.0" cy="470.0" r="30.0" stroke="0" fill="rgb(255, 0, 0)" opacity="0.2" /><circle cx="110.0" cy="470.0" r="100.0" stroke="0" fill="rgb(0, 255, 0)" opacity="0.2" /><circle cx="160.0" cy="470.0" r="2" stroke="0" fill="rgb(255, 0, 0)" opacity="1" /><circle cx="160.0" cy="470.0" r="30.0" stroke="0" fill="rgb(255, 0, 0)" opacity="0.2" /><circle cx="160.0" cy="470.0" r="100.0" stroke="0" fill="rgb(0, 255, 0)" opacity="0.2" /><circle cx="490.0" cy="20.0" r="2" stroke="0" fill="rgb(255, 0, 0)" opacity="1" /><circle cx="490.0" cy="20.0" r="30.0" stroke="0" fill="rgb(255, 0, 0)" opacity="0.2" /><circle cx="490.0" cy="20.0" r="100.0" stroke="0" fill="rgb(0, 255, 0)" opacity="0.2" /><circle cx="490.0" cy="130.0" r="2" stroke="0" fill="rgb(255, 0, 0)" opacity="1" /><circle cx="490.0" cy="130.0" r="30.0" stroke="0" fill="rgb(255, 0, 0)" opacity="0.2" /><circle cx="490.0" cy="130.0" r="100.0" stroke="0" fill="rgb(0, 255, 0)" opacity="0.2" /><circle cx="490.0" cy="220.0" r="2" stroke="0" fill="rgb(255, 0, 0)" opacity="1" /><circle cx="490.0" cy="220.0" r="30.0" stroke="0" fill="rgb(255, 0, 0)" opacity="0.2" /><circle cx="490.0" cy="220.0" r="100.0" stroke="0" fill="rgb(0, 255, 0)" opacity="0.2" /><circle cx="490.0" cy="330.0" r="2" stroke="0" fill="rgb(255, 0, 0)" opacity="1" /><circle cx="490.0" cy="330.0" r="30.0" stroke="0" fill="rgb(255, 0, 0)" opacity="0.2" /><circle cx="490.0" cy="330.0" r="100.0" stroke="0" fill="rgb(0, 255, 0)" opacity="0.2" /><circle cx="490.0" cy="420.0" r="2" stroke="0" fill="rgb(255, 0, 0)" opacity="1" /><circle cx="490.0" cy="420.0" r="30.0" stroke="0" fill="rgb(255, 0, 0)" opacity="0.2" /><circle cx="490.0" cy="420.0" r="100.0" stroke="0" fill="rgb(0, 255, 0)" opacity="0.2" /><circle cx="250.0" cy="220.0" r="2" stroke="0" fill="rgb(255, 0, 0)" opacity="1" /><circle cx="250.0" cy="220.0" r="30.0" stroke="0" fill="rgb(255, 0, 0)" opacity="0.2" /><circle cx="250.0" cy="220.0" r="100.0" stroke="0" fill="rgb(0, 255, 0)" opacity="0.2" /></svg>