<svg width="500" height="500" xmlns="http://www.w3.org/2000/svg"><rect x="0" y="0" width="500" height="500" stroke="0" fill="rgb(255, 255, 255)" opacity="1" /><circle cx="0.0" cy="0.0" r="2" stroke="0" fill="rgb(0, 0, 0)" opacity="1" /><circle cx="0.0" cy="116.66666666666667" r="2" stroke="0" fill="rgb(0, 0, 0)" opacity="1" /><circle cx="0.0" cy="233.33333333333334" r="2" stroke="0" fill="rgb(0, 0, 0)" opacity="1" /><circle cx="0.0" cy="350.0" r="2" stroke="0" fill="rgb(0, 0, 0)" opacity="1" /><circle cx="0.0" cy="466.6666666666667" r="2" stroke="0" fill="rgb(0, 0, 0)" opacity="1" /><circle cx="100.0" cy="50.0" r="2" stroke="0" fill="rgb(0, 0, 0)" opacity="1" /><circle cx="100.0" cy="166.66666666666666" r="2" stroke="0" fill="rgb(0, 0, 0)" opacity="1" /><circle cx="233.33333333333334" cy="266.6666666666667" r="2" stroke="0" fill="rgb(0, 0, 0)" opacity="1" /><circle cx="150.0" cy="116.66666666666667" r="2" stroke="0" fill="rgb(0, 0, 0)" opacity="1" /><circle cx="100.0" cy="483.3333333333333" r="2" stroke="0" fill="rgb(0, 0, 0)" opacity="1" /><circle cx="200.0" cy="0.0" r="2" stroke="0" fill="rgb(0, 0, 0)" opacity="1" /><circle cx="200.0" cy="116.66666666666667" r="2" stroke="0" fill="rgb(0, 0, 0)" opacity="1" /><circle cx="433.33333333333337" cy="50.0" r="2" stroke="0" fill="rgb(0, 0, 0)" opacity="1" /><circle cx="200.0" cy="350.0" r="2" stroke="0" fill="rgb(0, 0, 0)" opacity="1" /><circle cx="200.0" cy="466.6666666666667" r="2" stroke="0" fill="rgb(0, 0, 0)" opacity="1" /><circle cx="300.0" cy="50.0" r="2" stroke="0" fill="rgb(0, 0, 0)" opacity="1" /><circle cx="350.0" cy="16.666666666666668" r="2" stroke="0" fill="rgb(0, 0, 0)" opacity="1" /><circle cx="300.0" cy="283.3333333333333" r="2" stroke="0" fill="rgb(0, 0, 0)" opacity="1" /><circle cx="283.3333333333333" cy="0.0" r="2" stroke="0" fill="rgb(0, 0, 0)" opacity="1" /><circle cx="300.0" cy="483.3333333333333" r="2" stroke="0" fill="rgb(0, 0, 0)" opacity="1" /><circle cx="400.0" cy="0.0" r="2" stroke="0" fill="rgb(0, 0, 0)" opacity="1" /><circle cx="400.0" cy="116.66666666666667" r="2" stroke="0" fill="rgb(0, 0, 0)" opacity="1" /><circle cx="400.0" cy="233.33333333333334" r="2" stroke="0" fill="rgb(0, 0, 0)" opacity="1" /><circle cx="400.0" cy="350.0" r="2" stroke="0" fill="rgb(0, 0, 0)" opacity="1" /><circle cx="366.66666666666663" cy="83.33333333333333" r="2" stroke="0" fill="rgb(0, 0, 0)" opacity="1" /><circle cx="16.666666666666668" cy="133.33333333333334" r="2" stroke="0" fill="rgb(255, 0, 0)" opacity="1" /><circle cx="16.666666666666668" cy="133.33333333333334" r="50.0" stroke="0" fill="rgb(255, 0, 0)" opacity="0.2" /><circle cx="16.666666666666668" cy="133.33333333333334" r="133.33333333333334" stroke="0" fill="rgb(0, 255, 0)" opacity="0.2" /><circle cx="0.0" cy="183.33333333333331" r="2" stroke="0" fill="rgb(255, 0, 0)" opacity="1" /><circle cx="0.0" cy="183.33333333333331" r="50.0" stroke="0" fill="rgb(255, 0, 0)" opacity="0.2" /><circle cx="0.0" cy="183.33333333333331" r="133.33333333333334" stroke="0" fill="rgb(0, 255, 0)" opacity="0.2" /><circle cx="0.0" cy="0.0" r="2" stroke="0" fill="rgb(255, 0, 0)" opacity="1" /><circle cx="0.0" cy="0.0" r="50.0" stroke="0" fill="rgb(255, 0, 0)" opacity="0.2" /><circle cx="0.0" cy="0.0" r="133.33333333333334" stroke="0" fill="rgb(0, 255, 0)" opacity="0.2" /><circle cx="16.666666666666668" cy="316.66666666666663" r="2" stroke="0" fill="rgb(255, 0, 0)" opacity="1" /><circle cx="16.666666666666668" cy="316.66666666666663" r="50.0" stroke="0" fill="rgb(255, 0, 0)" opacity="0.2" /><circle cx="16.666666666666668" cy="316.66666666666663" r="133.33333333333334" stroke="0" fill="rgb(0, 255, 0)" opacity="0.2" /><circle cx="0.0" cy="450.0" r="2" stroke="0" fill="rgb(255, 0, 0)" opacity="1" /><circle cx="0.0" cy="450.0" r="50.0" stroke="0" fill="rgb(255, 0, 0)" opacity="0.2" /><circle cx="0.0" cy="450.0" r="133.33333333333334" stroke="0" fill="rgb(0, 255, 0)" opacity="0.2" /><circle cx="133.33333333333334" cy="466.6666666666667" r="2" stroke="0" fill="rgb(255, 0, 0)" opacity="1" /><circle cx="133.33333333333334" cy="466.6666666666667" r="50.0" stroke="0" fill="rgb(255, 0, 0)" opacity="0.2" /><circle cx="133.33333333333334" cy="466.6666666666667" r="133.33333333333334" stroke="0" fill="rgb(0, 255, 0)" opacity="0.2" /><circle cx="150.0" cy="166.66666666666666" r="2" stroke="0" fill="rgb(255, 0, 0)" opacity="1" /><circle cx="150.0" cy="166.66666666666666" r="50.0" stroke="0" fill="rgb(255, 0, 0)" opacity="0.2" /><circle cx="150.0" cy="166.66666666666666" r="133.33333333333334" stroke="0" fill="rgb(0, 255, 0)" opacity="0.2" /><circle cx="133.33333333333334" cy="16.666666666666668" r="2" stroke="0" fill="rgb(255, 0, 0)" opacity="1" /><circle cx="133.33333333333334" cy="16.666666666666668" r="50.0" stroke="0" fill="rgb(255, 0, 0)" opacity="0.2" /><circle cx="133.33333333333334" cy="16.666666666666668" r="133.33333333333334" stroke="0" fill="rgb(0, 255, 0)" opacity="0.2" /><circle cx="183.33333333333331" cy="150.0" r="2" stroke="0" fill="rgb(255, 0, 0)" opacity="1" /><circle cx="183.33333333333331" cy="150.0" r="50.0" stroke="0" fill="rgb(255, 0, 0)" opacity="0.2" /><circle cx="183.33333333333331" cy="150.0" r="133.33333333333334" stroke="0" fill="rgb(0, 255, 0)" opacity="0.2" /><circle cx="150.0" cy="0.0" r="2" stroke="0" fill="rgb(255, 0, 0)" opacity="1" /><circle cx="150.0" cy="0.0" r="50.0" stroke="0" fill="rgb(255, 0, 0)" opacity="0.2" /><circle cx="150.0" cy="0.0" r="133.33333333333334" stroke="0" fill="rgb(0, 255, 0)" opacity="0.2" /><circle cx="183.33333333333331" cy="466.6666666666667" r="2" stroke="0" fill="rgb(255, 0, 0)" opacity="1" /><circle cx="183.33333333333331" cy="466.6666666666667" r="50.0" stroke="0" fill="rgb(255, 0, 0)" opacity="0.2" /><circle cx="183.33333333333331" cy="466.6666666666667" r="133.33333333333334" stroke="0" fill="rgb(0, 255, 0)" opacity="0.2" /><circle cx="166.66666666666666" cy="333.3333333333333" r="2" stroke="0" fill="rgb(255, 0, 0)" opacity="1" /><circle cx="166.66666666666666" cy="333.3333333333333" r="50.0" stroke="0" fill="rgb(255, 0, 0)" opacity="0.2" /><circle cx="166.66666666666666" cy="333.3333333333333" r="133.33333333333334" stroke="0" fill="rgb(0, 255, 0)" opacity="0.2" /><circle cx="283.3333333333333" cy="266.6666666666667" r="2" stroke="0" fill="rgb(255, 0, 0)" opacity="1" /><circle cx="283.3333333333333" cy="266.6666666666667" r="50.0" stroke="0" fill="rgb(255, 0, 0)" opacity="0.2" /><circle cx="283.3333333333333" cy="266.6666666666667" r="133.33333333333334" stroke="0" fill="rgb(0, 255, 0)" opacity="0.2" /><circle cx="300.0" cy="16.666666666666668" r="2" stroke="0" fill="rgb(255, 0, 0)" opacity="1" /><circle cx="300.0" cy="16.666666666666668" r="50.0" stroke="0" fill="rgb(255, 0, 0)" opacity="0.2" /><circle cx="300.0" cy="16.666666666666668" r="133.33333333333334" stroke="0" fill="rgb(0, 255, 0)" opacity="0.2" /><circle cx="350.0" cy="483.3333333333333" r="2" stroke="0" fill="rgb(255, 0, 0)" opacity="1" /><circle cx="350.0" cy="483.3333333333333" r="50.0" stroke="0" fill="rgb(255, 0, 0)" opacity="0.2" /><circle cx="350.0" cy="483.3333333333333" r="133.33333333333334" stroke="0" fill="rgb(0, 255, 0)" opacity="0.2" /><circle cx="416.6666666666667" cy="83.33333333333333" r="2" stroke="0" fill="rgb(255, 0, 0)" opacity="1" /><circle cx="416.6666666666667" cy="83.33333333333333" r="50.0" stroke="0" fill="rgb(255, 0, 0)" opacity="0.2" /><circle cx="416.6666666666667" cy="83.33333333333333" r="133.33333333333334" stroke="0" fill="rgb(0, 255, 0)" opacity="0.2" /><circle cx="433.33333333333337" cy="216.66666666666669" r="2" stroke="0" fill="rgb(255, 0, 0)" opacity="1" /><circle cx="433.33333333333337" cy="216.66666666666669" r="50.0" stroke="0" fill="rgb(255, 0, 0)" opacity="0.2" /><circle cx="433.33333333333337" cy="216.66666666666669" r="133.33333333333334" stroke="0" fill="rgb(0, 255, 0)" opacity="0.2" /><circle cx="400.0" cy="350.0" r="2" stroke="0" fill="rgb(255, 0, 0)" opacity="1" /><circle cx="400.0" cy="350.0" r="50.0" stroke="0" fill="rgb(255, 0, 0)" opacity="0.2" /><circle cx="400.0" cy="350.0" r="133.33333333333334" stroke="0" fill="rgb(0, 255, 0)" opacity="0.2" /><circle cx="450.0" cy="0.0" r="2" stroke="0" fill="rgb(255, 0, 0)" opacity="1" /><circle cx="450.0" cy="0.0" r="50.0" stroke="0" fill="rgb(255, 0, 0)" opacity="0.2" /><circle cx="450.0" cy="0.0" r="133.33333333333334" stroke="0" fill="rgb(0, 255, 0)" opacity="0.2" /></svg>