<svg width="500" height="500" xmlns="http://www.w3.org/2000/svg"><rect x="0" y="0" width="500" height="500" stroke="0" fill="rgb(255, 255, 255)" opacity="1" /><circle cx="0.0" cy="0.0" r="2" stroke="0" fill="rgb(0, 0, 0)" opacity="1" /><circle cx="0.0" cy="100.0" r="2" stroke="0" fill="rgb(0, 0, 0)" opacity="1" /><circle cx="0.0" cy="200.0" r="2" stroke="0" fill="rgb(0, 0, 0)" opacity="1" /><circle cx="0.0" cy="300.0" r="2" stroke="0" fill="rgb(0, 0, 0)" opacity="1" /><circle cx="0.0" cy="400.0" r="2" stroke="0" fill="rgb(0, 0, 0)" opacity="1" /><circle cx="66.66666666666667" cy="50.0" r="2" stroke="0" fill="rgb(0, 0, 0)" opacity="1" /><circle cx="66.66666666666667" cy="150.0" r="2" stroke="0" fill="rgb(0, 0, 0)" opacity="1" /><circle cx="66.66666666666667" cy="250.0" r="2" stroke="0" fill="rgb(0, 0, 0)" opacity="1" /><circle cx="66.66666666666667" cy="350.0" r="2" stroke="0" fill="rgb(0, 0, 0)" opacity="1" /><circle cx="66.66666666666667" cy="450.0" r="2" stroke="0" fill="rgb(0, 0, 0)" opacity="1" /><circle cx="133.33333333333334" cy="0.0" r="2" stroke="0" fill="rgb(0, 0, 0)" opacity="1" /><circle cx="133.33333333333334" cy="100.0" r="2" stroke="0" fill="rgb(0, 0, 0)" opacity="1" /><circle cx="133.33333333333334" cy="200.0" r="2" stroke="0" fill="rgb(0, 0, 0)" opacity="1" /><circle cx="133.33333333333334" cy="300.0" r="2" stroke="0" fill="rgb(0, 0, 0)" opacity="1" /><circle cx="133.33333333333334" cy="400.0" r="2" stroke="0" fill="rgb(0, 0, 0)" opacity="1" /><circle cx="200.0" cy="50.0" r="2" stroke="0" fill="rgb(0, 0, 0)" opacity="1" /><circle cx="200.0" cy="150.0" r="2" stroke="0" fill="rgb(0, 0, 0)" opacity="1" /><circle cx="200.0" cy="250.0" r="2" stroke="0" fill="rgb(0, 0, 0)" opacity="1" /><circle cx="200.0" cy="350.0" r="2" stroke="0" fill="rgb(0, 0, 0)" opacity="1" /><circle cx="200.0" cy="450.0" r="2" stroke="0" fill="rgb(0, 0, 0)" opacity="1" /><circle cx="266.6666666666667" cy="0.0" r="2" stroke="0" fill="rgb(0, 0, 0)" opacity="1" /><circle cx="266.6666666666667" cy="100.0" r="2" stroke="0" fill="rgb(0, 0, 0)" opacity="1" /><circle cx="266.6666666666667" cy="200.0" r="2" stroke="0" fill="rgb(0, 0, 0)" opacity="1" /><circle cx="266.6666666666667" cy="300.0" r="2" stroke="0" fill="rgb(0, 0, 0)" opacity="1" /><circle cx="266.6666666666667" cy="400.0" r="2" stroke="0" fill="rgb(0, 0, 0)" opacity="1" /></svg>